<?xml version="1.0" standalone="no"?>
<!DOCTYPE svg PUBLIC "-//W3C//DTD SVG 20010904//EN"
 "http://www.w3.org/TR/2001/REC-SVG-20010904/DTD/svg10.dtd">
<svg version="1.0" xmlns="http://www.w3.org/2000/svg"
 width="640.000000pt" height="640.000000pt" viewBox="0 0 640.000000 640.000000"
 preserveAspectRatio="xMidYMid meet">

<g transform="translate(0.000000,640.000000) scale(0.100000,-0.100000)"
fill="#000000" stroke="none">
<path d="M3045 6071 c-72 -42 -205 -118 -295 -170 -91 -52 -221 -128 -290
-169 -69 -41 -147 -87 -175 -102 -27 -14 -69 -38 -92 -53 -24 -15 -45 -27 -47
-27 -3 0 -94 -53 -203 -117 -109 -64 -214 -125 -233 -135 -19 -10 -48 -27 -65
-37 -42 -25 -196 -115 -415 -241 -102 -58 -250 -145 -330 -191 -80 -47 -170
-100 -201 -117 -32 -18 -59 -38 -61 -45 -2 -6 -2 -674 0 -1483 l4 -1471 78
-46 c43 -26 81 -47 85 -47 4 0 30 -15 58 -34 29 -18 79 -48 112 -66 33 -18 96
-54 140 -80 44 -26 105 -60 135 -77 30 -17 168 -96 305 -175 138 -80 288 -166
335 -193 47 -27 101 -59 121 -72 19 -12 38 -23 42 -23 4 0 26 -12 49 -26 77
-49 228 -134 237 -134 5 0 11 -3 13 -7 2 -5 23 -19 48 -32 25 -14 89 -51 144
-83 54 -33 105 -57 113 -54 8 3 12 2 9 -3 -6 -9 18 -26 134 -91 36 -20 141
-80 233 -133 l169 -97 141 82 c78 44 187 107 242 138 55 31 186 106 290 167
105 61 237 138 295 172 58 34 169 98 248 144 79 45 156 90 170 99 15 10 43 26
63 36 19 10 74 42 121 70 47 29 89 52 92 52 4 0 35 17 69 39 52 32 350 206
477 279 19 11 62 35 95 54 276 160 256 146 256 174 1 10 0 672 0 1470 -1 1145
-4 1453 -13 1466 -7 8 -38 28 -68 44 -30 16 -57 32 -60 35 -3 3 -25 17 -50 31
-60 33 -72 40 -390 223 -151 87 -336 193 -410 235 -74 42 -166 96 -203 119
-38 23 -74 38 -80 35 -7 -4 -9 -3 -4 1 7 8 -23 28 -128 86 -22 12 -104 59
-183 105 -79 46 -145 84 -148 84 -3 0 -30 16 -60 35 -30 19 -57 35 -59 35 -3
0 -22 11 -43 23 -20 13 -93 56 -162 94 -69 39 -208 119 -310 177 -102 58 -192
105 -200 105 -8 -1 -74 -36 -145 -78z m224 16 c42 -24 166 -96 276 -159 110
-63 306 -176 435 -250 129 -75 318 -183 419 -242 101 -58 188 -103 194 -99 5
3 7 1 4 -4 -4 -7 20 -25 56 -43 34 -18 74 -41 89 -51 14 -11 29 -19 32 -19 4
0 35 -17 69 -39 34 -21 139 -82 232 -135 390 -222 370 -208 367 -241 -4 -39
-32 -96 -53 -109 -13 -7 -44 6 -135 59 -66 37 -132 75 -149 85 -16 9 -106 61
-200 115 -93 54 -244 141 -335 193 -91 52 -202 116 -248 143 -45 27 -84 49
-86 49 -3 0 -51 28 -108 61 -120 71 -439 255 -483 279 -16 8 -62 35 -102 59
-41 24 -77 40 -84 35 -7 -4 -9 -3 -6 3 7 10 -236 157 -258 156 -9 0 -118 -62
-340 -191 -33 -19 -96 -55 -140 -80 -44 -24 -91 -52 -105 -62 -14 -9 -126 -74
-250 -145 -124 -70 -245 -140 -270 -156 -25 -15 -74 -43 -110 -63 -36 -20 -64
-40 -62 -46 1 -7 -2 -9 -8 -5 -5 3 -36 -9 -68 -28 -31 -19 -111 -66 -177 -104
-66 -39 -175 -102 -243 -141 -67 -40 -125 -72 -127 -72 -3 0 -29 -16 -59 -35
-30 -19 -57 -35 -59 -35 -3 0 -47 -25 -98 -56 -52 -31 -133 -79 -181 -106
l-88 -49 0 -912 c-1 -502 -1 -991 -1 -1087 0 -96 -3 -181 -7 -187 -10 -15
-118 -21 -131 -8 -13 13 -16 261 -4 258 6 -1 10 4 10 12 0 8 -3 13 -6 12 -3
-1 -7 1 -9 6 -7 23 -1 2017 7 2017 5 0 31 13 58 29 26 16 91 53 143 84 52 30
163 94 245 142 83 48 164 95 180 105 17 9 80 45 140 80 61 35 133 76 160 92
28 16 57 33 65 38 8 5 43 26 78 45 37 22 60 41 56 47 -4 7 -2 8 5 4 12 -8 83
32 701 391 163 95 355 206 400 231 25 14 99 58 165 98 66 40 122 73 124 73 2
1 38 -19 80 -42z m131 -295 c52 -30 113 -65 135 -77 22 -13 96 -56 165 -96
144 -83 213 -123 360 -206 58 -33 166 -95 240 -138 170 -99 378 -218 453 -261
31 -18 57 -31 57 -28 0 3 6 -1 14 -8 7 -8 76 -50 152 -93 202 -114 333 -190
379 -218 22 -13 60 -35 85 -48 25 -13 47 -27 50 -30 3 -3 20 -14 38 -23 l32
-17 0 -1348 0 -1349 -82 -48 c-46 -26 -153 -88 -238 -137 -85 -50 -195 -114
-245 -142 -49 -29 -142 -83 -205 -120 -63 -38 -135 -79 -160 -93 -51 -28 -199
-114 -308 -179 -40 -23 -75 -43 -78 -43 -2 0 -23 -12 -47 -27 -23 -15 -98 -59
-167 -98 -69 -40 -181 -105 -250 -145 -139 -81 -163 -95 -276 -160 -44 -24
-86 -49 -96 -55 -9 -5 -45 -26 -80 -46 -34 -19 -77 -44 -94 -54 l-30 -18 -80
45 c-137 78 -616 353 -697 402 -43 25 -80 46 -82 46 -3 0 -45 25 -96 55 -50
30 -93 55 -94 55 -2 0 -38 20 -79 45 -42 25 -79 45 -81 45 -2 0 -37 19 -77 43
-117 70 -259 152 -318 185 -30 17 -98 55 -150 86 -52 30 -210 121 -351 202
l-256 147 -7 346 c-3 190 -5 798 -4 1350 l3 1004 125 73 c69 40 170 99 225
130 55 32 233 135 395 229 162 94 387 225 500 290 113 65 230 132 260 150 30
18 87 51 125 73 39 23 78 44 87 48 10 3 15 11 11 18 -3 6 -3 8 2 4 4 -4 26 3
49 16 155 89 287 166 323 189 24 15 45 27 47 27 2 0 51 27 107 60 l103 59 55
-31 c31 -17 99 -56 151 -86z m2195 -1035 c4 5 5 2 1 -4 -4 -7 -2 -13 4 -13 6
0 40 -17 75 -37 l64 -37 1 -918 0 -918 -30 0 c-24 0 -30 4 -31 23 l-2 22 -4
-22 c-3 -16 -11 -23 -29 -23 -13 0 -24 -4 -24 -10 0 -5 11 -10 25 -10 20 0 25
-5 26 -27 l2 -28 4 28 c4 22 9 27 33 27 l29 0 3 -112 c2 -62 2 -157 0 -210 -2
-85 -5 -98 -20 -98 -14 0 -15 -2 -2 -10 17 -10 14 -15 -18 -25 -21 -6 -22 -5
-10 14 9 15 10 23 1 32 -16 16 -35 1 -28 -21 7 -21 -10 -29 -45 -20 l-25 6 -5
1098 -5 1097 -30 17 c-16 9 -35 22 -42 29 -7 6 -18 13 -23 15 -7 2 1 27 19 62
17 32 31 67 31 77 0 18 2 18 23 4 13 -8 27 -12 32 -8z m95 -2367 c0 -5 -4 -10
-10 -10 -5 0 -10 5 -10 10 0 6 5 10 10 10 6 0 10 -4 10 -10z m-4890 -105 c0
-12 -14 -15 -65 -15 -51 0 -65 3 -65 15 0 12 14 15 65 15 51 0 65 -3 65 -15z
m4930 0 c0 -13 -12 -15 -67 -13 -42 2 -68 8 -71 16 -3 9 15 12 67 12 57 0 71
-3 71 -15z m-5020 -156 c-12 -9 -11 -9 5 -3 11 4 37 9 58 12 l37 4 0 -150 c0
-108 4 -157 14 -177 8 -14 16 -21 18 -15 5 17 78 -28 78 -48 0 -11 3 -13 8 -6
11 18 90 -24 107 -56 31 -59 129 -119 196 -120 20 0 57 -12 84 -26 41 -24 45
-28 29 -37 -10 -6 -52 -10 -94 -11 -66 0 -70 -1 -35 -8 25 -6 63 -5 103 3 54
10 65 9 87 -5 14 -9 25 -22 25 -28 0 -8 -3 -9 -11 -1 -12 12 -61 5 -53 -8 3
-5 -1 -6 -9 -3 -14 5 -44 -22 -35 -31 5 -6 48 -7 149 -5 57 1 72 -2 114 -29
l47 -30 -146 -3 c-115 -2 -146 0 -146 10 0 7 -8 12 -17 11 -10 -1 -34 5 -53
14 l-35 15 35 5 c32 3 31 4 -10 5 -32 2 -53 9 -74 27 -16 14 -35 25 -41 25 -7
0 -18 6 -24 14 -7 8 -22 17 -34 20 -12 3 -78 37 -147 77 -69 39 -141 81 -160
91 -69 39 -105 62 -113 72 -8 11 -8 385 0 399 2 4 16 7 31 7 22 0 24 -2 12
-11z m4940 -1 c17 -11 22 -10 29 0 5 8 19 12 32 10 22 -3 24 -8 27 -71 l3 -68
-28 3 c-21 2 -29 9 -32 28 l-4 25 -6 -25 c-4 -16 -15 -26 -29 -28 -12 -2 -22
-7 -22 -12 0 -5 10 -10 22 -12 14 -2 24 -12 28 -28 5 -22 7 -23 13 -7 4 11 5
23 1 28 -3 5 9 9 25 9 l31 0 0 -120 0 -120 -37 -23 c-21 -13 -63 -38 -94 -55
-31 -17 -105 -60 -165 -94 -163 -94 -193 -107 -248 -106 -38 0 -50 5 -53 18
-6 22 -39 19 -35 -2 2 -13 -12 -15 -80 -15 -46 0 -71 2 -55 4 15 2 27 10 27
18 0 7 53 43 118 80 135 76 155 88 162 95 3 3 16 11 30 17 14 7 44 24 68 38
23 14 42 21 42 16 0 -6 5 -11 10 -11 6 0 10 8 10 18 0 11 12 24 28 31 15 7 48
26 75 43 l47 30 0 149 c0 143 1 149 20 149 11 0 29 -6 40 -12z m-4505 -489
c33 -19 69 -38 80 -43 19 -9 19 -10 -3 -14 -31 -5 -126 42 -152 75 -25 32 -26
52 -2 31 9 -8 44 -30 77 -49z m3745 -230 c0 -7 8 -9 23 -4 32 10 121 7 125 -5
5 -14 30 -12 35 3 2 7 21 12 44 12 51 0 46 -13 -15 -43 -32 -15 -63 -22 -97
-21 -27 1 -70 0 -95 -1 -25 -1 -53 1 -62 5 -9 3 -25 2 -35 -3 -10 -5 -26 -7
-36 -3 -14 5 -10 10 20 26 21 11 40 23 43 26 5 6 30 17 43 18 4 1 7 -4 7 -10z
m-196 -105 c9 -3 16 -12 16 -19 0 -8 13 -26 28 -42 44 -44 46 -60 9 -80 -18
-9 -36 -16 -41 -15 -5 2 -15 -6 -23 -18 -22 -31 -28 -24 -25 28 3 40 -1 54
-22 79 -17 20 -23 34 -16 38 20 12 41 -4 61 -47 16 -35 19 -37 14 -13 -4 17
-16 40 -27 52 -28 30 -13 52 26 37z m-65 -70 c24 -30 29 -101 9 -126 -48 -58
-114 -64 -164 -14 -53 53 -47 74 39 122 39 23 77 42 84 43 6 1 21 -11 32 -25z
m-2699 -45 c30 -19 116 -68 190 -109 74 -41 141 -80 148 -86 6 -7 21 -16 32
-19 26 -8 25 -23 -2 -35 -19 -7 -13 -9 27 -9 35 -1 64 -9 95 -27 25 -15 65
-38 90 -51 25 -14 49 -29 55 -34 5 -5 -56 -9 -144 -9 l-154 0 -56 32 c-31 18
-74 42 -95 54 -22 12 -41 29 -42 39 -2 13 0 15 9 6 6 -6 31 -11 56 -11 l46 0
-30 16 c-53 27 -94 75 -103 118 l-8 41 -146 2 c-144 1 -148 2 -200 32 -29 16
-72 40 -95 52 -24 13 -43 27 -43 32 0 5 69 7 158 5 l157 -3 55 -36z m2900 31
c0 -5 -9 -14 -20 -20 -11 -6 -20 -9 -20 -6 0 2 -3 11 -6 20 -5 12 0 16 20 16
14 0 26 -4 26 -10z m-367 -137 c8 -8 31 -20 51 -27 l36 -13 -24 -11 c-21 -9
-30 -7 -58 11 -18 13 -42 39 -53 59 -16 31 -17 38 -5 52 12 15 15 13 26 -20 7
-20 19 -43 27 -51z m-6 -48 c31 -21 33 -24 17 -33 -12 -7 -25 -7 -36 -1 -10 6
-24 7 -30 3 -6 -4 -8 -3 -5 2 3 5 -4 21 -15 34 -11 14 -16 19 -12 11 5 -10 3
-12 -5 -7 -7 5 -10 14 -7 22 3 7 -2 21 -11 29 -17 17 -17 17 12 33 18 9 22 6
39 -29 10 -22 34 -51 53 -64z m-207 -19 c16 -21 9 -59 -15 -74 -17 -11 -13
-12 36 -10 35 2 55 -1 52 -7 -7 -18 -191 -115 -217 -115 -15 0 -30 -8 -36 -19
-16 -31 -69 -63 -117 -72 -45 -9 -64 -22 -75 -50 -6 -15 -60 -49 -78 -49 -9 0
6 93 19 118 6 11 7 23 3 27 -4 3 -2 5 3 4 6 -2 21 3 34 10 13 7 44 17 70 21
43 7 42 8 -29 9 l-75 1 25 20 c14 11 34 23 45 26 11 4 45 23 75 43 57 37 75
47 144 82 22 12 52 28 66 35 33 18 55 17 70 0z m87 -8 c0 -13 -1 -17 -4 -10
-3 6 -9 10 -14 6 -5 -3 -9 -1 -9 5 0 5 6 12 13 14 6 3 12 6 12 6 1 1 1 -9 2
-21z m-587 -268 c0 -11 -2 -20 -4 -20 -2 0 -11 -2 -19 -5 -10 -4 -13 1 -11 17
1 13 3 24 3 26 1 1 8 2 16 2 8 0 15 -9 15 -20z m-1022 -12 c17 -17 15 -68 -2
-68 -22 0 -39 28 -32 55 7 28 16 31 34 13z m57 -38 c0 -22 -29 -18 -33 3 -3
14 1 18 15 15 10 -2 18 -10 18 -18z m895 4 c0 -2 -9 -4 -20 -4 -11 0 -20 4
-20 9 0 5 9 7 20 4 11 -3 20 -7 20 -9z m70 -14 c0 -21 -24 -28 -35 -10 -8 14
3 30 21 30 8 0 14 -9 14 -20z m-150 -10 c0 -5 -10 -10 -22 -10 -19 0 -20 2 -8
10 19 13 30 13 30 0z m-745 -37 c5 -17 2 -23 -9 -23 -20 0 -29 16 -21 41 8 23
19 16 30 -18z m845 27 c0 -6 11 -15 25 -20 18 -7 25 -17 25 -35 0 -35 -30 -30
-48 8 -7 15 -18 27 -23 27 -6 0 -8 4 -5 9 4 5 -4 7 -16 4 -19 -4 -20 -3 -8 6
19 14 50 14 50 1z m-902 -18 c3 -9 -2 -13 -14 -10 -9 1 -19 9 -22 16 -3 9 2
13 14 10 9 -1 19 -9 22 -16z m103 -9 c35 -21 40 -48 7 -39 -13 3 -26 6 -29 6
-7 0 -19 50 -12 50 3 0 18 -8 34 -17z m650 0 c1 -10 3 -27 5 -38 18 -103 17
-111 -11 -129 -15 -10 -29 -16 -31 -13 -3 3 -11 38 -18 78 -8 41 -14 65 -15
53 -1 -11 4 -46 10 -78 10 -54 9 -60 -10 -77 -20 -19 -28 -13 -21 16 1 6 1 43
1 84 -2 66 1 75 21 90 47 33 68 38 69 14z m42 0 c10 -37 8 -143 -2 -143 -10 0
-14 22 -15 92 -1 14 -4 30 -8 34 -5 4 -8 13 -8 21 0 19 28 16 33 -4z m-855
-21 c2 -16 14 -27 33 -34 16 -5 29 -16 29 -22 0 -18 36 -57 44 -49 9 9 26 -16
26 -37 -1 -12 -4 -11 -15 4 -9 12 -22 17 -35 13 -11 -3 -17 -1 -14 4 3 5 -9
17 -26 27 -17 9 -33 27 -36 40 -4 13 -14 22 -26 22 -10 0 -16 -4 -13 -10 3 -5
1 -10 -4 -10 -6 0 -11 18 -11 41 0 36 2 40 23 37 14 -2 23 -11 25 -26z m927 3
c0 -23 -34 -33 -45 -14 -13 20 1 40 24 37 13 -2 21 -10 21 -23z m-880 -5 c3
-5 -1 -10 -9 -10 -8 0 -18 5 -21 10 -3 6 1 10 9 10 8 0 18 -4 21 -10z m85 -56
c0 -21 -4 -25 -22 -22 -23 3 -34 28 -24 54 9 24 46 -2 46 -32z m106 -10 c10
-74 13 -82 39 -88 14 -4 25 -13 25 -21 0 -18 -26 -20 -33 -2 -3 7 -6 6 -6 -5
-1 -21 -15 -30 -34 -22 -12 4 -16 26 -16 102 -1 66 2 93 9 86 6 -6 13 -28 16
-50z m-56 27 c0 -10 -22 -31 -32 -31 -4 0 -8 11 -8 24 0 19 4 23 20 19 11 -3
20 -8 20 -12z m510 0 c-13 -26 -27 -34 -35 -20 -4 5 1 17 11 24 27 20 36 18
24 -4z m238 -19 c2 -12 -1 -22 -7 -22 -6 0 -20 -9 -31 -20 -23 -23 -26 -10 -9
39 13 37 42 39 47 3z m52 19 c0 -5 -7 -12 -16 -15 -22 -9 -24 -8 -24 9 0 8 9
15 20 15 11 0 20 -4 20 -9z m-345 -30 c-3 -6 -14 -11 -23 -11 -15 1 -15 2 2
15 21 16 32 13 21 -4z m-447 -37 c2 -12 -4 -24 -12 -27 -19 -7 -40 18 -32 39
8 22 40 13 44 -12z m507 16 c10 -16 -14 -50 -30 -44 -15 6 -20 35 -8 47 10 10
31 8 38 -3z m-105 -9 c0 -5 9 -7 20 -4 12 3 20 2 18 -3 -5 -18 23 -54 43 -54
27 0 36 -28 15 -48 -16 -16 -18 -16 -32 2 -8 11 -14 26 -14 33 0 7 -4 13 -9
13 -5 0 -17 3 -26 6 -15 6 -15 4 -4 -14 17 -27 7 -37 -20 -22 -22 11 -29 40
-10 40 7 0 9 11 6 30 -4 17 -2 30 3 30 6 0 10 -4 10 -9z m-53 -36 c-7 -16 -37
-21 -37 -5 0 10 32 31 39 25 2 -2 1 -11 -2 -20z m-357 -35 c0 -5 -4 -10 -10
-10 -5 0 -10 5 -10 10 0 6 5 10 10 10 6 0 10 -4 10 -10z m188 -39 c3 -8 -1
-12 -9 -9 -7 2 -15 10 -17 17 -3 8 1 12 9 9 7 -2 15 -10 17 -17z m-58 -10 c0
-10 -30 -24 -37 -17 -3 3 -2 9 2 15 8 13 35 15 35 2z"/>
<path d="M786 3007 c3 -10 9 -15 12 -12 3 3 0 11 -7 18 -10 9 -11 8 -5 -6z"/>
<path d="M680 2385 c-8 -9 -8 -15 -2 -15 6 0 17 -3 26 -6 12 -4 16 0 16 15 0
24 -22 28 -40 6z"/>
<path d="M3165 5851 c-6 -6 -71 -45 -145 -87 -74 -42 -160 -91 -190 -109 -30
-17 -129 -75 -220 -127 -91 -53 -227 -132 -304 -177 -76 -44 -140 -81 -143
-81 -2 0 -16 -8 -31 -19 -15 -10 -76 -47 -137 -81 -125 -72 -253 -146 -387
-224 -238 -139 -347 -202 -395 -229 -29 -15 -53 -33 -53 -39 0 -6 -3 -8 -6 -5
-7 6 -34 -8 -181 -96 -74 -44 -89 -59 -84 -90 0 -4 1 -593 1 -1310 0 -716 4
-1307 8 -1313 6 -10 113 -75 252 -152 25 -14 104 -59 175 -100 72 -41 204
-118 295 -170 91 -52 177 -103 192 -113 14 -11 30 -19 35 -19 4 0 24 -11 43
-23 19 -13 67 -41 105 -62 39 -21 79 -43 90 -49 11 -6 22 -14 25 -17 3 -4 25
-17 50 -29 25 -12 56 -30 70 -40 14 -9 50 -30 80 -47 78 -43 133 -74 230 -132
47 -28 101 -57 120 -66 19 -9 37 -19 40 -23 6 -8 21 -17 125 -75 39 -21 75
-39 80 -40 6 -1 13 -6 16 -10 3 -5 68 -44 144 -87 l138 -79 51 30 c28 16 50
33 49 39 -2 5 5 6 14 3 11 -4 14 -3 9 5 -4 8 -2 10 8 6 8 -3 23 3 34 13 10 10
24 19 31 21 7 1 53 27 103 57 50 30 93 55 95 55 3 0 37 19 76 43 40 24 79 47
87 51 8 4 24 12 35 19 48 28 247 144 335 195 52 30 147 85 210 122 150 88 416
242 505 292 39 21 72 43 73 49 2 5 8 7 13 3 5 -3 9 0 9 5 0 6 3 10 8 9 4 -1
39 16 77 39 39 22 142 82 230 133 88 51 181 106 208 122 l47 30 0 1324 0 1323
-22 21 c-13 12 -61 43 -108 69 -47 27 -146 83 -220 126 -74 43 -166 96 -205
118 -38 22 -110 63 -160 92 -49 28 -139 80 -200 115 -60 35 -150 86 -200 115
-49 29 -164 95 -255 147 -91 53 -203 117 -250 143 -47 26 -96 55 -110 65 -14
9 -50 30 -80 47 -97 53 -245 137 -250 143 -3 3 -21 13 -40 24 -19 10 -51 28
-70 39 -138 79 -156 86 -175 68z m432 -245 c200 -115 347 -194 354 -190 7 4 9
3 6 -3 -4 -6 102 -73 251 -158 141 -82 329 -190 417 -240 88 -51 252 -145 365
-210 113 -65 210 -118 216 -118 22 0 8 -28 -22 -43 -67 -35 -103 -96 -111
-188 -6 -64 -21 -103 -48 -126 -8 -7 -54 -18 -101 -25 -144 -22 -209 -86 -220
-221 -5 -50 -13 -79 -32 -107 -21 -32 -23 -41 -14 -62 6 -13 23 -27 37 -31 41
-10 31 -39 -24 -66 l-49 -24 -16 27 c-20 34 -20 36 4 42 19 5 20 14 20 160 l0
156 -37 3 c-36 3 -38 5 -37 36 1 17 -2 32 -7 32 -5 0 -9 -9 -9 -19 0 -13 -15
-26 -43 -40 -41 -20 -67 -53 -67 -86 0 -13 -29 -15 -179 -15 l-179 0 -16 25
c-9 13 -25 29 -36 35 -10 6 -88 13 -172 16 -84 2 -187 7 -228 11 l-75 6 50 13
c28 8 104 18 169 24 65 6 125 15 132 21 10 8 13 4 16 -18 2 -17 10 -29 21 -31
30 -6 47 17 47 64 0 49 4 51 57 29 52 -22 75 -18 28 5 -29 13 -34 18 -17 17
22 -2 24 2 27 73 5 92 8 119 16 115 3 -2 17 6 31 18 24 21 26 26 17 71 -5 27
-14 55 -20 62 -9 11 -8 14 2 15 11 0 11 2 -1 7 -8 4 -32 18 -52 31 -34 21 -38
27 -38 64 0 50 -30 104 -66 117 -57 22 -54 36 -55 -302 0 -297 -1 -312 -17
-288 -67 99 -198 186 -295 197 -42 5 -52 1 -132 -51 -97 -63 -176 -134 -232
-208 l-37 -48 -171 -1 c-93 0 -251 -4 -350 -8 -99 -5 -181 -7 -183 -6 -2 2 35
42 82 89 47 47 82 86 78 86 -4 0 -48 -40 -97 -90 -50 -50 -98 -90 -109 -90
-10 0 -33 -16 -52 -35 l-33 -35 -190 0 -191 0 -16 39 c-15 37 -60 71 -94 71
-6 0 -10 8 -9 18 3 29 0 31 -31 20 -51 -17 -61 -51 -61 -210 1 -114 4 -145 16
-157 23 -23 49 -2 53 41 l3 34 121 -3 c67 -2 123 -5 124 -6 0 -1 4 -15 8 -31
6 -25 5 -28 -7 -18 -11 10 -16 7 -25 -13 -8 -17 -20 -25 -37 -25 -27 0 -32 -9
-13 -28 27 -27 138 -10 138 20 0 4 -11 8 -25 8 -14 0 -25 4 -25 8 0 5 13 7 30
4 30 -4 32 -1 42 61 3 16 15 18 98 20 l95 1 6 -94 c4 -52 10 -105 14 -117 5
-16 3 -23 -6 -23 -8 0 -141 -1 -296 -3 l-283 -2 -14 43 c-16 46 -50 81 -79 82
-10 0 -20 8 -23 18 -10 31 -21 47 -30 42 -5 -3 -8 -8 -7 -12 2 -4 -6 -10 -17
-13 -11 -4 -20 -11 -20 -16 0 -5 -6 -9 -12 -9 -16 0 -16 -316 0 -332 18 -18
47 -4 52 27 l5 30 171 0 c182 0 204 -7 119 -39 -49 -19 -109 -80 -132 -134
-19 -45 -18 -137 1 -183 63 -150 253 -197 376 -91 39 33 80 97 80 124 0 7 -11
-10 -24 -38 -65 -139 -239 -177 -356 -77 -82 71 -104 181 -54 281 37 75 145
140 169 102 9 -15 53 -12 62 5 20 34 135 -33 170 -98 9 -18 23 -61 30 -97 l13
-65 -5 64 c-3 44 -13 78 -30 107 -28 48 -93 98 -142 108 -30 7 -55 25 -36 27
4 0 79 2 166 3 l159 3 -7 -101 c-7 -124 -7 -159 2 -359 7 -140 10 -160 27
-173 16 -11 78 -14 320 -15 172 -1 287 -4 268 -9 -46 -11 -55 -22 -56 -72 l-1
-43 -75 2 c-41 2 -113 8 -159 14 l-85 12 -26 -30 c-25 -28 -27 -36 -38 -228
-19 -298 -13 -275 -82 -328 -103 -80 -107 -102 -34 -166 33 -30 35 -34 24 -60
-18 -44 -10 -85 18 -89 18 -3 22 -10 22 -37 0 -43 28 -61 70 -46 29 10 30 9
61 -57 17 -37 38 -75 46 -84 20 -23 9 -123 -18 -157 -12 -15 -17 -32 -14 -45
5 -19 5 -19 -5 -3 -6 9 -8 23 -4 30 3 6 -8 -4 -25 -23 -17 -19 -31 -38 -31
-42 0 -14 16 -8 30 12 10 14 16 16 22 7 12 -18 10 -27 -5 -21 -19 7 -41 -22
-32 -43 10 -23 6 -104 -6 -123 -6 -10 -7 1 -4 30 5 40 4 42 -6 18 -11 -30 -24
-36 -33 -15 -3 6 -4 3 -1 -8 5 -24 -9 -50 -23 -42 -5 4 -8 22 -6 41 1 20 -1
34 -5 33 -10 -3 -62 59 -55 66 12 12 44 -7 44 -27 0 -19 2 -18 14 6 8 15 13
35 12 45 -3 21 -19 22 -423 23 l-272 1 6 37 c8 49 16 59 61 67 49 9 71 30 78
77 7 44 13 49 69 63 22 6 44 19 50 30 10 19 19 20 190 17 174 -2 215 3 201 27
-5 8 -125 11 -411 11 -313 0 -404 3 -408 13 -4 7 -6 6 -6 -5 -1 -9 -4 -23 -7
-32 -5 -13 15 -15 158 -15 89 0 174 -1 188 -2 l25 -1 -24 -7 c-29 -8 -59 -46
-65 -83 -7 -40 -12 -45 -52 -53 -44 -8 -84 -45 -84 -79 0 -37 -23 -53 -90 -61
-56 -6 -66 -4 -126 26 -36 18 -68 38 -71 46 -3 7 -14 13 -25 13 -19 0 -98 40
-98 50 0 3 16 21 35 39 59 55 80 105 80 191 0 90 -22 138 -89 197 -141 124
-373 56 -417 -122 -16 -64 -21 -68 -52 -54 -31 14 -35 41 -12 96 8 20 13 38
11 41 -5 4 -17 -21 -30 -62 -10 -31 -11 -17 -8 102 l3 113 108 -2 c65 -1 115
2 127 9 25 15 -1 16 -28 1 -16 -9 -19 -8 -12 3 4 7 16 19 26 26 10 7 15 18 12
24 -4 6 -2 8 4 4 6 -3 19 5 30 19 16 20 29 25 68 25 38 0 53 -5 76 -27 l28
-27 0 42 0 42 -32 -7 c-37 -8 -42 -8 -256 -4 -123 2 -152 5 -152 17 0 11 30
14 163 15 89 0 188 0 220 -1 l57 -1 0 30 0 31 -186 0 c-151 0 -188 3 -200 15
-22 21 -35 19 -42 -7 -6 -21 -7 -21 -13 7 -12 54 -10 230 3 243 9 9 9 12 0 12
-17 0 -17 220 1 221 9 0 9 2 0 5 -18 8 -19 628 -1 622 54 -20 120 -39 123 -36
3 2 -27 14 -65 27 l-70 22 0 509 0 509 28 19 c15 11 101 62 192 114 91 52 192
111 225 130 33 20 105 61 160 93 55 32 143 83 195 113 92 53 217 125 480 277
69 40 251 146 405 235 253 147 428 248 525 303 19 11 44 25 54 33 17 11 24 11
50 -5 17 -10 185 -107 373 -215z m403 -1010 c0 -2 -8 -10 -17 -17 -16 -13 -17
-12 -4 4 13 16 21 21 21 13z m1431 -43 l49 -28 1 -775 c0 -426 2 -857 5 -957
3 -101 3 -183 0 -183 -3 0 -18 12 -33 26 l-28 26 -3 -26 c-3 -20 -9 -26 -28
-26 -13 0 -24 -4 -24 -10 0 -5 11 -10 25 -10 20 0 25 -5 25 -26 0 -14 4 -23
10 -19 6 3 10 15 10 26 0 13 7 19 24 19 24 0 25 -1 24 -95 0 -53 -2 -104 -5
-115 -6 -23 -33 -27 -33 -5 0 8 -9 15 -20 15 -11 0 -20 -7 -20 -15 0 -12 -18
-15 -101 -15 -55 0 -109 5 -119 10 -13 7 -21 7 -25 0 -3 -5 -33 -10 -66 -10
l-59 0 0 -30 0 -31 163 1 c89 0 172 1 185 0 13 0 22 -6 22 -15 0 -8 7 -15 15
-15 9 0 15 -9 15 -25 0 -20 5 -25 26 -25 14 0 23 -4 19 -10 -3 -5 -15 -10 -26
-10 -14 0 -19 -7 -19 -25 0 -16 -6 -25 -16 -25 -10 0 -14 7 -12 23 2 16 -3 23
-19 25 -28 4 -31 22 -4 22 22 0 33 31 17 45 -7 6 -83 9 -188 7 l-178 -3 0 -64
c0 -57 2 -64 21 -67 18 -3 14 -10 -31 -53 -28 -27 -56 -59 -62 -70 -5 -11 23
12 63 52 l74 72 140 1 c77 1 148 -1 158 -5 20 -8 22 -21 5 -28 -10 -4 -10 -6
0 -6 8 -1 16 8 19 18 3 10 16 21 29 24 27 5 27 5 27 -186 l-1 -78 -140 -80
c-77 -43 -147 -79 -156 -79 -8 0 -21 10 -27 22 l-12 22 -15 -22 c-8 -12 -23
-22 -33 -22 -27 0 -31 -15 -9 -35 20 -18 19 -19 -47 -58 -38 -21 -77 -44 -88
-51 -20 -13 -42 -16 -38 -5 1 3 -5 6 -13 6 -10 0 -14 -7 -10 -19 4 -16 -7 -25
-55 -48 -32 -15 -65 -32 -72 -38 -7 -7 -73 -10 -168 -10 -86 1 -161 -2 -167
-6 -7 -4 -12 -1 -12 6 0 8 -3 9 -8 3 -4 -5 -14 -11 -22 -13 -11 -3 -11 1 3 16
21 23 22 52 1 52 -8 0 -13 -4 -10 -9 4 -5 0 -12 -6 -14 -7 -3 -4 -6 7 -7 19
-1 19 -1 1 -15 -14 -11 -67 -14 -248 -15 -127 0 -235 -3 -239 -6 -5 -3 -6 3
-3 13 6 15 4 15 -9 -2 -9 -11 -17 -25 -17 -31 0 -6 -6 -17 -14 -23 -8 -7 -12
-21 -9 -32 4 -14 1 -18 -9 -14 -7 3 -22 -1 -33 -9 -17 -12 -18 -17 -6 -56 7
-23 11 -43 9 -44 -2 -1 -22 -17 -45 -34 -101 -79 -244 -110 -375 -83 -46 10
-61 19 -84 48 -47 62 -102 201 -124 318 -12 61 -33 165 -46 232 -13 67 -24
125 -24 128 0 9 -21 6 -53 -9 -86 -37 -349 -137 -352 -134 -2 2 -20 39 -42 84
l-39 81 23 68 c13 38 23 74 22 79 -1 13 -49 -84 -49 -99 0 -6 -13 -26 -29 -45
-24 -28 -32 -33 -42 -22 -13 12 -7 51 17 117 5 14 1 12 -15 -7 -28 -35 -61
-37 -61 -5 0 30 76 164 103 181 12 8 79 40 149 71 l127 56 105 -52 c58 -29
107 -51 110 -48 2 2 0 60 -6 129 -5 69 -8 153 -6 187 l4 62 -51 -6 c-38 -4
-47 -3 -39 6 6 7 30 12 53 13 23 0 48 7 56 14 7 8 39 56 70 108 l56 95 -27 43
c-31 50 -41 58 -71 58 -19 0 -23 6 -23 30 l0 31 -326 -1 c-230 -1 -330 2 -338
10 -7 7 -13 134 -18 403 -4 216 -10 430 -13 477 l-6 86 93 22 c216 50 411 63
773 51 346 -12 753 -50 768 -72 4 -7 5 -50 2 -97 -3 -47 -9 -259 -13 -472 -5
-285 -10 -390 -19 -399 -10 -10 -91 -12 -338 -10 l-325 3 0 -31 c0 -29 2 -31
39 -31 22 0 51 -4 64 -9 22 -9 24 -14 20 -55 -5 -43 -4 -46 23 -56 28 -11 81
-9 238 11 115 15 122 5 130 -201 2 -47 7 -136 11 -199 8 -110 7 -114 -11 -107
-10 4 -40 12 -65 18 -42 10 -49 8 -88 -16 -23 -15 -59 -42 -80 -61 -33 -30
-40 -44 -45 -89 -11 -84 -3 -100 69 -135 66 -33 131 -96 141 -138 6 -23 -38
-133 -53 -133 -5 0 -13 4 -19 9 -14 14 -168 90 -173 86 -2 -2 8 -10 22 -16 15
-7 24 -16 21 -20 -3 -5 1 -9 8 -9 7 0 37 -11 66 -25 37 -17 52 -30 52 -44 0
-25 20 -38 30 -20 7 11 18 9 54 -10 25 -12 46 -25 46 -29 0 -7 30 -21 74 -36
22 -7 30 2 -176 -212 l-97 -100 -9 35 -10 36 2 -42 c0 -24 4 -43 9 -43 8 0
273 270 294 300 12 16 10 22 -12 44 -14 14 -31 26 -37 26 -16 0 -97 40 -103
50 -3 5 2 27 11 49 13 34 22 42 51 47 30 6 37 13 58 59 12 29 26 67 30 85 4
18 10 29 14 24 10 -15 28 -14 28 2 0 7 -6 14 -14 14 -25 0 -13 31 28 73 65 66
74 84 59 110 -11 20 -81 83 -123 111 -15 10 -20 39 -32 196 -8 102 -14 208
-14 236 0 67 -38 118 -82 112 -33 -5 -30 0 31 64 35 37 35 38 116 38 63 0 85
4 95 17 11 12 15 84 19 327 l5 311 30 -49 c98 -159 202 -286 234 -286 31 0
106 91 126 151 9 29 30 68 46 84 34 37 35 42 9 70 l-20 21 140 2 c136 2 140 1
128 -17 -23 -38 33 -70 62 -36 17 20 8 278 -10 317 -7 15 -26 32 -41 39 -26
10 -40 29 -21 29 23 0 55 76 67 157 11 77 17 90 44 115 22 20 43 28 69 29 116
2 191 43 229 124 12 27 23 66 23 85 0 103 39 150 132 160 35 4 67 8 72 9 4 0
30 -11 57 -26z m-1806 -99 c65 -15 143 -64 194 -121 28 -31 50 -62 48 -68 -2
-5 -23 -11 -48 -12 -104 -6 -223 -26 -315 -55 -72 -23 -125 -32 -192 -35 l-94
-4 30 43 c36 53 131 144 191 184 105 70 127 82 141 79 8 -2 29 -7 45 -11z
m-847 -331 c-16 -2 -40 -2 -55 0 -16 2 -3 4 27 4 30 0 43 -2 28 -4z m900 0
c-16 -2 -40 -2 -55 0 -16 2 -3 4 27 4 30 0 43 -2 28 -4z m-1091 -9 c-3 -3 -12
-4 -19 -1 -8 3 -5 6 6 6 11 1 17 -2 13 -5z m1535 -147 c3 -19 9 -22 53 -22 49
0 50 -1 53 -33 2 -18 12 -38 25 -47 19 -13 23 -13 38 1 10 9 19 29 21 46 l3
30 123 2 c106 3 122 1 123 -13 0 -9 2 -24 4 -33 4 -23 -6 -23 -38 2 -14 11
-38 23 -54 26 -24 5 -33 0 -61 -35 -52 -65 -71 -74 -126 -60 -33 8 -54 8 -76
0 -28 -9 -34 -8 -54 16 -16 18 -32 26 -53 25 -26 0 -32 4 -36 26 -4 20 0 32
15 45 19 16 20 19 4 35 -9 10 -16 24 -16 31 0 20 49 -19 52 -42z m209 -409
c81 -2 110 -7 132 -22 l27 -18 -28 -33 c-16 -18 -34 -53 -40 -77 -8 -30 -27
-63 -56 -94 l-44 -49 -22 20 c-77 68 -220 292 -220 345 0 9 10 22 23 27 19 9
28 4 73 -42 l51 -53 104 -4z m-1944 -265 c-3 -10 -5 -2 -5 17 0 19 2 27 5 18
2 -10 2 -26 0 -35z m1402 -429 c-53 -53 -59 -56 -125 -64 -38 -5 -93 -9 -121
-10 l-53 0 0 49 c0 53 -5 60 -54 72 -17 4 68 7 189 8 l220 1 -56 -56z m-792
-16 c-3 -8 -6 -5 -6 6 -1 11 2 17 5 13 3 -3 4 -12 1 -19z m-330 -84 c-3 -3
-12 -4 -19 -1 -8 3 -5 6 6 6 11 1 17 -2 13 -5z m439 -98 c0 -13 -3 -23 -5 -21
-2 3 -16 -2 -32 -10 -32 -17 -89 -20 -89 -5 0 6 17 10 38 10 28 0 45 7 62 25
29 31 28 31 26 1z m-489 -63 c-3 -10 -5 -2 -5 17 0 19 2 27 5 18 2 -10 2 -26
0 -35z m2843 17 c0 -5 -4 -10 -10 -10 -5 0 -10 5 -10 10 0 6 5 10 10 10 6 0
10 -4 10 -10z m-2863 -292 c-3 -8 -6 -5 -6 6 -1 11 2 17 5 13 3 -3 4 -12 1
-19z m2883 -43 c0 -8 -6 -15 -14 -15 -7 0 -19 7 -26 15 -11 13 -8 15 14 15 16
0 26 -5 26 -15z m-3007 -117 c-14 -23 -13 -43 4 -55 9 -7 12 -13 6 -13 -5 0
-17 8 -26 18 -15 16 -15 20 -1 40 16 23 31 31 17 10z m1517 -22 c0 -2 -8 -10
-17 -17 -16 -13 -17 -12 -4 4 13 16 21 21 21 13z m-2619 -94 c125 -65 174
-215 110 -340 -18 -34 -84 -102 -101 -102 -3 0 -63 34 -134 75 -70 41 -132 72
-138 69 -7 -4 -8 -2 -4 4 4 7 2 12 -5 12 -8 0 -10 19 -7 63 6 99 53 149 157
167 42 7 43 8 11 9 -19 0 -53 -8 -75 -18 -72 -33 -105 -86 -105 -167 0 -25 -3
-44 -7 -42 -5 2 -22 12 -40 23 -28 17 -30 23 -26 55 26 176 210 273 364 192z
m1079 -655 c13 -9 20 -17 15 -17 -5 0 0 -7 11 -15 17 -13 6 -14 -106 -15 -69
-1 -144 -2 -168 -3 -32 -2 -41 1 -37 11 3 8 5 16 5 18 0 3 10 0 23 -6 21 -11
21 -10 3 4 -11 9 -14 16 -8 16 7 0 12 4 12 8 0 5 -7 9 -15 9 -8 0 -12 -3 -10
-6 2 -4 -4 -17 -14 -29 -16 -22 -22 -23 -170 -23 -146 0 -154 1 -197 26 -24
14 -44 29 -44 33 0 4 152 7 338 7 302 -1 340 -3 362 -18z m2050 12 c0 -7 -59
-23 -72 -20 -5 0 -8 -3 -8 -8 0 -5 -13 -15 -28 -22 -23 -11 -81 -13 -269 -11
l-241 3 5 22 c3 12 6 27 8 32 3 11 605 15 605 4z m157 -1 c-15 -10 -54 -10
-60 0 -3 4 12 7 34 7 22 1 33 -2 26 -7z m-780 -20 c-3 -8 -6 -5 -6 6 -1 11 2
17 5 13 3 -3 4 -12 1 -19z m729 -10 c4 -7 3 -8 -4 -4 -7 4 -12 3 -12 -2 0 -13
-57 -47 -93 -56 -15 -3 -36 -14 -45 -24 -23 -21 -79 -62 -87 -62 -16 0 0 33
36 74 22 25 36 46 29 46 -6 0 -8 5 -5 11 4 6 14 8 22 5 8 -3 12 -2 8 3 -8 14
14 19 82 20 37 1 65 -4 69 -11z m-724 -66 c-7 -2 -12 -10 -12 -18 0 -8 -7 -14
-15 -14 -14 0 -13 3 1 25 9 14 21 22 27 18 8 -5 7 -8 -1 -11z m-1567 -23 c22
-12 49 -29 60 -39 14 -13 38 -20 78 -21 43 -2 57 -6 57 -17 0 -26 -49 -99 -70
-105 -13 -3 -22 -17 -26 -37 -4 -17 -13 -34 -19 -37 -7 -2 -46 15 -87 40 -40
24 -97 57 -125 73 -29 16 -53 35 -53 42 0 26 22 54 53 67 26 12 28 14 10 15
-20 0 -73 -51 -73 -71 0 -13 -22 -11 -43 5 -17 13 -17 15 8 40 14 14 30 26 35
26 6 0 10 4 10 8 0 14 52 30 100 31 29 1 60 -7 85 -20z m241 -44 c-4 -11 2
-15 22 -15 26 1 26 1 8 15 -17 13 -18 15 -3 15 9 0 17 -4 17 -10 0 -5 18 -22
40 -36 27 -18 40 -34 40 -50 0 -51 -5 -54 -111 -54 l-98 0 24 36 c14 20 25 45
25 55 0 11 8 28 18 38 21 24 26 25 18 6z m1751 -31 c2 -5 -31 -30 -74 -55
l-78 -44 -192 -5 -191 -5 -5 35 c-5 37 12 66 48 81 30 12 488 6 492 -7z
m-1067 -49 c0 -3 -9 0 -20 7 -11 7 -20 19 -20 27 0 11 6 9 20 -7 11 -12 20
-24 20 -27z m-28 -37 c-5 -22 -22 -34 -22 -16 0 7 -3 24 -7 36 -5 22 -4 23 14
11 13 -7 18 -19 15 -31z m66 -8 c5 -13 3 -13 -11 -1 -15 12 -17 11 -17 -7 0
-15 9 -22 30 -27 27 -6 36 -19 31 -47 0 -5 4 -8 10 -8 5 0 7 -5 4 -10 -4 -7
-12 -7 -25 0 -24 13 -52 14 -32 1 17 -10 12 -43 -7 -49 -11 -4 -13 4 -8 39 4
29 1 53 -8 69 -22 39 -19 62 7 58 12 -2 24 -10 26 -18z m-118 -5 c0 -8 -7 -15
-16 -15 -14 0 -14 3 -4 15 7 8 14 15 16 15 2 0 4 -7 4 -15z m-351 -72 c6 -13
19 -23 31 -23 13 0 22 -9 26 -26 4 -14 17 -30 30 -34 32 -12 34 -60 4 -60 -15
0 -22 8 -26 29 -4 20 -13 30 -30 34 -15 2 -21 0 -17 -7 12 -19 9 -194 -2 -182
-17 17 -38 177 -26 189 20 20 12 47 -16 59 -38 16 -37 16 -23 33 11 13 10 14
-4 9 -11 -4 -16 -1 -16 10 0 9 -7 16 -15 16 -8 0 -15 4 -15 10 0 18 88 -33 99
-57z m406 0 c-3 -38 -1 -99 4 -138 6 -54 9 -61 10 -28 2 74 18 55 40 -50 29
-130 30 -152 11 -152 -10 0 -20 23 -32 75 -17 72 -18 41 -2 -53 7 -37 6 -39
-17 -35 -22 3 -24 7 -24 68 0 36 -2 92 -4 125 -3 59 -3 60 -12 22 -12 -51 -28
-79 -42 -74 -6 2 -20 39 -29 83 -17 75 -17 50 -1 -58 5 -34 3 -38 -16 -38 -23
0 -24 1 -22 85 1 70 -16 204 -18 143 0 -20 -6 -49 -12 -65 -10 -26 -12 -26
-19 -8 -4 11 -10 41 -14 68 l-7 47 40 0 41 0 1 -42 1 -43 9 44 c4 24 14 49 20
57 19 23 39 16 40 -13 l1 -28 7 30 c3 17 11 30 18 30 6 0 15 3 19 8 13 13 14
8 9 -60z m511 -73 c2 -61 -1 -112 -7 -115 -5 -4 -9 9 -10 27 l-1 33 -11 -39
c-12 -38 -40 -67 -52 -54 -4 4 -14 50 -23 103 -18 103 -13 127 26 133 17 3 22
-5 31 -50 5 -29 12 -62 15 -73 6 -24 -1 55 -10 107 -5 30 -3 37 12 40 11 2 21
3 23 1 3 -2 6 -53 7 -113z m-1255 73 c12 -16 12 -17 -2 -6 -9 7 -20 9 -24 5
-5 -4 -5 -1 -1 6 9 16 11 15 27 -5z m399 7 c0 -5 -9 -10 -19 -10 -11 0 -23 5
-26 10 -4 6 5 10 19 10 14 0 26 -4 26 -10z m510 0 c0 -5 -9 -10 -19 -10 -11 0
-23 5 -26 10 -4 6 5 10 19 10 14 0 26 -4 26 -10z m-470 -30 c0 -11 0 -23 1
-27 0 -4 -4 -9 -10 -11 -14 -5 -25 23 -17 43 8 22 26 18 26 -5z m528 -9 c3
-19 0 -22 -13 -18 -9 4 -14 3 -10 -3 3 -6 2 -10 -4 -10 -13 0 -24 37 -16 50
12 19 40 6 43 -19z m59 -18 l11 -48 -5 48 -5 47 36 0 c33 0 36 -2 36 -30 0
-44 -20 -82 -41 -77 -10 3 -20 -1 -23 -9 -3 -8 -12 -14 -20 -14 -17 0 -39 34
-29 44 3 3 6 24 5 46 -3 57 22 52 35 -7z m103 20 c0 -16 7 -68 16 -117 12 -73
13 -91 2 -97 -7 -5 -17 -7 -23 -6 -13 4 -17 247 -5 247 6 0 10 -12 10 -27z
m-830 -18 c0 -18 -5 -25 -19 -25 -11 0 -23 5 -26 10 -11 18 3 40 25 40 15 0
20 -7 20 -25z m607 -5 c6 -16 18 -30 27 -30 9 0 16 -5 16 -11 0 -5 5 -7 12 -3
7 5 9 0 6 -14 -5 -17 0 -24 28 -34 24 -8 35 -20 39 -40 5 -19 13 -28 26 -28
10 0 19 -5 19 -11 0 -5 4 -8 8 -5 4 2 9 -6 10 -20 1 -19 -3 -24 -23 -24 -18 0
-26 7 -31 25 -5 21 -30 45 -46 45 -2 0 -2 -29 0 -65 2 -64 2 -64 -31 -80 -30
-14 -37 -14 -70 0 -30 12 -37 21 -38 43 l0 27 -11 -25 c-10 -23 -12 -20 -25
38 -8 35 -12 66 -10 69 11 11 27 -9 27 -34 0 -15 3 -24 6 -20 4 3 1 43 -7 88
-10 64 -10 84 -1 87 7 2 12 12 12 21 0 42 41 42 57 1z m-140 -2 c-3 -8 -6 -5
-6 6 -1 11 2 17 5 13 3 -3 4 -12 1 -19z m-527 -80 c0 -48 -3 -69 -10 -62 -9 9
-3 134 6 134 2 0 4 -32 4 -72z m77 -18 c8 -36 12 -73 11 -83 -3 -16 -7 -15
-40 8 -41 28 -48 54 -27 114 18 52 41 36 56 -39z m502 33 c13 -47 14 -63 2
-63 -14 0 -19 12 -27 58 -8 54 11 57 25 5z m581 33 c0 -2 -7 -7 -16 -10 -8 -3
-12 -2 -9 4 6 10 25 14 25 6z m-61 -46 c-16 -10 -32 -3 -23 11 3 5 10 7 15 4
5 -4 9 0 10 7 0 10 2 10 6 -1 3 -7 -1 -17 -8 -21z m-1149 11 c0 -5 -3 -16 -6
-25 -5 -14 -9 -14 -34 -1 -45 23 -46 35 -1 35 23 0 41 -4 41 -9z m908 -39 c3
-18 -1 -22 -22 -22 -19 0 -26 5 -26 18 0 39 43 43 48 4z m-677 8 c15 -9 17
-15 9 -30 -20 -37 -57 -19 -45 20 7 23 10 24 36 10z m166 -6 c3 -8 1 -20 -6
-27 -8 -8 -11 -8 -11 0 0 6 -3 18 -6 27 -3 9 -1 16 5 16 7 0 14 -7 18 -16z
m-112 -86 c3 -24 8 -55 11 -70 4 -21 2 -27 -9 -23 -14 6 -39 112 -30 128 11
18 22 4 28 -35z m-41 15 c3 -10 8 -35 12 -57 l7 -39 -33 19 c-39 23 -44 33
-31 67 12 31 37 36 45 10z m186 -44 c17 -6 31 -20 34 -35 4 -14 16 -26 31 -30
16 -4 28 -16 31 -31 4 -13 17 -29 31 -34 27 -10 40 -36 25 -51 -15 -15 -52 1
-52 23 0 11 -6 22 -14 25 -8 3 -12 13 -9 25 3 10 0 19 -6 19 -5 0 -8 -7 -5
-15 4 -9 0 -15 -9 -15 -8 0 -18 11 -21 25 -4 14 -17 30 -30 35 -30 11 -34 18
-39 66 -3 21 -2 31 0 21 3 -10 17 -23 33 -28z m85 1 c-3 -5 -1 -10 6 -10 8 0
8 -4 -1 -15 -16 -20 -36 -19 -44 1 -8 21 1 34 25 34 11 0 17 -4 14 -10z m348
-26 c-23 -17 -33 -17 -33 0 0 16 19 25 38 18 9 -3 8 -8 -5 -18z m-435 -58 c2
-9 1 -25 -3 -34 -6 -15 -8 -15 -15 3 -13 31 -12 57 3 53 6 -3 14 -12 15 -22z
m267 -21 c0 -10 -6 -20 -12 -22 -8 -3 -13 5 -13 22 0 17 5 25 13 23 6 -3 12
-13 12 -23z m-48 -21 c6 -16 -12 -34 -34 -34 -7 0 -13 9 -13 19 0 18 12 28 33
30 4 1 10 -6 14 -15z m-150 -20 c9 -23 -13 -40 -32 -24 -8 7 -15 19 -15 26 0
19 39 18 47 -2z m53 -54 c0 -13 -11 -13 -30 0 -12 8 -11 10 8 10 12 0 22 -4
22 -10z"/>
<path d="M2423 4869 c-33 -21 -50 -59 -55 -124 -2 -21 -11 -34 -30 -43 -37
-18 -69 -65 -75 -113 -5 -31 -12 -43 -30 -50 -14 -5 -30 -23 -36 -39 -6 -17
-14 -30 -18 -30 -4 0 -27 9 -53 20 -32 15 -46 27 -46 40 0 29 -28 24 -60 -10
-25 -27 -28 -39 -34 -117 -3 -49 -4 -107 -2 -130 1 -24 -1 -43 -6 -43 -4 0 -8
-4 -8 -8 0 -9 44 -32 59 -32 11 0 31 56 31 86 0 23 3 24 69 24 l68 0 6 -41
c12 -88 69 -92 75 -5 l3 46 70 0 69 0 0 -44 c0 -49 18 -71 50 -61 20 6 20 12
20 351 0 321 -1 344 -17 344 -10 0 -33 -10 -50 -21z"/>
<path d="M3810 4801 c0 -11 -4 -23 -10 -26 -17 -11 -11 -35 9 -35 12 0 23 11
30 31 15 44 14 49 -9 49 -13 0 -20 -7 -20 -19z"/>
<path d="M4670 4723 l-95 -98 98 95 c53 52 97 96 97 97 0 8 -12 -4 -100 -94z"/>
<path d="M2942 4754 c-7 -8 -8 -14 -3 -14 10 0 25 19 20 25 -2 1 -10 -3 -17
-11z"/>
<path d="M2692 4734 c-7 -8 -8 -14 -3 -14 10 0 25 19 20 25 -2 1 -10 -3 -17
-11z"/>
<path d="M3290 4661 c0 -6 4 -13 10 -16 6 -3 7 1 4 9 -7 18 -14 21 -14 7z"/>
<path d="M3045 4649 c-11 -16 -1 -19 13 -3 7 8 8 14 3 14 -5 0 -13 -5 -16 -11z"/>
<path d="M2795 4629 c-4 -6 -5 -12 -2 -15 2 -3 7 2 10 11 7 17 1 20 -8 4z"/>
<path d="M4230 4637 c0 -2 15 -16 33 -33 l32 -29 -29 33 c-28 30 -36 37 -36
29z"/>
<path d="M1620 4570 c0 -5 5 -10 10 -10 6 0 10 5 10 10 0 6 -4 10 -10 10 -5 0
-10 -4 -10 -10z"/>
<path d="M4365 4530 c3 -5 8 -10 11 -10 2 0 4 5 4 10 0 6 -5 10 -11 10 -5 0
-7 -4 -4 -10z"/>
<path d="M1561 4507 c-8 -10 -7 -14 2 -14 8 0 14 6 14 14 0 7 -1 13 -2 13 -2
0 -8 -6 -14 -13z"/>
<path d="M1690 4500 c0 -5 5 -10 10 -10 6 0 10 5 10 10 0 6 -4 10 -10 10 -5 0
-10 -4 -10 -10z"/>
<path d="M2672 4484 c-7 -8 -8 -14 -3 -14 10 0 25 19 20 25 -2 1 -10 -3 -17
-11z"/>
<path d="M1490 4440 c0 -5 5 -10 10 -10 6 0 10 5 10 10 0 6 -4 10 -10 10 -5 0
-10 -4 -10 -10z"/>
<path d="M1631 4437 c-8 -10 -7 -14 2 -14 8 0 14 6 14 14 0 7 -1 13 -2 13 -2
0 -8 -6 -14 -13z"/>
<path d="M4129 4421 c-20 -20 -29 -39 -29 -61 0 -45 47 -90 95 -90 40 0 86 36
84 67 0 14 -2 15 -6 3 -21 -57 -89 -78 -134 -41 -18 14 -24 29 -24 61 0 32 6
47 24 61 45 37 113 16 134 -41 4 -12 6 -11 6 3 1 10 -10 29 -24 42 -35 36 -88
34 -126 -4z"/>
<path d="M1760 4430 c0 -5 5 -10 10 -10 6 0 10 5 10 10 0 6 -4 10 -10 10 -5 0
-10 -4 -10 -10z"/>
<path d="M3280 4396 c7 -7 13 -7 20 0 6 6 3 10 -10 10 -13 0 -16 -4 -10 -10z"/>
<path d="M2775 4379 c-4 -6 -5 -12 -2 -15 2 -3 7 2 10 11 7 17 1 20 -8 4z"/>
<path d="M1426 4372 c-3 -5 1 -9 9 -9 8 0 12 4 9 9 -3 4 -7 8 -9 8 -2 0 -6 -4
-9 -8z"/>
<path d="M1560 4370 c0 -5 5 -10 10 -10 6 0 10 5 10 10 0 6 -4 10 -10 10 -5 0
-10 -4 -10 -10z"/>
<path d="M1693 4365 c0 -6 6 -12 12 -12 6 0 12 6 12 12 0 6 -6 12 -12 12 -6 0
-12 -6 -12 -12z"/>
<path d="M1830 4360 c0 -5 5 -10 10 -10 6 0 10 5 10 10 0 6 -4 10 -10 10 -5 0
-10 -4 -10 -10z"/>
<path d="M1360 4310 c0 -5 5 -10 10 -10 6 0 10 5 10 10 0 6 -4 10 -10 10 -5 0
-10 -4 -10 -10z"/>
<path d="M1493 4305 c0 -8 7 -15 15 -15 12 0 12 3 2 15 -7 8 -13 15 -15 15 -1
0 -2 -7 -2 -15z"/>
<path d="M1630 4300 c0 -5 5 -10 10 -10 6 0 10 5 10 10 0 6 -4 10 -10 10 -5 0
-10 -4 -10 -10z"/>
<path d="M1763 4295 c0 -6 6 -12 12 -12 6 0 12 6 12 12 0 6 -6 12 -12 12 -6 0
-12 -6 -12 -12z"/>
<path d="M1900 4290 c0 -5 5 -10 10 -10 6 0 10 5 10 10 0 6 -4 10 -10 10 -5 0
-10 -4 -10 -10z"/>
<path d="M3148 4283 c7 -3 16 -2 19 1 4 3 -2 6 -13 5 -11 0 -14 -3 -6 -6z"/>
<path d="M4382 4241 c-27 -23 -30 -30 -19 -40 21 -17 45 -3 52 31 4 16 5 31 3
33 -1 2 -18 -9 -36 -24z"/>
<path d="M1293 4243 c0 -7 6 -13 12 -13 6 0 12 6 12 13 0 8 -6 14 -12 14 -6 0
-12 -6 -12 -14z"/>
<path d="M1435 4240 c-3 -5 -1 -10 4 -10 6 0 11 5 11 10 0 6 -2 10 -4 10 -3 0
-8 -4 -11 -10z"/>
<path d="M1563 4235 c0 -8 7 -15 15 -15 12 0 12 3 2 15 -7 8 -13 15 -15 15 -1
0 -2 -7 -2 -15z"/>
<path d="M1700 4230 c0 -5 5 -10 10 -10 6 0 10 5 10 10 0 6 -4 10 -10 10 -5 0
-10 -4 -10 -10z"/>
<path d="M4120 4222 c0 -15 24 -32 45 -32 19 1 19 1 -4 20 -24 21 -41 26 -41
12z"/>
<path d="M1230 4180 c0 -5 5 -10 10 -10 6 0 10 5 10 10 0 6 -4 10 -10 10 -5 0
-10 -4 -10 -10z"/>
<path d="M1371 4177 c-8 -10 -7 -14 2 -14 8 0 14 6 14 14 0 7 -1 13 -2 13 -2
0 -8 -6 -14 -13z"/>
<path d="M1500 4170 c0 -5 5 -10 10 -10 6 0 10 5 10 10 0 6 -4 10 -10 10 -5 0
-10 -4 -10 -10z"/>
<path d="M1633 4165 c0 -8 7 -15 15 -15 12 0 12 3 2 15 -7 8 -13 15 -15 15 -1
0 -2 -7 -2 -15z"/>
<path d="M1300 4110 c0 -5 5 -10 10 -10 6 0 10 5 10 10 0 6 -4 10 -10 10 -5 0
-10 -4 -10 -10z"/>
<path d="M1570 4100 c0 -5 5 -10 10 -10 6 0 10 5 10 10 0 6 -4 10 -10 10 -5 0
-10 -4 -10 -10z"/>
<path d="M1710 4095 c-10 -12 -10 -15 2 -15 8 0 15 7 15 15 0 8 -1 15 -2 15
-2 0 -8 -7 -15 -15z"/>
<path d="M1370 4039 c0 -5 5 -7 10 -4 6 3 10 8 10 11 0 2 -4 4 -10 4 -5 0 -10
-5 -10 -11z"/>
<path d="M1640 4030 c0 -5 5 -10 10 -10 6 0 10 5 10 10 0 6 -4 10 -10 10 -5 0
-10 -4 -10 -10z"/>
<path d="M1440 3970 c0 -5 5 -10 10 -10 6 0 10 5 10 10 0 6 -4 10 -10 10 -5 0
-10 -4 -10 -10z"/>
<path d="M996 3955 c-8 -23 -8 -27 3 -20 5 3 12 -3 14 -12 3 -13 5 -12 6 5 1
22 6 21 116 -38 63 -34 115 -59 115 -56 0 4 -206 118 -241 134 -4 2 -9 -4 -13
-13z"/>
<path d="M1710 3960 c0 -5 5 -10 10 -10 6 0 10 5 10 10 0 6 -4 10 -10 10 -5 0
-10 -4 -10 -10z"/>
<path d="M975 3909 c-4 -6 -5 -12 -2 -15 2 -3 7 2 10 11 7 17 1 20 -8 4z"/>
<path d="M1510 3901 c0 -6 5 -13 10 -16 6 -3 10 1 10 9 0 9 -4 16 -10 16 -5 0
-10 -4 -10 -9z"/>
<path d="M1022 3885 c0 -11 4 -31 8 -45 6 -20 8 -21 8 -5 0 11 -4 31 -8 45 -6
20 -8 21 -8 5z"/>
<path d="M2249 3877 c-8 -18 -20 -27 -36 -27 -12 0 -23 -4 -23 -8 0 -36 105
-46 135 -12 18 20 17 20 -8 20 -19 0 -31 8 -41 27 l-14 28 -13 -28z"/>
<path d="M1260 3826 c0 -3 30 -21 68 -40 37 -20 73 -39 81 -45 11 -7 -17 -42
-130 -161 l-144 -151 -13 38 c-12 38 -12 38 -7 4 3 -18 5 -41 5 -49 0 -19 53
31 210 199 l109 116 -82 44 c-97 52 -97 52 -97 45z"/>
<path d="M1042 3795 c0 -11 4 -31 8 -45 6 -20 8 -21 8 -5 0 11 -4 31 -8 45 -6
20 -8 21 -8 5z"/>
<path d="M1061 3710 c0 -8 6 -37 13 -65 8 -27 15 -43 15 -35 0 8 -6 38 -13 65
-8 28 -15 43 -15 35z"/>
<path d="M1092 3575 c0 -11 4 -31 8 -45 6 -20 8 -21 8 -5 0 11 -4 31 -8 45 -6
20 -8 21 -8 5z"/>
<path d="M1530 3460 c0 -5 -3 -9 -7 -9 -36 6 -73 -46 -73 -103 0 -21 -4 -38
-10 -38 -5 0 -10 -9 -10 -19 0 -10 -7 -22 -16 -25 -20 -8 -9 -26 16 -26 14 0
20 -9 22 -37 l3 -38 138 -3 137 -3 0 75 0 76 -35 0 c-27 0 -35 4 -35 19 0 29
-37 68 -75 81 -27 9 -35 17 -35 36 0 13 -4 24 -10 24 -5 0 -10 -4 -10 -10z"/>
<path d="M1960 3438 c-59 -40 -82 -84 -78 -146 6 -64 29 -99 89 -130 78 -41
169 -9 209 74 25 50 25 77 1 130 -38 85 -149 121 -221 72z m146 -4 c35 -17 67
-60 78 -107 17 -73 -44 -159 -124 -172 -55 -9 -127 26 -153 75 -23 44 -18 120
10 158 42 57 123 77 189 46z"/>
<path d="M1986 3405 c-29 -15 -55 -43 -56 -58 0 -5 12 5 26 22 66 79 187 33
186 -72 -1 -42 -40 -96 -71 -98 -10 0 -12 -2 -4 -6 22 -8 72 36 84 75 15 50
-7 104 -53 132 -39 24 -73 25 -112 5z"/>
<path d="M1925 3290 c3 -35 11 -51 35 -72 16 -16 36 -28 43 -28 6 0 -2 9 -19
19 -39 24 -43 30 -54 83 l-9 43 4 -45z"/>
<path d="M1070 3430 c8 -5 22 -10 30 -10 13 0 13 1 0 10 -8 5 -22 10 -30 10
-13 0 -13 -1 0 -10z"/>
<path d="M1339 2971 c-23 -23 -29 -38 -29 -71 0 -27 -5 -43 -15 -46 -8 -4 -15
-15 -15 -25 0 -10 -7 -19 -15 -19 -8 0 -15 -4 -15 -10 0 -5 7 -11 15 -11 8 -1
21 -2 28 -3 13 -1 19 -67 6 -76 -4 -3 44 -6 107 -7 l114 -3 0 84 c0 98 -22
143 -80 162 -23 8 -36 19 -38 33 -5 29 -28 26 -63 -8z"/>
<path d="M1155 2859 c-11 -16 -1 -19 13 -3 7 8 8 14 3 14 -5 0 -13 -5 -16 -11z"/>
<path d="M1210 2169 c-26 -5 -14 -7 44 -8 44 0 77 1 75 3 -9 8 -86 12 -119 5z"/>
<path d="M1355 2150 c27 -12 43 -12 25 0 -8 5 -22 9 -30 9 -10 0 -8 -3 5 -9z"/>
<path d="M1571 1941 c11 -29 20 -81 21 -119 l2 -67 4 55 c4 64 -13 153 -33
170 -10 8 -8 -4 6 -39z"/>
<path d="M1573 1719 c-7 -18 -11 -35 -8 -37 6 -6 27 48 23 60 -2 5 -9 -6 -15
-23z"/>
<path d="M1680 1715 c0 -8 5 -15 10 -15 6 0 10 7 10 15 0 8 -4 15 -10 15 -5 0
-10 -7 -10 -15z"/>
<path d="M1620 1655 c0 -8 5 -15 10 -15 6 0 10 7 10 15 0 8 -4 15 -10 15 -5 0
-10 -7 -10 -15z"/>
<path d="M1560 1595 c0 -8 5 -15 10 -15 6 0 10 7 10 15 0 8 -4 15 -10 15 -5 0
-10 -7 -10 -15z"/>
<path d="M2554 1435 c-6 -15 14 -50 24 -40 3 2 -1 12 -8 21 -12 13 -11 17 1
25 10 6 11 9 1 9 -7 0 -15 -7 -18 -15z"/>
<path d="M2536 1373 c-4 -9 -2 -21 4 -27 7 -7 10 -2 10 17 0 31 -5 34 -14 10z"/>
<path d="M2825 3723 c-34 -9 -64 -34 -100 -83 -66 -91 -35 -111 39 -25 26 30
58 58 70 61 33 8 77 -17 119 -67 24 -30 39 -40 51 -36 15 6 15 9 2 34 -21 40
-75 90 -118 107 -21 9 -39 15 -40 15 -2 -1 -12 -4 -23 -6z"/>
<path d="M3545 3711 c-47 -21 -115 -93 -115 -121 0 -32 26 -23 60 20 34 42 76
70 107 70 22 -1 48 -23 91 -77 58 -74 88 -42 33 34 -57 79 -113 102 -176 74z"/>
<path d="M2748 3451 c35 -22 52 -26 52 -12 0 5 -10 11 -22 14 -13 2 -32 8 -43
12 -11 4 -5 -2 13 -14z"/>
<path d="M3696 3461 c-3 -4 -20 -11 -37 -15 -18 -3 -30 -9 -26 -12 8 -8 77 16
77 27 0 11 -7 12 -14 0z"/>
<path d="M4848 3444 c-2 -20 -11 -29 -38 -38 -37 -12 -84 -79 -74 -106 4 -12
3 -13 -7 -2 -7 6 -23 12 -36 12 -22 0 -23 -3 -23 -75 l0 -75 124 0 c90 0 126
3 129 13 4 10 6 10 6 0 1 -7 6 -13 11 -13 6 0 10 18 10 40 0 36 3 40 25 40 16
0 25 6 25 15 0 8 -7 15 -15 15 -8 0 -15 9 -15 19 0 10 -8 22 -17 25 -11 5 -13
10 -6 17 23 23 -14 102 -57 124 -38 20 -38 19 -42 -11z"/>
<path d="M2940 3431 c63 -4 126 -3 140 1 14 3 -38 6 -115 5 l-140 -1 115 -5z"/>
<path d="M3240 3430 l-125 -6 110 -1 c61 0 171 3 245 6 l135 8 -120 -1 c-66 0
-176 -3 -245 -6z"/>
<path d="M4630 3426 c0 -9 5 -16 10 -16 6 0 10 4 10 9 0 6 -4 13 -10 16 -5 3
-10 -1 -10 -9z"/>
<path d="M2671 3405 c-21 -49 -29 -122 -20 -177 15 -98 59 -181 59 -113 0 30
-4 30 90 5 179 -47 625 -52 800 -9 47 11 95 23 107 26 17 4 25 0 32 -18 8 -23
9 -23 24 14 33 77 39 150 21 227 -10 38 -20 70 -24 70 -4 0 -10 -17 -13 -37
-4 -21 -14 -62 -22 -90 -15 -50 -18 -53 -48 -53 -45 0 -58 15 -45 51 7 19 17
29 31 30 19 1 18 3 -8 14 -39 18 -814 21 -864 4 -34 -12 -44 -30 -11 -22 15 4
22 -2 30 -22 14 -36 -2 -55 -46 -55 -32 0 -34 3 -49 53 -8 28 -19 70 -23 92
l-9 40 -12 -30z m495 -161 c47 -14 58 -13 132 6 69 18 89 19 147 10 37 -6 83
-17 102 -25 36 -15 106 -82 98 -95 -26 -42 -757 -44 -832 -1 -12 6 -9 14 17
45 68 77 194 99 336 60z"/>
<path d="M3338 3233 c7 -3 16 -2 19 1 4 3 -2 6 -13 5 -11 0 -14 -3 -6 -6z"/>
<path d="M2953 3220 c2 -8 14 -16 28 -17 19 -1 20 -1 4 4 -11 3 -24 10 -28 17
-6 7 -7 6 -4 -4z"/>
<path d="M2998 3223 c12 -2 30 -2 40 0 9 3 -1 5 -23 4 -22 0 -30 -2 -17 -4z"/>
<path d="M3428 3223 c6 -2 18 -2 25 0 6 3 1 5 -13 5 -14 0 -19 -2 -12 -5z"/>
<path d="M3082 3211 c-9 -5 2 -8 30 -8 31 0 37 2 23 8 -27 10 -37 10 -53 0z"/>
<path d="M3208 3193 c5 -29 31 -27 42 3 7 18 4 21 -19 21 -24 0 -27 -4 -23
-24z"/>
<path d="M3277 3214 c-19 -20 38 -34 59 -15 5 5 16 11 24 14 23 7 -31 -1 -59
-9 -17 -5 -22 -4 -17 4 8 13 3 16 -7 6z"/>
<path d="M3480 3210 c8 -5 22 -9 30 -9 10 0 8 3 -5 9 -27 12 -43 12 -25 0z"/>
<path d="M3398 3203 c7 -3 16 -2 19 1 4 3 -2 6 -13 5 -11 0 -14 -3 -6 -6z"/>
<path d="M3388 3183 c12 -2 30 -2 40 0 9 3 -1 5 -23 4 -22 0 -30 -2 -17 -4z"/>
<path d="M3498 3173 c6 -2 18 -2 25 0 6 3 1 5 -13 5 -14 0 -19 -2 -12 -5z"/>
<path d="M2830 3160 c0 -5 5 -10 10 -10 6 0 10 5 10 10 0 6 -4 10 -10 10 -5 0
-10 -4 -10 -10z"/>
<path d="M3010 3152 c0 -5 7 -9 15 -9 8 0 15 4 15 9 0 4 -7 8 -15 8 -8 0 -15
-4 -15 -8z"/>
<path d="M4520 3315 c0 -8 5 -15 11 -15 5 0 8 4 5 9 -4 5 0 12 6 14 8 3 6 6
-4 6 -10 1 -18 -6 -18 -14z"/>
<path d="M4710 3125 c0 -8 7 -15 15 -15 9 0 12 6 9 15 -4 8 -10 15 -15 15 -5
0 -9 -7 -9 -15z"/>
<path d="M2833 3033 c9 -2 23 -2 30 0 6 3 -1 5 -18 5 -16 0 -22 -2 -12 -5z"/>
<path d="M3573 3033 c9 -2 25 -2 35 0 9 3 1 5 -18 5 -19 0 -27 -2 -17 -5z"/>
<path d="M2908 3023 c18 -2 45 -2 60 0 15 2 0 4 -33 4 -33 0 -45 -2 -27 -4z"/>
<path d="M3335 3020 l-110 -6 100 -1 c55 0 129 3 165 7 l65 7 -55 -1 c-30 0
-104 -3 -165 -6z"/>
<path d="M4609 3022 c9 -7 10 -11 2 -15 -7 -4 -8 -5 0 -3 15 2 13 20 -3 24
-10 3 -10 2 1 -6z"/>
<path d="M3048 3013 c28 -2 76 -2 105 0 28 2 5 3 -53 3 -58 0 -81 -1 -52 -3z"/>
<path d="M4998 2978 c-2 -15 -11 -24 -25 -26 -13 -2 -23 -7 -23 -12 0 -5 -7
-7 -15 -4 -8 4 -15 1 -15 -5 0 -7 -9 -22 -20 -34 -18 -19 -20 -33 -18 -107 l3
-85 45 -1 c25 -1 71 1 102 4 l57 5 3 36 c3 30 7 36 25 34 11 -1 24 4 27 12 3
9 0 15 -9 15 -8 0 -15 9 -15 19 0 10 -7 21 -15 25 -10 3 -15 19 -15 46 0 33
-6 48 -29 71 -35 35 -58 37 -63 7z"/>
<path d="M4698 2923 c7 -3 16 -2 19 1 4 3 -2 6 -13 5 -11 0 -14 -3 -6 -6z"/>
<path d="M4499 2912 c9 -7 10 -11 2 -15 -7 -4 -8 -5 0 -3 15 2 13 20 -3 24
-10 3 -10 2 1 -6z"/>
<path d="M4284 2890 c2 -16 20 -14 24 2 3 10 2 10 -6 -1 -7 -9 -11 -10 -15 -2
-4 7 -5 8 -3 1z"/>
<path d="M3960 2815 c-35 -36 -60 -65 -54 -65 5 0 39 29 74 65 35 36 60 65 54
65 -5 0 -39 -29 -74 -65z"/>
<path d="M4680 2716 c0 -9 7 -16 16 -16 9 0 14 5 12 12 -6 18 -28 21 -28 4z"/>
<path d="M4575 2609 c-4 -6 -5 -12 -2 -15 2 -3 7 2 10 11 7 17 1 20 -8 4z"/>
<path d="M5203 2605 c0 -8 4 -12 9 -9 5 3 6 10 3 15 -9 13 -12 11 -12 -6z"/>
<path d="M4931 2588 c-1 -10 5 -18 13 -18 20 0 29 17 15 26 -8 4 -9 3 -5 -4 4
-7 3 -12 -3 -12 -5 0 -12 6 -14 13 -3 7 -6 5 -6 -5z"/>
<path d="M3368 2503 c-103 -4 -114 -10 -102 -59 8 -30 45 -38 169 -32 110 5
131 16 120 67 -6 29 -9 31 -48 29 -23 -1 -85 -4 -139 -5z"/>
<path d="M4130 2435 c0 -8 5 -15 10 -15 6 0 10 7 10 15 0 8 -4 15 -10 15 -5 0
-10 -7 -10 -15z"/>
<path d="M4060 2370 c0 -5 5 -10 10 -10 6 0 10 5 10 10 0 6 -4 10 -10 10 -5 0
-10 -4 -10 -10z"/>
<path d="M4200 2360 c0 -5 5 -10 10 -10 6 0 10 5 10 10 0 6 -4 10 -10 10 -5 0
-10 -4 -10 -10z"/>
<path d="M3993 2305 c0 -8 6 -15 14 -15 7 0 13 7 13 15 0 8 -6 15 -13 15 -8 0
-14 -7 -14 -15z"/>
<path d="M4130 2300 c0 -5 4 -10 9 -10 6 0 13 5 16 10 3 6 -1 10 -9 10 -9 0
-16 -4 -16 -10z"/>
<path d="M4276 2301 c-4 -7 -5 -15 -2 -18 9 -9 19 4 14 18 -4 11 -6 11 -12 0z"/>
<path d="M4063 2235 c0 -8 6 -15 14 -15 7 0 13 7 13 15 0 8 -6 15 -13 15 -8 0
-14 -7 -14 -15z"/>
<path d="M4200 2230 c0 -5 4 -10 9 -10 6 0 13 5 16 10 3 6 -1 10 -9 10 -9 0
-16 -4 -16 -10z"/>
<path d="M4340 2220 c0 -5 5 -10 10 -10 6 0 10 5 10 10 0 6 -4 10 -10 10 -5 0
-10 -4 -10 -10z"/>
<path d="M4136 2165 c-3 -9 0 -15 9 -15 16 0 20 16 6 24 -5 3 -11 -1 -15 -9z"/>
<path d="M4270 2155 c0 -6 6 -12 13 -12 8 0 14 6 14 12 0 6 -6 12 -14 12 -7 0
-13 -6 -13 -12z"/>
<path d="M4410 2150 c0 -5 5 -10 10 -10 6 0 10 5 10 10 0 6 -4 10 -10 10 -5 0
-10 -4 -10 -10z"/>
<path d="M4070 2095 c0 -9 6 -12 15 -9 8 4 12 10 9 15 -8 14 -24 10 -24 -6z"/>
<path d="M4210 2090 c0 -5 5 -10 10 -10 6 0 10 5 10 10 0 6 -4 10 -10 10 -5 0
-10 -4 -10 -10z"/>
<path d="M4340 2090 c0 -5 4 -10 9 -10 6 0 13 5 16 10 3 6 -1 10 -9 10 -9 0
-16 -4 -16 -10z"/>
<path d="M4480 2080 c0 -5 5 -10 10 -10 6 0 10 5 10 10 0 6 -4 10 -10 10 -5 0
-10 -4 -10 -10z"/>
<path d="M4016 2041 c-4 -7 -5 -15 -2 -18 9 -9 19 4 14 18 -4 11 -6 11 -12 0z"/>
<path d="M4143 2025 c0 -8 4 -12 9 -9 4 3 8 9 8 15 0 5 -4 9 -8 9 -5 0 -9 -7
-9 -15z"/>
<path d="M4286 2031 c-4 -7 -5 -15 -2 -18 9 -9 19 4 14 18 -4 11 -6 11 -12 0z"/>
<path d="M4410 2020 c0 -5 4 -10 9 -10 6 0 13 5 16 10 3 6 -1 10 -9 10 -9 0
-16 -4 -16 -10z"/>
<path d="M4080 1960 c0 -5 5 -10 10 -10 6 0 10 5 10 10 0 6 -4 10 -10 10 -5 0
-10 -4 -10 -10z"/>
<path d="M4213 1957 c0 -8 6 -14 12 -14 6 0 12 6 12 14 0 7 -6 13 -12 13 -6 0
-12 -6 -12 -13z"/>
<path d="M4356 1961 c-4 -7 -5 -15 -2 -18 9 -9 19 4 14 18 -4 11 -6 11 -12 0z"/>
<path d="M4807 1926 c-4 -10 -1 -13 9 -9 7 3 14 9 14 14 0 14 -17 10 -23 -5z"/>
<path d="M4010 1901 c0 -5 7 -11 15 -15 9 -3 15 0 15 9 0 8 -7 15 -15 15 -8 0
-15 -4 -15 -9z"/>
<path d="M4150 1890 c0 -5 5 -10 10 -10 6 0 10 5 10 10 0 6 -4 10 -10 10 -5 0
-10 -4 -10 -10z"/>
<path d="M4283 1887 c0 -8 6 -14 12 -14 6 0 12 6 12 14 0 7 -6 13 -12 13 -6 0
-12 -6 -12 -13z"/>
<path d="M3287 1879 c7 -7 15 -10 18 -7 3 3 -2 9 -12 12 -14 6 -15 5 -6 -5z"/>
<path d="M4733 1855 c0 -6 6 -12 14 -12 7 0 13 6 13 12 0 6 -6 12 -13 12 -8 0
-14 -6 -14 -12z"/>
<path d="M4880 1850 c0 -5 7 -10 16 -10 8 0 12 5 9 10 -3 6 -10 10 -16 10 -5
0 -9 -4 -9 -10z"/>
<path d="M3950 1836 c0 -9 5 -16 10 -16 6 0 10 4 10 9 0 6 -4 13 -10 16 -5 3
-10 -1 -10 -9z"/>
<path d="M4080 1825 c0 -8 5 -15 10 -15 6 0 10 7 10 15 0 8 -4 15 -10 15 -5 0
-10 -7 -10 -15z"/>
<path d="M3503 1818 c-6 -7 -13 -26 -17 -43 l-6 -30 17 30 c14 24 18 26 21 12
2 -9 8 -15 13 -12 5 4 5 13 -1 24 -5 10 -6 21 -3 25 3 3 2 6 -4 6 -6 0 -15 -6
-20 -12z"/>
<path d="M4220 1820 c0 -5 5 -10 10 -10 6 0 10 5 10 10 0 6 -4 10 -10 10 -5 0
-10 -4 -10 -10z"/>
<path d="M4660 1799 c0 -5 -167 -8 -372 -8 -289 0 -373 -3 -379 -13 -5 -7 -3
-16 4 -20 7 -4 134 -7 282 -7 367 1 375 1 375 -12 0 -5 -14 -15 -31 -21 -29
-10 -29 -11 -13 -29 24 -27 95 -26 119 1 18 19 17 20 -13 31 -50 17 -38 29 31
30 34 0 70 2 80 4 26 5 15 -18 -16 -33 -23 -11 -25 -15 -14 -32 17 -28 97 -28
122 0 18 19 17 20 -13 26 -17 3 -33 12 -36 20 -4 11 7 14 47 15 29 1 67 2 85
3 17 1 32 -1 32 -4 0 -14 -26 -30 -47 -30 -27 0 -30 -18 -5 -36 20 -16 98 -19
107 -4 3 6 16 10 29 10 38 0 26 26 -12 28 -20 2 -39 5 -44 8 -16 10 -7 23 19
26 17 2 29 10 31 21 3 15 -6 17 -70 18 -40 0 -86 2 -102 4 -16 2 -58 0 -93 -4
-47 -5 -66 -4 -69 4 -5 13 -34 16 -34 4z"/>
<path d="M3531 1750 c0 -8 11 -58 24 -110 13 -52 22 -77 19 -55 -6 48 -42 187
-43 165z"/>
<path d="M4322 1630 c-56 -55 -98 -100 -94 -100 4 0 52 45 107 100 55 55 97
100 94 100 -3 0 -51 -45 -107 -100z"/>
<path d="M4090 1696 c0 -9 5 -16 10 -16 6 0 10 4 10 9 0 6 -4 13 -10 16 -5 3
-10 -1 -10 -9z"/>
<path d="M4523 1647 c0 -8 6 -14 14 -14 7 0 13 6 13 14 0 7 -6 13 -13 13 -8 0
-14 -6 -14 -13z"/>
<path d="M4670 1644 c0 -6 6 -14 14 -17 10 -4 14 0 13 12 -1 20 -27 25 -27 5z"/>
<path d="M4813 1635 c0 -8 6 -15 14 -15 7 0 13 7 13 15 0 8 -6 15 -13 15 -8 0
-14 -7 -14 -15z"/>
<path d="M4960 1633 c0 -7 6 -13 13 -13 8 0 14 6 14 13 0 8 -6 14 -14 14 -7 0
-13 -6 -13 -14z"/>
<path d="M4453 1575 c0 -6 6 -12 14 -12 7 0 13 6 13 12 0 6 -6 12 -13 12 -8 0
-14 -6 -14 -12z"/>
<path d="M4600 1574 c0 -6 6 -14 13 -17 7 -3 13 3 13 12 0 10 -6 18 -13 18 -7
0 -13 -6 -13 -13z"/>
<path d="M4743 1567 c0 -8 6 -14 14 -14 7 0 13 6 13 14 0 7 -6 13 -13 13 -8 0
-14 -6 -14 -13z"/>
<path d="M3582 1525 c0 -11 4 -31 8 -45 6 -20 8 -21 8 -5 0 11 -4 31 -8 45 -6
20 -8 21 -8 5z"/>
<path d="M4527 1499 c-3 -12 1 -17 13 -16 10 1 18 8 17 17 -1 22 -24 21 -30
-1z"/>
<path d="M4673 1495 c0 -6 8 -12 18 -12 11 -1 16 3 13 11 -6 16 -31 17 -31 1z"/>
<path d="M3602 1430 c0 -8 4 -26 8 -40 6 -20 8 -21 8 -5 0 11 -3 29 -8 40 -5
12 -8 14 -8 5z"/>
<path d="M3350 1370 c8 -5 22 -9 30 -9 10 0 8 3 -5 9 -27 12 -43 12 -25 0z"/>
<path d="M3410 1350 c8 -5 22 -9 30 -9 10 0 8 3 -5 9 -27 12 -43 12 -25 0z"/>
<path d="M3535 1310 c28 -10 57 -18 65 -18 8 0 -7 8 -35 18 -27 10 -57 18 -65
18 -8 0 8 -8 35 -18z"/>
<path d="M1325 1986 c76 -34 117 -121 95 -201 -12 -44 -75 -115 -102 -115 -6
0 -9 -3 -6 -6 13 -12 69 28 95 67 33 51 37 125 9 182 -19 39 -78 87 -106 87
-8 -1 -1 -7 15 -14z"/>
<path d="M1215 1918 c-100 -55 -47 -208 63 -183 34 7 56 28 71 68 28 73 -65
153 -134 115z m84 -13 c33 -16 41 -33 41 -80 0 -44 -27 -74 -72 -82 -32 -5
-41 -1 -68 25 -34 35 -39 74 -14 110 28 41 69 50 113 27z"/>
<path d="M2242 1259 c15 -6 33 -25 43 -45 20 -42 28 -44 13 -4 -11 33 -43 60
-68 59 -8 0 -3 -5 12 -10z"/>
<path d="M2291 1161 c-1 -8 -8 -23 -18 -33 -9 -10 -11 -18 -5 -18 15 0 35 38
28 53 -3 8 -5 7 -5 -2z"/>
<path d="M3275 1060 c3 -5 8 -10 11 -10 2 0 4 5 4 10 0 6 -5 10 -11 10 -5 0
-7 -4 -4 -10z"/>
<path d="M2830 990 c0 -5 5 -10 10 -10 6 0 10 5 10 10 0 6 -4 10 -10 10 -5 0
-10 -4 -10 -10z"/>
<path d="M3155 1016 c-11 -8 -17 -18 -12 -22 4 -4 7 -2 7 4 0 29 20 8 28 -30
8 -35 10 -38 10 -13 0 17 -3 40 -6 53 -6 21 -9 22 -27 8z"/>
<path d="M3340 990 c0 -5 5 -10 11 -10 5 0 7 5 4 10 -3 6 -8 10 -11 10 -2 0
-4 -4 -4 -10z"/>
<path d="M3334 962 c4 -6 8 -64 11 -128 2 -64 6 -119 9 -122 3 -3 6 11 6 31 0
44 18 87 37 87 7 0 13 -4 13 -10 0 -5 9 -1 20 10 16 16 18 25 10 45 -13 34
-36 32 -35 -2 0 -18 -6 -29 -18 -31 -24 -5 -33 25 -13 47 17 19 14 71 -4 71
-5 0 -16 3 -26 7 -11 4 -15 3 -10 -5z"/>
<path d="M3400 930 c0 -5 5 -10 11 -10 5 0 7 5 4 10 -3 6 -8 10 -11 10 -2 0
-4 -4 -4 -10z"/>
<path d="M3450 886 c0 -2 8 -10 18 -17 15 -13 16 -12 3 4 -13 16 -21 21 -21
13z"/>
<path d="M3530 800 c0 -5 5 -10 10 -10 6 0 10 5 10 10 0 6 -4 10 -10 10 -5 0
-10 -4 -10 -10z"/>
<path d="M3424 778 c2 -16 -2 -28 -8 -28 -8 0 -8 -2 0 -8 6 -4 14 -14 17 -22
9 -25 6 33 -4 60 -9 25 -9 25 -5 -2z"/>
<path d="M3085 740 c-3 -5 -1 -10 4 -10 6 0 11 5 11 10 0 6 -2 10 -4 10 -3 0
-8 -4 -11 -10z"/>
<path d="M3210 610 c0 -5 5 -10 10 -10 6 0 10 5 10 10 0 6 -4 10 -10 10 -5 0
-10 -4 -10 -10z"/>
<path d="M5684 2649 c-3 -6 -2 -15 3 -20 5 -5 9 -1 9 11 0 23 -2 24 -12 9z"/>
<path d="M935 1708 c4 -13 11 -27 16 -33 5 -5 4 5 -2 23 -12 36 -24 44 -14 10z"/>
<path d="M1120 1515 c14 -8 32 -14 40 -14 8 0 0 6 -19 14 -42 19 -54 19 -21 0z"/>
<path d="M5180 1550 c0 -5 7 -10 15 -10 8 0 15 5 15 10 0 6 -7 10 -15 10 -8 0
-15 -4 -15 -10z"/>
<path d="M3720 610 c0 -5 5 -10 10 -10 6 0 10 5 10 10 0 6 -4 10 -10 10 -5 0
-10 -4 -10 -10z"/>
<path d="M2700 610 c0 -5 5 -10 10 -10 6 0 10 5 10 10 0 6 -4 10 -10 10 -5 0
-10 -4 -10 -10z"/>
<path d="M2750 561 c0 -5 7 -11 15 -15 8 -3 15 -1 15 3 0 5 -7 11 -15 15 -8 3
-15 1 -15 -3z"/>
<path d="M3340 480 c0 -5 5 -10 11 -10 5 0 7 5 4 10 -3 6 -8 10 -11 10 -2 0
-4 -4 -4 -10z"/>
<path d="M3405 420 c3 -5 8 -10 11 -10 2 0 4 5 4 10 0 6 -5 10 -11 10 -5 0 -7
-4 -4 -10z"/>
</g>
</svg>
