<?xml version="1.0" standalone="no"?>
<!DOCTYPE svg PUBLIC "-//W3C//DTD SVG 20010904//EN"
 "http://www.w3.org/TR/2001/REC-SVG-20010904/DTD/svg10.dtd">
<svg version="1.0" xmlns="http://www.w3.org/2000/svg"
 width="640.000000pt" height="640.000000pt" viewBox="0 0 640.000000 640.000000"
 preserveAspectRatio="xMidYMid meet">

<g transform="translate(0.000000,640.000000) scale(0.100000,-0.100000)"
fill="#000000" stroke="none">
<path d="M75 6386 c22 -8 103 -33 180 -56 77 -23 163 -49 192 -58 29 -8 49
-20 46 -25 -3 -5 3 -7 13 -3 11 3 37 -1 59 -9 23 -8 32 -14 20 -15 -16 0 -15
-3 9 -15 36 -19 56 -19 30 0 -10 8 -14 15 -7 15 19 0 67 -23 81 -40 8 -8 11
-9 7 -2 -8 16 -3 15 67 -4 32 -9 55 -20 52 -25 -3 -5 1 -6 9 -3 18 7 127 -24
127 -36 0 -5 6 -7 13 -5 6 3 71 -13 142 -34 181 -55 128 -50 -115 9 -303 75
-325 80 -336 80 -12 0 -5 -112 8 -125 8 -7 8 -6 3 4 -5 9 -4 12 3 7 7 -4 12
-17 12 -30 0 -12 6 -28 13 -35 10 -11 8 -11 -9 0 -12 7 -29 28 -38 47 -9 18
-22 32 -29 29 -6 -2 -22 7 -33 21 -16 18 -29 23 -48 20 -14 -3 -26 -2 -26 2 0
11 -48 30 -75 30 -14 0 -25 4 -25 8 0 5 -6 9 -12 9 -7 0 -31 5 -53 11 -49 14
-61 13 -57 -1 2 -7 4 -19 5 -29 1 -9 5 -14 9 -12 4 3 8 2 9 -3 3 -33 11 -58
22 -65 7 -4 -5 -8 -28 -8 -22 0 -35 4 -30 8 6 4 11 16 13 27 2 15 0 16 -6 7
-7 -11 -17 -7 -46 18 -39 35 -46 56 -18 63 16 4 16 5 0 6 -20 1 -25 30 -5 32
6 1 -1 5 -18 8 -17 4 -36 3 -44 -3 -10 -7 -17 -5 -27 9 -12 17 -19 14 -15 -7
1 -10 -71 1 -84 13 -16 16 -35 10 -35 -11 0 -11 4 -20 9 -20 5 0 12 -7 15 -16
5 -14 4 -15 -9 -4 -13 11 -15 8 -15 -21 1 -32 19 -69 34 -69 4 0 4 17 0 38 -4
20 -4 35 -1 32 17 -16 57 -83 52 -88 -3 -3 -21 -1 -39 5 -19 6 -37 8 -40 5 -3
-3 -6 -114 -6 -246 l0 -241 27 -12 c31 -15 53 -17 53 -5 0 5 19 8 43 8 52 -1
82 -25 72 -57 -4 -12 -10 -17 -14 -12 -3 5 -27 9 -53 8 -37 0 -51 -5 -70 -26
l-25 -27 -16 27 c-16 25 -16 23 -17 -73 0 -95 1 -99 27 -120 27 -20 32 -22 62
-25 11 -1 10 -6 -4 -21 -14 -15 -15 -19 -4 -15 10 4 15 -2 16 -17 0 -13 -1
-18 -3 -12 -3 6 -15 9 -28 7 -13 -3 -27 0 -30 6 -4 6 -14 11 -22 11 -20 0 -20
-198 1 -226 14 -19 14 -18 9 2 -6 21 -5 21 44 9 27 -7 65 -15 83 -16 19 -2 37
-8 41 -14 5 -6 8 -2 8 8 0 10 -7 20 -16 24 -12 4 -13 7 -3 14 21 13 6 19 -54
21 -44 2 -57 7 -57 19 0 13 8 14 50 9 69 -9 74 -4 62 61 -6 30 -13 75 -16 102
-5 44 -4 47 17 47 21 0 23 -8 50 -202 15 -112 35 -246 43 -298 8 -52 12 -108
10 -123 -3 -15 -2 -26 3 -23 4 3 14 -36 21 -87 14 -100 15 -117 8 -222 -4 -65
-6 -70 -29 -73 -13 -2 -30 -11 -37 -20 -11 -14 -12 -14 -12 5 0 14 10 23 33
31 26 8 10 10 -90 11 l-123 1 0 -25 c0 -18 5 -25 20 -25 17 0 20 -6 19 -37 -1
-21 -3 -30 -6 -20 -2 9 -9 17 -14 17 -6 0 -7 -9 -4 -20 3 -11 2 -20 -3 -20 -5
0 -15 29 -22 65 -10 53 -16 65 -31 65 -14 0 -19 -7 -19 -30 0 -19 5 -30 14
-30 13 0 26 -20 26 -42 0 -6 -9 -8 -19 -5 -19 5 -20 -2 -20 -214 l1 -219 81
-1 c93 -1 72 -16 -25 -18 l-58 -1 0 -178 0 -179 198 -8 c265 -10 344 -17 350
-32 2 -7 -4 -13 -13 -13 -10 0 -13 -5 -9 -12 5 -8 2 -9 -9 -5 -10 3 -17 2 -17
-3 0 -6 14 -10 31 -10 21 0 28 4 23 13 -5 8 -4 9 4 2 6 -5 27 -48 47 -94 l36
-84 -98 7 c-54 3 -198 9 -320 13 l-223 6 1 -1509 c0 -830 3 -1503 6 -1496 2 6
9 12 14 12 6 0 7 -4 4 -10 -9 -14 8 -13 23 2 7 7 12 8 12 4 0 -12 -42 -80 -52
-84 -4 -2 -8 -19 -8 -38 l0 -34 3200 0 3200 0 0 1676 c0 1447 -2 1675 -14
1665 -12 -10 -14 -9 -11 6 1 10 9 17 16 15 8 -2 10 0 6 5 -5 4 -12 8 -15 8
-11 1 -72 39 -71 45 0 3 3 13 7 22 7 16 9 16 37 -3 17 -12 22 -19 13 -15 -25
8 -22 1 7 -18 l25 -16 0 290 c0 251 -2 290 -15 290 -18 0 -19 30 -5 80 10 34
26 280 19 280 -2 0 -74 7 -159 15 -85 8 -178 15 -206 15 -72 0 -93 -23 -133
-155 -18 -57 -39 -108 -46 -113 -8 -4 -32 -6 -54 -4 l-39 4 26 61 c13 34 33
81 43 104 11 24 19 45 19 48 0 3 18 44 40 91 36 77 42 86 63 80 64 -17 315
-46 405 -46 l42 0 -1 163 c0 89 -3 156 -6 148 -3 -7 -14 -22 -24 -32 -12 -12
-18 -28 -15 -44 3 -13 2 -24 -2 -24 -21 3 -32 -3 -32 -16 0 -8 -5 -15 -11 -15
-6 0 -8 -10 -5 -22 3 -13 3 -18 0 -12 -3 8 -16 2 -36 -16 -18 -17 -37 -26 -46
-22 -10 3 -13 1 -8 -6 4 -7 1 -12 -8 -12 -8 0 -21 -3 -30 -6 -35 -13 -13 13
24 30 22 10 47 30 54 44 8 15 44 67 80 116 l66 90 0 802 -1 802 -197 1 -197 1
-29 -75 c-16 -42 -30 -74 -32 -72 -2 2 0 28 6 57 19 101 61 90 -365 90 -227
-1 -377 -5 -380 -10 -4 -6 -11 -10 -16 -10 -6 0 -7 4 -4 10 3 6 -1 7 -10 3
-13 -4 -14 -8 -4 -14 10 -6 10 -11 -1 -24 -10 -12 -24 -15 -59 -11 l-46 5 38
-10 c36 -11 51 -29 23 -29 -8 0 -23 -13 -32 -30 -10 -16 -24 -32 -32 -35 -11
-4 -12 9 -6 75 l7 80 -82 0 c-52 0 -81 -4 -81 -11 0 -6 -7 -25 -15 -43 -13
-28 -20 -32 -45 -28 -17 2 -30 8 -30 13 0 6 -10 14 -22 19 -25 10 -26 9 67 14
19 1 31 7 33 18 3 16 -66 17 -1185 18 -767 0 -1183 -4 -1173 -10 13 -8 13 -10
-2 -10 -9 0 -20 5 -23 10 -4 6 -162 10 -442 10 -389 0 -434 -2 -423 -15 11
-13 10 -14 -4 -9 -9 3 -16 10 -16 15 0 5 -29 9 -65 9 l-65 0 5 -45 c3 -25 7
-65 10 -90 3 -26 0 -45 -5 -45 -6 0 -10 32 -10 72 0 63 -2 69 -13 53 -13 -17
-14 -17 -21 6 -6 22 -7 22 -17 7 -7 -12 -7 -30 0 -55 13 -47 14 -63 2 -63 -5
0 -12 36 -16 80 l-7 80 -273 0 c-251 0 -274 -2 -278 -18 -4 -15 -5 -15 -6 1
-1 17 -13 18 -156 16 -85 -1 -153 -5 -151 -8 2 -3 0 -15 -5 -26 -7 -17 -8 -16
-8 8 -1 24 -4 27 -31 25 -20 -1 -29 -7 -26 -15 3 -7 0 -15 -6 -19 -6 -4 -8 -3
-5 2 3 6 2 16 -4 24 -6 11 -9 8 -9 -12 0 -16 -4 -28 -10 -28 -10 0 -14 13 -11
40 1 11 -1 10 -9 -3 -6 -9 -16 -15 -22 -11 -7 4 -6 9 1 14 7 3 -8 6 -32 6 -31
-1 -43 -5 -40 -13 4 -10 -7 -9 -43 2 -30 9 -89 15 -154 14 -101 0 -104 0 -65
-13z m345 -25 c1 9 4 8 11 -4 7 -12 17 -15 35 -11 16 4 24 2 25 -7 1 -8 5 -3
9 11 l8 25 1 -27 c1 -27 -8 -35 -22 -22 -4 4 -19 8 -34 9 -16 1 -46 10 -68 20
-35 15 -38 18 -20 25 15 6 25 3 38 -12 11 -13 17 -16 17 -7z m1204 -11 c2 0 2
-9 -1 -21 -4 -15 -8 -17 -14 -8 -6 10 -10 9 -15 -5 -7 -18 -8 -18 -15 2 -5 12
-16 21 -26 21 -17 -1 -17 -2 0 -6 11 -3 17 -14 17 -36 0 -18 5 -39 10 -47 8
-12 10 -10 10 8 0 32 20 17 21 -16 l1 -27 8 25 c6 20 8 21 9 6 1 -26 18 -9 24
24 2 14 5 0 5 -30 2 -77 -4 -84 -59 -63 -62 24 -70 31 -69 72 0 20 -2 60 -6
89 l-7 53 52 -21 c28 -11 53 -20 55 -20z m836 30 c-8 -5 -19 -10 -25 -10 -5 0
-3 5 5 10 8 5 20 10 25 10 6 0 3 -5 -5 -10z m1925 -14 c28 -8 43 -15 35 -15
-8 0 -37 6 -65 13 -27 8 -43 15 -35 15 8 0 38 -6 65 -13z m872 -23 c-3 -10 -5
-4 -5 12 0 17 2 24 5 18 2 -7 2 -21 0 -30z m20 5 c-3 -7 -5 -2 -5 12 0 14 2
19 5 13 2 -7 2 -19 0 -25z m-4440 0 c-3 -8 -6 -5 -6 6 -1 11 2 17 5 13 3 -3 4
-12 1 -19z m1742 18 c-15 -13 -49 -25 -49 -17 0 5 8 12 18 14 24 6 36 8 31 3z
m2748 -48 c-2 -13 -4 -5 -4 17 -1 22 1 32 4 23 2 -10 2 -28 0 -40z m-4732 -14
c15 -8 27 -8 33 -2 7 7 14 3 21 -11 7 -13 17 -18 28 -14 11 4 14 3 9 -6 -8
-12 -25 -9 -76 12 -14 6 -28 10 -32 9 -5 -1 -8 3 -8 9 0 5 -4 7 -10 4 -5 -3
-10 2 -10 13 0 26 14 38 18 15 1 -10 14 -23 27 -29z m289 12 c-3 -15 -8 -25
-11 -23 -2 3 -1 17 3 31 3 15 8 25 11 23 2 -3 1 -17 -3 -31z m1621 24 c3 -6
-1 -7 -9 -4 -18 7 -21 14 -7 14 6 0 13 -4 16 -10z m-726 -9 c8 -5 9 -11 3 -15
-13 -8 -42 3 -42 15 0 11 21 11 39 0z m-608 -11 c25 -14 25 -64 -1 -92 -10
-12 -17 -25 -14 -30 3 -4 -5 -6 -18 -5 -26 4 -37 35 -17 48 7 4 13 26 13 48 1
43 6 47 37 31z m3009 -11 c0 -10 -7 -11 -37 -3 -34 9 -28 21 7 16 17 -2 30 -8
30 -13z m-3343 -36 c-3 -10 -5 -2 -5 17 0 19 2 27 5 18 2 -10 2 -26 0 -35z
m270 10 c-3 -10 -5 -4 -5 12 0 17 2 24 5 18 2 -7 2 -21 0 -30z m1580 21 c-3
-3 -12 -4 -19 -1 -8 3 -5 6 6 6 11 1 17 -2 13 -5z m3633 2 c0 -3 -4 -8 -10
-11 -5 -3 -10 -1 -10 4 0 6 5 11 10 11 6 0 10 -2 10 -4z m-4540 -38 c19 -10
26 -16 15 -13 -19 5 -20 1 -18 -58 2 -34 5 -70 7 -79 5 -22 4 -22 -40 -3 -36
15 -36 18 -6 65 2 2 7 -2 13 -10 6 -10 7 -4 3 20 -8 41 -14 51 -15 24 0 -18
-1 -18 -9 1 -7 15 -9 10 -9 -24 -1 -59 -7 -49 -15 27 -5 42 -4 62 4 62 6 0 10
-7 8 -16 -2 -10 3 -18 10 -20 7 -1 8 0 2 3 -5 2 -7 10 -4 15 4 6 -2 18 -12 26
-18 13 -18 14 6 7 14 -4 41 -16 60 -27z m2510 12 c0 -5 -2 -10 -4 -10 -3 0 -8
5 -11 10 -3 6 -1 10 4 10 6 0 11 -4 11 -10z m500 0 c13 -9 13 -10 0 -10 -8 0
-22 5 -30 10 -13 9 -13 10 0 10 8 0 22 -5 30 -10z m-397 -10 c10 0 15 -5 12
-10 -7 -12 -70 -3 -95 12 -10 6 -2 8 25 4 22 -3 48 -6 58 -6z m867 -10 c2 19
3 21 7 7 3 -10 -1 -32 -8 -49 -7 -16 -12 -44 -11 -61 1 -18 -3 -39 -8 -47 -12
-18 -13 53 -3 126 6 42 8 45 14 24 l7 -25 2 25z m1038 -68 c-6 -45 -14 -82
-18 -82 -7 0 6 134 15 159 13 34 14 -2 3 -77z m-5404 63 c3 -8 1 -15 -4 -15
-6 0 -10 7 -10 15 0 8 2 15 4 15 2 0 6 -7 10 -15z m3996 5 c0 -5 -5 -10 -11
-10 -5 0 -7 5 -4 10 3 6 8 10 11 10 2 0 4 -4 4 -10z m-2190 -10 c0 -5 -7 -10
-16 -10 -8 0 -12 5 -9 10 3 6 10 10 16 10 5 0 9 -4 9 -10z m1384 0 c17 -6 26
-6 26 0 0 12 57 13 64 2 3 -5 -9 -6 -26 -4 -23 4 -29 2 -23 -8 6 -10 1 -11
-21 -5 -16 4 -45 11 -64 15 -30 7 -31 8 -8 9 15 0 38 -3 52 -9z m231 0 c3 -5
1 -10 -4 -10 -6 0 -11 5 -11 10 0 6 2 10 4 10 3 0 8 -4 11 -10z m1485 -6 c0
-2 -7 -4 -15 -4 -8 0 -15 4 -15 10 0 5 7 7 15 4 8 -4 15 -8 15 -10z m-3145
-12 c-3 -3 -11 0 -18 7 -9 10 -8 11 6 5 10 -3 15 -9 12 -12z m945 8 c-8 -5
-24 -9 -35 -9 -16 1 -16 2 5 9 35 11 48 11 30 0z m200 -5 c0 -8 -6 -15 -14
-15 -8 0 -16 7 -20 15 -4 10 1 15 14 15 11 0 20 -7 20 -15z m570 5 c0 -5 -5
-10 -11 -10 -5 0 -7 5 -4 10 3 6 8 10 11 10 2 0 4 -4 4 -10z m-2553 -32 c-3
-7 -5 -2 -5 12 0 14 2 19 5 13 2 -7 2 -19 0 -25z m4373 17 c0 -8 -4 -15 -10
-15 -5 0 -7 7 -4 15 4 8 8 15 10 15 2 0 4 -7 4 -15z m67 -22 c-3 -10 -5 -4 -5
12 0 17 2 24 5 18 2 -7 2 -21 0 -30z m-4254 6 l22 -21 -27 13 c-16 7 -28 16
-28 21 0 13 9 10 33 -13z m717 11 c-14 -4 -34 -8 -45 -8 -16 0 -15 2 5 8 14 4
34 8 45 8 16 0 15 -2 -5 -8z m800 0 c0 -5 -10 -10 -22 -9 -22 0 -22 1 -3 9 11
5 21 9 23 9 1 1 2 -3 2 -9z m595 0 c25 -11 -1 -11 -35 0 -20 6 -21 8 -5 8 11
0 29 -3 40 -8z m68 3 c-7 -2 -21 -2 -30 0 -10 3 -4 5 12 5 17 0 24 -2 18 -5z
m527 -3 c0 -5 -4 -10 -10 -10 -5 0 -10 5 -10 10 0 6 5 10 10 10 6 0 10 -4 10
-10z m-3790 -20 c13 -11 20 -20 16 -20 -4 0 -19 9 -33 20 -14 11 -21 20 -16
20 6 0 20 -9 33 -20z m927 -42 c-2 -13 -4 -3 -4 22 0 25 2 35 4 23 2 -13 2
-33 0 -45z m1740 56 c-3 -3 -12 -4 -19 -1 -8 3 -5 6 6 6 11 1 17 -2 13 -5z
m780 0 c-3 -3 -12 -4 -19 -1 -8 3 -5 6 6 6 11 1 17 -2 13 -5z m-2437 -30 c0
-2 -9 0 -20 6 -11 6 -20 13 -20 16 0 2 9 0 20 -6 11 -6 20 -13 20 -16z m1885
16 c-3 -5 -11 -10 -16 -10 -6 0 -7 5 -4 10 3 6 11 10 16 10 6 0 7 -4 4 -10z
m362 4 c-3 -3 -12 -4 -19 -1 -8 3 -5 6 6 6 11 1 17 -2 13 -5z m607 -1 c-5 -5
-12 -12 -16 -18 -4 -6 -8 -2 -8 8 0 9 7 17 17 17 9 0 12 -3 7 -7z m506 -3 c0
-5 -4 -10 -10 -10 -5 0 -10 5 -10 10 0 6 5 10 10 10 6 0 10 -4 10 -10z m581
-8 c-7 -2 -18 1 -23 6 -8 8 -4 9 13 5 13 -4 18 -8 10 -11z m-4395 -5 c16 -7
30 -17 31 -22 0 -6 4 -50 8 -98 l7 -88 -33 14 c-29 12 -34 18 -34 48 0 19 -3
36 -6 39 -10 9 -20 120 -10 120 5 0 22 -6 37 -13z m2241 -9 c-3 -8 -6 -5 -6 6
-1 11 2 17 5 13 3 -3 4 -12 1 -19z m978 12 c3 -5 1 -10 -4 -10 -6 0 -11 5 -11
10 0 6 2 10 4 10 3 0 8 -4 11 -10z m176 0 c5 0 8 -19 8 -42 -1 -24 -3 -35 -6
-25 -6 22 -63 24 -63 2 0 -8 -4 -15 -10 -15 -17 0 -11 -28 8 -39 15 -9 15 -10
0 -11 -9 0 -19 -8 -21 -17 -3 -10 -5 4 -6 30 -1 65 36 132 67 121 8 -2 18 -4
23 -4z m1091 -48 c-3 -16 -7 -20 -12 -11 -6 8 -10 5 -13 -12 -3 -19 -5 -17 -6
9 0 18 4 43 11 55 11 21 11 21 18 2 4 -10 4 -29 2 -43z m-4944 20 c2 -7 -2
-10 -12 -6 -9 3 -16 11 -16 16 0 13 23 5 28 -10z m106 -15 c3 -16 1 -25 -5
-22 -5 4 -9 18 -9 32 0 32 7 27 14 -10z m2530 24 c11 -4 15 -10 10 -13 -16
-10 -115 -30 -120 -25 -3 2 19 11 48 18 47 11 50 14 28 20 -20 5 -21 7 -5 7
11 0 29 -3 39 -7z m1646 -10 c0 -10 -7 -21 -15 -25 -11 -4 -15 1 -15 19 0 16
6 25 15 25 8 0 15 -9 15 -19z m-3301 0 c9 -6 10 -11 2 -15 -6 -4 -11 -1 -12 6
-1 7 -5 2 -9 -12 l-8 -25 -1 28 c-1 28 5 32 28 18z m780 -29 l-1 -27 -8 30
c-4 17 -8 25 -9 18 -1 -7 -8 -10 -18 -6 -15 6 -14 7 3 13 26 10 34 3 33 -28z
m1301 28 c20 -6 21 -8 5 -8 -11 0 -29 3 -40 8 -25 11 1 11 35 0z m-2453 -30
c38 -18 38 -19 41 -84 2 -44 -1 -66 -8 -66 -6 0 -4 -7 5 -16 9 -9 14 -19 11
-21 -7 -7 -114 26 -121 37 -3 5 -9 48 -13 95 l-8 86 28 -6 c15 -4 44 -15 65
-25z m1010 8 c-3 -8 -6 -5 -6 6 -1 11 2 17 5 13 3 -3 4 -12 1 -19z m2063 12
c0 -5 -5 -10 -11 -10 -5 0 -7 5 -4 10 3 6 8 10 11 10 2 0 4 -4 4 -10z m-4530
-31 c0 -11 -4 -17 -10 -14 -5 3 -10 15 -10 26 0 11 5 17 10 14 6 -3 10 -15 10
-26z m3973 24 c-7 -2 -19 -2 -25 0 -7 3 -2 5 12 5 14 0 19 -2 13 -5z m-313
-18 c0 -8 -2 -15 -4 -15 -2 0 -6 7 -10 15 -3 8 -1 15 4 15 6 0 10 -7 10 -15z
m-75 -5 c-3 -5 2 -10 11 -10 10 0 15 -2 12 -5 -3 -4 -18 -3 -34 1 -25 6 -26 8
-9 15 27 10 27 10 20 -1z m516 -8 c-7 -2 -18 1 -23 6 -8 8 -4 9 13 5 13 -4 18
-8 10 -11z m1589 -14 c0 -5 -7 -3 -15 6 -8 8 -15 18 -15 22 0 3 7 1 15 -6 8
-7 15 -17 15 -22z m-5418 -5 c5 -92 11 -108 35 -99 11 5 14 1 10 -13 -3 -14 2
-20 19 -24 21 -4 24 -1 18 17 -10 35 -10 41 5 38 9 -2 11 3 7 13 -3 9 -2 13 4
10 13 -8 13 8 -1 22 -8 8 -8 13 1 18 7 4 14 -1 17 -14 3 -12 9 -21 14 -21 5 0
9 -10 9 -22 -1 -21 -2 -21 -13 -6 -12 15 -14 15 -24 -1 -7 -10 -8 -24 -3 -31
5 -8 6 -19 2 -25 -3 -5 1 -4 10 3 11 9 23 10 42 2 14 -5 27 -7 27 -5 1 3 2 10
3 17 1 15 23 22 31 9 3 -6 2 -11 -4 -11 -6 0 -8 -7 -4 -16 5 -14 1 -16 -23
-12 -16 3 -36 8 -45 12 -14 6 -17 -4 -22 -70 -6 -86 1 -137 45 -303 35 -136
56 -191 72 -191 6 0 5 -4 -3 -9 -9 -6 -11 -15 -6 -27 5 -11 8 -22 7 -25 0 -3
6 -6 15 -6 12 0 14 8 9 36 -3 20 -10 37 -16 39 -5 2 -3 10 5 19 12 12 19 12
30 3 10 -9 19 -9 36 0 12 7 19 7 15 2 -4 -6 9 -8 36 -5 24 3 44 6 45 7 1 1 -5
50 -13 110 -15 102 -14 108 3 122 17 12 16 13 -9 14 -22 0 -26 -4 -22 -17 4
-12 -4 -8 -20 10 -30 32 -33 59 -10 81 32 32 94 9 109 -41 4 -15 -1 -28 -17
-45 -21 -21 -23 -29 -16 -91 10 -108 19 -147 31 -148 7 0 39 -2 72 -3 33 -1
75 -6 93 -10 22 -5 32 -4 32 4 0 6 -7 75 -15 153 -9 78 -21 205 -28 282 -9
101 -16 139 -25 137 -7 -1 -33 3 -60 9 -26 6 -58 13 -72 15 -14 3 -52 11 -85
18 -46 11 -53 14 -30 16 17 1 35 1 40 0 6 -1 25 -2 42 -3 18 0 28 -4 22 -8 -6
-3 15 -10 47 -14 33 -4 66 -11 74 -15 17 -9 54 12 42 25 -4 5 -1 5 6 1 10 -6
10 -11 1 -22 -7 -9 -8 -14 -1 -14 6 0 14 5 17 10 3 6 14 10 23 10 13 0 14 -2
4 -9 -19 -12 20 -20 80 -16 27 1 46 -2 45 -8 -1 -5 4 -12 11 -14 6 -3 12 1 12
9 0 10 3 9 10 -2 7 -11 10 -11 10 -2 0 7 5 10 10 7 6 -3 10 -13 10 -21 0 -11
-6 -13 -21 -9 -14 5 -25 2 -30 -6 -6 -10 -9 -11 -9 -1 0 6 -12 12 -27 12 -21
0 -24 -3 -13 -10 21 -13 10 -19 -22 -13 -19 4 -28 12 -28 24 0 16 -8 19 -41
19 l-41 0 7 -92 c4 -51 13 -138 20 -193 13 -92 22 -179 30 -280 1 -22 10 -112
19 -200 9 -88 17 -172 18 -187 2 -27 4 -28 58 -27 30 0 49 3 43 6 -7 2 -13 8
-13 13 0 10 20 8 38 -3 7 -5 12 -3 12 3 0 7 7 7 23 -2 21 -12 20 -12 -18 -19
-22 -4 -110 -10 -195 -14 -147 -7 -156 -6 -167 13 -10 18 -20 78 -54 327 -7
50 -14 85 -16 79 -2 -7 -14 -10 -26 -7 -16 3 -18 2 -8 -5 9 -7 10 -12 2 -16
-13 -8 -33 2 -27 13 3 4 -9 7 -27 6 -18 -2 -38 2 -45 8 -14 11 -11 -14 8 -76
7 -21 6 -29 -6 -34 -8 -3 -18 -3 -21 1 -4 3 -1 6 5 6 7 0 12 5 12 10 0 6 -9
10 -20 10 -13 0 -18 -5 -14 -15 7 -18 1 -18 -48 -5 -30 9 -36 14 -33 32 3 12
10 25 17 29 17 11 5 21 -29 23 -32 1 -63 24 -63 45 0 12 3 11 13 -3 10 -13 18
-15 37 -7 23 9 23 10 4 10 -36 1 -51 32 -75 158 -18 91 -26 115 -31 96 -7 -26
2 -197 10 -189 4 5 32 -19 32 -28 0 -11 -38 -11 -78 0 -37 11 -43 10 -38 -2 3
-8 1 -14 -4 -14 -6 0 -10 5 -10 10 0 6 -15 10 -33 8 -18 -1 -39 2 -47 7 -18
11 -61 7 -75 -6 -6 -7 -5 -13 4 -18 9 -6 2 -8 -20 -6 -19 2 -40 4 -46 4 -7 1
-13 6 -13 12 0 5 5 7 11 4 14 -9 59 3 59 16 0 6 -7 9 -15 6 -8 -4 -17 -2 -20
3 -4 6 3 11 14 11 12 1 27 2 34 3 6 1 15 -3 20 -9 5 -6 12 -4 21 8 8 10 16 14
17 8 2 -5 39 -12 82 -16 l77 -6 0 115 c0 69 4 116 10 116 14 0 5 66 -19 135
-11 33 -21 67 -21 75 0 8 -9 21 -19 27 -18 11 -19 10 -14 -21 3 -21 1 -36 -7
-41 -8 -5 -11 5 -9 37 2 24 0 49 -4 55 -5 8 0 11 12 10 11 0 17 -5 15 -9 -3
-4 2 -8 11 -8 9 0 13 -4 10 -10 -3 -6 4 -10 17 -11 13 0 17 -3 11 -6 -7 -2
-13 -13 -13 -23 0 -13 6 -17 23 -14 12 2 16 2 10 -2 -7 -3 -13 -10 -13 -15 0
-6 9 -5 21 1 15 9 18 15 10 24 -6 7 -8 16 -4 19 3 4 1 7 -6 7 -7 0 -9 5 -6 10
3 6 -2 10 -12 10 -12 0 -19 8 -20 22 -1 13 -7 24 -13 26 -5 2 -10 10 -10 18 0
8 -5 14 -11 14 -5 0 -7 5 -3 12 5 7 7 25 6 40 -2 22 2 28 18 28 15 0 20 -7 22
-27z m2201 8 c2 -10 1 -25 -4 -32 -6 -10 -9 -4 -9 19 0 36 5 42 13 13z m2636
-27 c4 3 8 -1 8 -9 0 -7 -9 -16 -20 -19 -15 -4 -18 -1 -13 17 3 12 6 31 7 42
1 13 4 10 6 -8 2 -15 8 -25 12 -23z m-3452 14 c-3 -8 -6 -5 -6 6 -1 11 2 17 5
13 3 -3 4 -12 1 -19z m43 7 c0 -8 -4 -15 -10 -15 -5 0 -10 7 -10 15 0 8 5 15
10 15 6 0 10 -7 10 -15z m1050 5 c0 -5 -5 -10 -11 -10 -5 0 -7 5 -4 10 3 6 8
10 11 10 2 0 4 -4 4 -10z m750 -15 c0 -8 -5 -15 -11 -15 -5 0 -7 5 -3 12 5 8
2 9 -10 5 -10 -4 -15 -3 -11 3 10 15 35 12 35 -5z m55 6 c-17 -7 -16 -9 10
-16 l30 -8 -30 -13 c-30 -13 -29 -13 18 -9 44 3 60 -5 37 -20 -5 -3 -10 -1
-10 4 0 6 -5 11 -11 11 -5 0 -8 -4 -5 -8 3 -5 -11 -14 -30 -20 -30 -9 -35 -8
-30 3 3 8 1 17 -4 20 -7 4 -6 13 0 26 8 14 7 19 -2 19 -9 0 -9 3 2 10 8 5 22
9 30 9 10 0 8 -3 -5 -8z m2552 -28 c-3 -10 -5 -4 -5 12 0 17 2 24 5 18 2 -7 2
-21 0 -30z m-6070 -3 c12 -24 7 -54 -8 -44 -5 3 -9 14 -9 25 0 16 -5 19 -20
14 -23 -7 -26 0 -7 20 16 18 29 14 44 -15z m20 -2 c-3 -7 -5 -2 -5 12 0 14 2
19 5 13 2 -7 2 -19 0 -25z m20 0 c-3 -7 -5 -2 -5 12 0 14 2 19 5 13 2 -7 2
-19 0 -25z m1526 12 c25 -11 48 -28 51 -37 6 -17 5 -17 -8 0 -7 9 -18 17 -23
17 -12 0 -10 -57 2 -68 4 -4 5 1 2 11 -4 9 -2 17 3 17 13 0 13 -41 0 -60 -9
-13 -11 -13 -21 0 -9 13 -10 13 -6 0 7 -26 32 -22 44 7 10 27 11 26 12 -19 1
-27 -3 -48 -9 -48 -5 0 -7 6 -4 13 3 8 -2 14 -10 14 -8 0 -13 -5 -9 -10 6 -10
-58 1 -68 12 -11 11 -21 171 -11 171 5 0 30 -9 55 -20z m787 -50 c0 -51 -13
-63 -38 -38 -15 15 -16 88 -1 88 5 0 7 5 3 11 -4 8 0 8 15 0 17 -10 21 -21 21
-61z m423 63 c-7 -2 -19 -2 -25 0 -7 3 -2 5 12 5 14 0 19 -2 13 -5z m801 -2
c4 -5 -3 -7 -14 -4 -23 6 -26 13 -6 13 8 0 17 -4 20 -9z m-1031 -20 c2 -11 0
-25 -7 -32 -8 -9 -8 -10 2 -5 6 4 12 3 12 -2 0 -6 -7 -12 -15 -16 -12 -4 -15
3 -15 34 0 42 14 54 23 21z m1217 -5 c0 -2 -9 -2 -20 1 -11 3 -20 9 -20 15 0
5 9 4 20 -2 11 -6 20 -12 20 -14z m-3359 -17 c5 -11 14 -17 20 -14 5 4 9 -1 9
-10 0 -11 -5 -15 -14 -12 -10 4 -16 -2 -19 -16 -4 -20 -4 -19 -6 4 0 14 -8 34
-16 45 -8 10 -15 22 -15 26 0 14 31 -4 41 -23z m1326 9 c-3 -8 -6 -5 -6 6 -1
11 2 17 5 13 3 -3 4 -12 1 -19z m553 -34 c0 -8 -6 -11 -15 -8 -10 4 -13 13
-10 25 4 11 2 19 -4 19 -6 0 -11 6 -11 13 1 16 40 -31 40 -49z m2162 24 c-6
-6 -12 -6 -17 3 -5 8 -4 10 3 5 7 -4 12 0 13 11 0 12 2 13 6 5 3 -8 1 -18 -5
-24z m197 13 c-13 -11 -26 -17 -29 -14 -6 6 30 33 43 33 5 0 -1 -9 -14 -19z
m-2859 -12 c0 -11 -4 -17 -10 -14 -5 3 -10 13 -10 21 0 8 5 14 10 14 6 0 10
-9 10 -21z m620 -28 c0 -20 -6 -30 -20 -34 -18 -5 -20 0 -20 39 0 42 1 44 20
34 13 -7 20 -21 20 -39z m60 28 c0 -6 -4 -7 -10 -4 -5 3 -10 11 -10 16 0 6 5
7 10 4 6 -3 10 -11 10 -16z m965 5 l-40 -14 38 5 c32 5 37 3 37 -15 0 -17 -6
-20 -50 -20 -27 0 -50 5 -50 10 0 6 6 10 13 11 7 0 6 3 -3 7 -10 4 -1 10 25
18 55 17 79 15 30 -2z m475 12 c0 -2 -7 -7 -16 -10 -8 -3 -12 -2 -9 4 6 10 25
14 25 6z m-3383 -12 c-3 -3 -12 -4 -19 -1 -8 3 -5 6 6 6 11 1 17 -2 13 -5z
m1993 -30 c0 -11 -6 -14 -16 -10 -9 3 -18 6 -20 6 -2 0 -4 9 -4 20 0 18 3 19
20 10 11 -6 20 -18 20 -26z m3230 -16 c0 -10 -7 -18 -15 -18 -8 0 -15 -5 -15
-12 0 -6 -3 -9 -6 -5 -3 3 -3 24 1 47 6 37 8 40 21 23 7 -10 14 -26 14 -35z
m-5895 19 c15 -4 14 -5 -7 -6 -21 -1 -28 4 -28 17 0 11 3 13 8 6 4 -7 16 -14
27 -17z m202 17 c-3 -3 -12 -4 -19 -1 -8 3 -5 6 6 6 11 1 17 -2 13 -5z m1608
-4 c3 -5 1 -10 -4 -10 -6 0 -11 5 -11 10 0 6 2 10 4 10 3 0 8 -4 11 -10z m385
-54 c0 -60 -1 -64 -20 -59 -11 3 -27 15 -35 26 -18 25 -20 77 -4 77 6 0 9 -9
6 -20 -6 -22 8 -28 17 -7 3 6 4 0 2 -16 -3 -22 -1 -25 10 -16 8 6 11 15 9 20
-6 8 4 59 11 59 2 0 4 -29 4 -64z m4117 32 c-3 -7 -5 -2 -5 12 0 14 2 19 5 13
2 -7 2 -19 0 -25z m-6010 0 c-3 -8 -6 -5 -6 6 -1 11 2 17 5 13 3 -3 4 -12 1
-19z m610 16 c-3 -3 -12 -4 -19 -1 -8 3 -5 6 6 6 11 1 17 -2 13 -5z m1731 -44
c3 -8 -4 -7 -18 2 -18 10 -24 10 -27 1 -9 -24 -23 -13 -23 18 l0 31 32 -21
c18 -11 34 -25 36 -31z m1202 34 c0 -8 -4 -12 -10 -9 -5 3 -19 1 -31 -6 -15
-8 -19 -8 -15 0 4 6 2 11 -3 11 -6 0 -11 5 -11 10 0 6 16 10 35 10 25 0 35 -4
35 -16z m1930 -4 c6 -11 8 -20 6 -20 -3 0 -10 9 -16 20 -6 11 -8 20 -6 20 3 0
10 -9 16 -20z m437 -2 c-3 -8 -6 -5 -6 6 -1 11 2 17 5 13 3 -3 4 -12 1 -19z
m-1447 -4 c0 -9 -9 -13 -25 -12 -32 3 -32 23 0 24 15 1 25 -3 25 -12z m-4507
-1 c-7 -2 -19 -2 -25 0 -7 3 -2 5 12 5 14 0 19 -2 13 -5z m1561 -8 c-4 -8 -1
-15 4 -15 6 0 13 -8 15 -17 3 -12 7 -7 12 15 10 45 30 35 30 -15 0 -23 3 -39
8 -36 4 2 7 -14 7 -36 0 -46 -3 -47 -52 -27 -33 14 -35 17 -37 72 -1 32 -4 61
-7 66 -3 4 2 8 10 8 10 0 13 -6 10 -15z m1913 1 c0 -8 -9 -17 -19 -19 -20 -6
-26 18 -5 26 20 9 24 8 24 -7z m300 -7 c61 -11 83 -22 64 -33 -13 -8 -221 35
-221 46 0 10 52 5 157 -13z m1192 -21 c-4 -24 -8 -46 -9 -50 0 -5 -9 -8 -20
-8 -14 0 -18 5 -13 18 8 20 44 82 48 82 1 0 -1 -19 -6 -42z m-2795 11 c5 -5 7
-11 4 -14 -7 -8 -58 16 -58 27 0 10 40 1 54 -13z m1861 -7 l30 -10 -37 1 c-32
0 -38 4 -38 21 0 12 3 16 8 10 4 -6 21 -16 37 -22z m-4185 8 c0 -5 -4 -10 -10
-10 -5 0 -10 5 -10 10 0 6 5 10 10 10 6 0 10 -4 10 -10z m101 -13 c-10 -9 -11
-8 -5 6 3 10 9 15 12 12 3 -3 0 -11 -7 -18z m34 -7 c-1 -17 -5 -33 -8 -37 -4
-3 -2 -12 4 -19 7 -8 7 -14 -1 -19 -5 -3 -13 1 -16 9 -3 9 -12 16 -20 16 -8 0
-14 5 -14 11 0 5 10 9 22 7 19 -3 22 1 22 30 -1 17 2 32 6 32 4 0 7 -14 5 -30z
m3985 26 c0 -3 -4 -8 -10 -11 -5 -3 -10 -1 -10 4 0 6 5 11 10 11 6 0 10 -2 10
-4z m-4246 -30 c-6 -15 -24 -23 -24 -11 0 8 24 34 28 30 1 -1 0 -10 -4 -19z
m1976 13 c0 -5 -4 -7 -10 -4 -5 3 -10 1 -10 -4 0 -6 6 -11 13 -11 9 0 8 -3 -1
-9 -12 -7 -11 -13 1 -37 l15 -29 13 28 c19 43 29 32 29 -34 0 -54 -2 -60 -17
-54 -10 4 -25 9 -34 12 -30 9 -43 153 -14 153 8 0 15 -5 15 -11z m140 1 c0 -5
-5 -10 -11 -10 -5 0 -7 5 -4 10 3 6 8 10 11 10 2 0 4 -4 4 -10z m4207 -12 c-3
-8 -6 -5 -6 6 -1 11 2 17 5 13 3 -3 4 -12 1 -19z m-2104 -4 c28 -5 35 -9 27
-19 -14 -17 -100 2 -100 22 0 9 7 12 18 9 9 -3 34 -8 55 -12z m397 -44 c0 -47
-3 -60 -15 -60 -18 0 -21 70 -5 101 17 30 20 23 20 -41z m-2193 44 c-3 -3 -12
-4 -19 -1 -8 3 -5 6 6 6 11 1 17 -2 13 -5z m1409 -46 c-3 -29 -6 -65 -6 -80
l0 -28 -103 0 -104 0 0 29 c0 30 -18 61 -35 61 -5 0 -2 -10 6 -22 9 -12 16
-33 16 -45 0 -19 -5 -23 -30 -23 -29 0 -30 2 -30 44 0 38 3 45 28 54 15 6 52
14 82 18 30 3 57 10 60 13 7 10 70 29 99 30 23 1 24 -1 17 -51z m74 46 c23 -5
28 -9 18 -16 -9 -6 -6 -7 9 -3 13 3 68 -3 122 -14 55 -12 103 -21 106 -21 3 0
5 -19 3 -42 l-3 -43 -164 -3 -163 -3 6 23 c3 13 6 47 6 76 0 56 2 57 60 46z
m587 -16 c-3 -8 -6 -5 -6 6 -1 11 2 17 5 13 3 -3 4 -12 1 -19z m-3807 -3 c0
-9 -6 -12 -16 -8 -13 5 -13 7 -2 14 17 11 18 11 18 -6z m998 -56 c335 -100
494 -150 489 -156 -3 -2 -22 0 -44 6 -53 15 -62 14 -56 -8 3 -13 20 -23 49
-30 57 -15 62 -45 9 -55 -37 -7 -42 -15 -23 -34 10 -10 6 -12 -19 -10 -23 1
-30 6 -26 18 4 13 3 13 -9 0 -7 -9 -30 -15 -53 -15 l-40 0 -2 45 c-2 46 1 46
11 -2 4 -16 11 -28 17 -28 7 0 8 12 4 33 l-7 32 26 -27 26 -27 52 15 c63 19
83 33 47 35 -13 1 -28 1 -32 0 -5 -1 -5 4 -1 10 5 9 -1 10 -23 6 -28 -6 -29
-4 -25 25 3 19 -1 34 -9 39 -13 9 -260 89 -273 89 -3 0 -6 -13 -6 -29 0 -22 6
-30 25 -35 16 -4 25 -13 25 -27 l0 -20 -29 20 c-16 12 -33 21 -37 21 -5 0 8
-12 29 -27 47 -33 51 -67 7 -61 -23 4 -30 0 -33 -16 -3 -16 -5 -15 -6 6 -1 17
-12 34 -31 48 -17 12 -30 31 -31 43 0 18 -2 19 -7 5 -6 -15 -9 -15 -29 2 -13
10 -23 23 -23 29 0 6 -8 11 -18 11 -10 0 -22 4 -28 10 -12 12 -66 16 -83 5
-10 -6 -12 -4 -6 6 4 8 -4 1 -18 -16 -17 -21 -22 -32 -14 -37 15 -9 4 -10 -17
-2 -20 8 -21 33 -1 40 19 8 20 34 1 34 -16 0 -29 27 -17 34 7 5 42 -6 206 -64
131 -46 124 -46 116 -8 -6 31 -9 33 -166 85 -88 29 -154 52 -147 53 7 0 119
-32 250 -71z m2706 39 c24 -6 35 -13 29 -19 -15 -15 -147 13 -151 32 -3 14 3
15 40 6 24 -5 60 -14 82 -19z m-4353 -1 c-10 -9 -11 -8 -5 6 3 10 9 15 12 12
3 -3 0 -11 -7 -18z m2087 -72 l4 -65 -31 11 c-38 14 -41 23 -3 15 22 -5 24 -4
10 4 -20 12 -24 40 -7 40 7 0 10 15 7 40 -2 26 0 36 6 30 6 -6 12 -39 14 -75z
m1219 79 c-3 -3 -12 -4 -19 -1 -8 3 -5 6 6 6 11 1 17 -2 13 -5z m2364 -26 c-3
-21 -6 -26 -9 -15 -3 17 3 47 11 47 2 0 1 -15 -2 -32z m-5572 -23 c0 -5 -6 -1
-14 9 -8 11 -15 24 -15 30 0 5 7 1 15 -10 8 -10 14 -23 14 -29z m459 -35 l0
-35 -9 40 c-4 22 -8 49 -7 60 0 16 2 15 8 -5 4 -14 8 -41 8 -60z m587 70 c-3
-5 -12 -10 -18 -10 -7 0 -6 4 3 10 19 12 23 12 15 0z m2300 4 c-27 -11 -210
-53 -214 -48 -11 11 19 25 80 38 58 13 158 20 134 10z m1015 -33 c0 -12 -11
-14 -34 -5 -12 5 -13 10 -5 25 9 17 12 18 24 5 8 -8 15 -19 15 -25z m1394 32
c-5 -5 -12 -12 -16 -18 -4 -6 -8 -2 -8 8 0 9 7 17 17 17 9 0 12 -3 7 -7z
m-3674 -53 c0 -20 2 -22 10 -10 8 12 10 9 10 -13 0 -15 -7 -30 -15 -33 -8 -3
-17 -14 -20 -25 -8 -23 -31 -25 -39 -3 -3 9 -6 42 -6 74 l0 58 30 -11 c22 -9
30 -18 30 -37z m-1024 21 c0 -12 -5 -17 -15 -13 -10 4 -12 1 -6 -8 5 -9 4 -11
-3 -6 -18 11 -14 34 6 39 9 3 17 5 17 6 1 0 1 -7 1 -18z m3981 -3 c-3 -8 -6
-5 -6 6 -1 11 2 17 5 13 3 -3 4 -12 1 -19z m-5127 2 c0 -5 -5 -10 -11 -10 -5
0 -7 5 -4 10 3 6 8 10 11 10 2 0 4 -4 4 -10z m4190 -30 c0 -38 -2 -40 -30 -40
-28 0 -30 2 -30 40 0 38 2 40 30 40 28 0 30 -2 30 -40z m323 33 c-7 -2 -19 -2
-25 0 -7 3 -2 5 12 5 14 0 19 -2 13 -5z m994 -30 c-3 -10 -5 -4 -5 12 0 17 2
24 5 18 2 -7 2 -21 0 -30z m235 -30 c6 -13 8 -26 5 -30 -11 -11 -17 1 -21 48
-2 24 -2 35 1 24 2 -11 9 -30 15 -42z m-5492 47 c0 -5 -2 -10 -4 -10 -3 0 -8
5 -11 10 -3 6 -1 10 4 10 6 0 11 -4 11 -10z m447 3 c-9 -2 -15 -9 -12 -14 4
-5 1 -9 -4 -9 -12 0 -14 13 -4 23 3 4 13 6 22 6 13 -1 12 -2 -2 -6z m2788 -36
l0 -42 -129 -3 c-115 -2 -162 5 -145 22 7 7 231 65 254 65 17 1 20 -5 20 -42z
m833 23 c54 -10 72 -17 72 -29 0 -13 -14 -16 -90 -16 -78 0 -90 2 -90 17 0 27
12 49 24 45 6 -2 44 -10 84 -17z m-3074 -70 c5 -20 3 -19 -8 5 -7 17 -16 41
-20 55 -5 20 -3 19 8 -5 7 -16 16 -41 20 -55z m3320 21 c8 -13 -3 -38 -20 -45
-10 -4 -14 3 -14 24 0 29 21 42 34 21z m-3996 -96 l0 -30 -8 30 c-4 17 -8 44
-8 60 l0 30 8 -30 c4 -16 8 -43 8 -60z m4929 33 c-2 -13 -4 -5 -4 17 -1 22 1
32 4 23 2 -10 2 -28 0 -40z m-4227 -23 c0 -5 -5 -3 -10 5 -5 8 -10 20 -10 25
0 6 5 3 10 -5 5 -8 10 -19 10 -25z m578 -14 c-2 -20 -8 -26 -28 -26 -22 0 -25
5 -28 37 l-3 37 31 -10 c26 -9 31 -16 28 -38z m3357 39 c3 -5 1 -10 -4 -10 -6
0 -11 5 -11 10 0 6 2 10 4 10 3 0 8 -4 11 -10z m-3315 -40 c0 -11 -4 -20 -10
-20 -5 0 -10 9 -10 20 0 11 5 20 10 20 6 0 10 -9 10 -20z m-730 -6 c0 -8 -5
-12 -10 -9 -6 4 -8 11 -5 16 9 14 15 11 15 -7z m760 1 c0 -8 -4 -15 -10 -15
-5 0 -10 7 -10 15 0 8 5 15 10 15 6 0 10 -7 10 -15z m70 0 c0 -1 -11 -5 -25
-7 -16 -3 -25 -1 -25 7 0 8 9 10 25 7 14 -2 25 -6 25 -7z m2340 5 c-20 -13
-43 -13 -35 0 3 6 16 10 28 10 18 0 19 -2 7 -10z m27 -12 c-3 -8 -6 -5 -6 6
-1 11 2 17 5 13 3 -3 4 -12 1 -19z m-3067 -23 c0 -5 -5 -3 -10 5 -5 8 -10 20
-10 25 0 6 5 3 10 -5 5 -8 10 -19 10 -25z m195 -42 c-3 -7 -1 -13 3 -13 5 0 9
-21 11 -47 2 -54 8 -66 24 -57 9 5 9 4 1 -5 -19 -21 -44 -2 -44 34 0 19 -4 37
-10 40 -13 8 -13 -51 0 -76 7 -12 7 -19 1 -19 -17 0 -41 31 -41 51 0 11 -4 18
-9 15 -5 -3 -12 1 -15 10 -10 25 -7 64 5 64 5 0 8 -4 5 -9 -3 -5 8 -11 24 -13
32 -5 42 7 13 15 -13 3 -12 5 5 6 13 0 21 5 17 10 -3 5 -21 7 -40 4 -26 -4
-35 -2 -35 8 0 8 -3 24 -6 37 -6 21 -4 20 44 -10 28 -18 49 -39 47 -45z m2468
70 c-7 -2 -19 -2 -25 0 -7 3 -2 5 12 5 14 0 19 -2 13 -5z m-2833 -7 c0 -3 -4
-8 -10 -11 -5 -3 -10 -1 -10 4 0 6 5 11 10 11 6 0 10 -2 10 -4z m-1043 -22
c-3 -3 -12 -4 -19 -1 -8 3 -5 6 6 6 11 1 17 -2 13 -5z m1823 -36 c-1 -42 -1
-43 -15 -18 -19 33 -19 60 0 60 11 0 15 -11 15 -42z m2455 -34 c-3 -30 -11
-54 -17 -54 -6 0 -7 7 -3 18 4 9 10 40 13 67 3 28 7 44 10 37 2 -7 1 -38 -3
-68z m-4231 51 c11 -8 16 -15 10 -15 -5 0 -18 7 -28 15 -11 8 -16 15 -10 15 5
0 18 -7 28 -15z m464 -65 c0 -22 -1 -22 -8 5 -4 17 -8 41 -8 55 0 22 1 22 8
-5 4 -16 8 -41 8 -55z m1187 70 c8 -13 -5 -13 -25 0 -13 8 -13 10 2 10 9 0 20
-4 23 -10z m76 -2 c5 -55 3 -63 -17 -66 -21 -3 -34 19 -34 61 0 20 49 25 51 5z
m2159 -9 c0 -5 -4 -9 -10 -9 -5 0 -10 7 -10 16 0 8 5 12 10 9 6 -3 10 -10 10
-16z m90 11 c0 -5 -2 -10 -4 -10 -3 0 -8 5 -11 10 -3 6 -1 10 4 10 6 0 11 -4
11 -10z m1100 -35 c0 -71 -20 -248 -32 -277 -11 -28 -28 -38 -28 -16 0 50 25
188 34 188 8 0 8 2 -1 8 -17 11 -5 142 13 142 10 0 14 -14 14 -45z m-3890 0
c0 -5 -5 -3 -10 5 -5 8 -10 20 -10 25 0 6 5 3 10 -5 5 -8 10 -19 10 -25z
m2431 21 c-16 -19 -61 -27 -54 -10 3 9 -9 14 -44 17 -34 2 -25 4 31 5 66 2 77
0 67 -12z m26 -18 c-3 -7 -5 -2 -5 12 0 14 2 19 5 13 2 -7 2 -19 0 -25z m81 9
c44 7 41 -2 -3 -10 -37 -7 -61 5 -49 24 7 11 9 11 12 -3 3 -13 11 -15 40 -11z
m15 16 c-7 -2 -21 -2 -30 0 -10 3 -4 5 12 5 17 0 24 -2 18 -5z m-1863 -13 c0
-5 -2 -10 -4 -10 -3 0 -8 5 -11 10 -3 6 -1 10 4 10 6 0 11 -4 11 -10z m1290
-5 c0 -8 -2 -15 -4 -15 -2 0 -6 7 -10 15 -3 8 -1 15 4 15 6 0 10 -7 10 -15z
m60 8 c0 -5 -11 -9 -25 -9 -14 -1 -25 2 -25 7 0 5 11 9 25 9 14 0 25 -3 25 -7z
m60 -1 c0 -4 -9 -8 -20 -8 -11 0 -20 4 -20 8 0 4 9 8 20 8 11 0 20 -4 20 -8z
m250 -12 c0 -5 -9 -10 -20 -10 -11 0 -20 5 -20 10 0 6 9 10 20 10 11 0 20 -4
20 -10z m-1477 -55 c-3 -8 -1 -15 3 -15 5 0 8 -30 7 -67 -2 -46 1 -63 7 -53 8
12 10 10 10 -10 0 -22 -33 -56 -50 -52 -8 1 -23 -42 -21 -60 1 -10 -1 -19 -6
-19 -4 -1 -24 -2 -43 -4 -19 -1 -36 -7 -38 -14 -11 -32 -20 -3 -19 57 0 39 3
57 7 42 6 -23 7 -23 12 -5 21 68 62 176 81 213 21 44 21 44 39 22 9 -11 14
-28 11 -35z m-1937 7 c-5 -4 -66 26 -66 33 0 3 16 -3 35 -12 19 -9 33 -18 31
-21z m1084 -7 c0 -5 -5 -3 -10 5 -5 8 -10 20 -10 25 0 6 5 3 10 -5 5 -8 10
-19 10 -25z m245 25 c18 -8 17 -9 -7 -9 -16 -1 -28 4 -28 9 0 12 8 12 35 0z
m2195 -17 c0 -21 -13 -45 -19 -35 -3 5 -24 11 -46 15 l-40 5 30 -13 c29 -13
28 -13 -29 -12 -32 1 -53 3 -47 5 18 6 13 32 -6 34 -25 2 85 14 124 13 18 0
33 -5 33 -12z m240 3 c0 -18 -17 -30 -24 -17 -6 9 -98 7 -168 -3 -22 -3 -28 0
-28 15 0 18 8 19 110 19 89 0 110 -3 110 -14z m90 -8 c0 -16 -3 -19 -11 -11
-6 6 -8 16 -5 22 11 17 16 13 16 -11z m57 -10 c-3 -7 -5 -2 -5 12 0 14 2 19 5
13 2 -7 2 -19 0 -25z m-4016 -1 c-10 -9 -11 -8 -5 6 3 10 9 15 12 12 3 -3 0
-11 -7 -18z m1499 13 c18 -12 2 -12 -25 0 -13 6 -15 9 -5 9 8 0 22 -4 30 -9z
m1840 -17 c0 -12 -5 -23 -11 -23 -5 0 -7 5 -4 10 4 6 2 17 -4 24 -8 9 -7 13 4
13 9 0 15 -10 15 -24z m1660 -20 c-11 -17 -11 -17 -6 0 3 10 7 26 7 35 1 15 2
15 6 0 2 -10 -1 -25 -7 -35z m-3118 12 c3 -14 1 -25 -3 -25 -5 0 -9 11 -9 25
0 14 2 25 4 25 2 0 6 -11 8 -25z m-1742 -21 c0 -2 -13 2 -30 11 -16 9 -30 18
-30 21 0 2 14 -2 30 -11 17 -9 30 -18 30 -21z m1444 -21 c3 -32 5 -65 5 -73
-1 -8 2 -30 6 -47 6 -25 4 -33 -6 -33 -20 0 -36 13 -37 30 -1 8 -5 30 -8 48
-5 28 -4 32 15 32 14 0 21 6 21 20 0 13 -7 20 -20 20 -11 0 -20 5 -20 11 0 6
7 9 15 5 10 -3 15 1 15 14 0 11 -9 20 -22 23 -20 4 -20 4 4 6 25 1 26 -2 32
-56z m69 50 c-13 -2 -33 -2 -45 0 -13 2 -3 4 22 4 25 0 35 -2 23 -4z m-438
-46 c8 -20 13 -37 10 -37 -5 0 -35 67 -35 78 0 11 10 -5 25 -41z m-747 -62
c-1 -31 -16 35 -16 70 0 25 2 24 9 -10 4 -22 8 -49 7 -60z m3375 88 c-7 -2
-19 -2 -25 0 -7 3 -2 5 12 5 14 0 19 -2 13 -5z m80 0 c-13 -2 -33 -2 -45 0
-13 2 -3 4 22 4 25 0 35 -2 23 -4z m-3863 -13 c0 -5 -2 -10 -4 -10 -3 0 -8 5
-11 10 -3 6 -1 10 4 10 6 0 11 -4 11 -10z m1230 -32 c0 -5 -4 -8 -10 -8 -5 0
-10 10 -10 23 0 18 2 19 10 7 5 -8 10 -18 10 -22z m2575 22 c4 -6 5 -13 4 -15
-2 -2 -50 -6 -106 -9 -85 -5 -103 -3 -103 9 0 15 19 18 132 23 40 2 69 -2 73
-8z m91 -4 c12 -13 10 -15 -16 -14 -38 1 -39 18 -2 27 2 1 10 -5 18 -13z
m-2519 -2 c-3 -3 -12 -4 -19 -1 -8 3 -5 6 6 6 11 1 17 -2 13 -5z m83 2 c0 -2
-13 -6 -29 -8 -17 -2 -28 -1 -25 4 5 8 54 12 54 4z m367 -58 c-2 -13 -4 -3 -4
22 0 25 2 35 4 23 2 -13 2 -33 0 -45z m1470 40 c-3 -8 -6 -5 -6 6 -1 11 2 17
5 13 3 -3 4 -12 1 -19z m33 1 c0 -6 -4 -7 -10 -4 -5 3 -10 11 -10 16 0 6 5 7
10 4 6 -3 10 -11 10 -16z m258 9 c-6 -17 -188 -25 -188 -8 0 6 -4 8 -10 5 -5
-3 -10 -1 -10 4 0 7 38 11 106 11 80 0 105 -3 102 -12z m457 2 c-3 -5 -12 -10
-18 -10 -7 0 -6 4 3 10 19 12 23 12 15 0z m70 0 c-3 -5 -11 -10 -16 -10 -6 0
-7 5 -4 10 3 6 11 10 16 10 6 0 7 -4 4 -10z m-850 -10 c-3 -5 -11 -10 -16 -10
-6 0 -7 5 -4 10 3 6 11 10 16 10 6 0 7 -4 4 -10z m1645 -10 c0 -11 -4 -20 -8
-20 -5 0 -8 -27 -7 -60 1 -33 -1 -60 -5 -60 -4 0 -5 -25 -2 -56 4 -45 2 -56
-9 -52 -8 3 -13 14 -12 24 1 10 5 70 9 132 5 84 10 112 20 112 8 0 14 -9 14
-20z m508 -10 c-7 -10 -14 -18 -15 -16 -6 6 9 36 18 36 5 0 4 -9 -3 -20z
m-5578 -15 c-7 -8 -17 -15 -23 -15 -6 0 -2 8 9 19 22 21 33 19 14 -4z m-40 1
c-7 -7 -14 -6 -21 1 -9 9 -7 12 9 10 14 -1 18 -5 12 -11z m1537 0 c4 -3 8 -29
9 -56 2 -28 6 -55 9 -60 3 -5 24 -8 47 -6 23 2 63 -2 89 -9 36 -10 49 -10 53
-1 2 6 5 -3 5 -21 1 -36 -15 -52 -32 -33 -9 10 -8 12 6 7 11 -4 17 -1 17 9 0
10 -6 14 -14 11 -7 -3 -26 1 -41 9 -36 19 -55 18 -55 -3 0 -13 3 -14 12 -5 15
15 32 16 23 2 -3 -5 1 -10 10 -10 9 0 14 -4 10 -9 -6 -11 -66 4 -75 19 -8 13
-36 15 -72 5 -22 -6 -28 -4 -28 9 0 19 -13 20 -41 5 -15 -7 -24 -7 -35 2 -21
18 -17 31 7 19 11 -7 23 -10 25 -7 2 2 -7 10 -21 17 -15 8 -25 21 -24 34 1 17
2 18 6 4 8 -31 19 -19 15 16 -2 21 -9 33 -16 30 -7 -3 -12 4 -12 16 0 18 5 20
59 16 32 -2 61 -7 64 -10z m347 -26 c-6 -5 -24 21 -24 34 0 6 6 1 14 -10 8
-10 12 -21 10 -24z m-284 20 c0 -6 7 -6 19 1 35 22 53 4 49 -48 -3 -39 -7 -48
-22 -48 -11 0 -21 6 -23 13 -3 6 2 12 11 12 9 0 16 5 16 10 0 6 -4 10 -9 10
-5 0 -7 9 -4 20 3 11 1 20 -5 20 -8 0 -22 -40 -26 -75 -1 -5 -9 -11 -20 -13
-11 -3 -16 0 -12 7 4 6 2 11 -5 11 -10 0 -10 3 -1 12 7 7 12 21 11 33 -1 17
-2 16 -9 -5 -7 -23 -8 -23 -9 -3 -1 12 -4 28 -7 37 -5 12 0 16 20 16 14 0 26
-5 26 -10z m2750 -27 c0 -21 -3 -62 -6 -90 l-7 -53 -41 2 c-37 1 -38 2 -8 5
17 2 32 9 32 15 0 5 -7 8 -15 4 -21 -8 -45 3 -45 20 0 22 -27 17 -33 -6 -3
-11 -13 -20 -22 -20 -9 0 -28 -6 -43 -14 -20 -10 -106 -15 -335 -21 l-309 -7
7 24 c5 18 4 20 -5 8 -9 -13 -10 -12 -6 5 3 11 8 38 12 60 7 35 8 37 14 16 11
-46 30 -36 30 16 0 34 3 44 10 33 5 -8 6 -35 3 -60 -3 -25 -2 -41 3 -37 4 4
11 29 15 55 6 42 6 38 8 -30 0 -43 5 -78 10 -78 5 0 7 8 4 19 -6 23 13 37 21
16 3 -8 16 -14 30 -13 19 2 23 6 17 23 -9 25 -3 55 11 55 5 0 7 7 4 16 -3 8
-2 12 4 9 6 -3 10 -2 10 4 0 5 -6 12 -12 14 -7 3 -4 6 7 6 17 1 18 3 5 11 -11
8 -8 9 15 6 17 -2 30 -5 30 -6 0 -1 12 -3 27 -4 14 -1 24 2 22 6 -3 4 -1 8 5
8 5 0 12 -4 16 -9 3 -6 18 -6 37 0 17 5 34 7 36 4 3 -2 13 0 23 6 14 7 19 6
20 -3 0 -10 2 -10 6 0 2 6 14 12 26 11 21 0 21 -1 2 -9 -20 -8 -15 -11 23 -10
4 0 10 -30 13 -67 l6 -68 -1 78 -1 77 30 0 c23 0 27 -3 15 -10 -8 -5 -10 -10
-5 -10 7 0 10 -24 9 -60 -1 -33 1 -62 6 -65 9 -6 71 14 85 27 10 10 3 9 -54
-7 -30 -9 -25 16 7 30 21 9 30 25 14 25 -13 0 -8 54 6 63 17 11 42 -10 42 -34
0 -11 3 -19 8 -19 14 1 42 27 35 33 -3 4 17 7 45 7 40 0 52 4 52 15 0 8 7 15
15 15 11 0 15 -11 15 -37z m580 23 c0 -3 -4 -8 -10 -11 -5 -3 -10 -1 -10 4 0
6 5 11 10 11 6 0 10 -2 10 -4z m-4593 -28 c-3 -8 -6 -5 -6 6 -1 11 2 17 5 13
3 -3 4 -12 1 -19z m1511 1 c10 -37 25 -57 41 -52 9 4 13 3 9 -2 -4 -4 -3 -14
4 -22 18 -22 3 -25 -24 -3 -34 26 -71 99 -49 95 8 -1 17 -8 19 -16z m-1484
-15 c3 -8 2 -12 -4 -9 -6 3 -10 10 -10 16 0 14 7 11 14 -7z m3306 1 c0 -8 -4
-15 -10 -15 -5 0 -10 -7 -10 -15 0 -8 -4 -15 -10 -15 -15 0 -12 16 5 30 8 7
12 16 9 21 -3 5 0 9 5 9 6 0 11 -7 11 -15z m-255 -15 c3 -5 1 -10 -4 -10 -6 0
-11 5 -11 10 0 6 2 10 4 10 3 0 8 -4 11 -10z m2195 0 c0 -5 -5 -10 -11 -10 -5
0 -7 5 -4 10 3 6 8 10 11 10 2 0 4 -4 4 -10z m-5530 -11 c0 -6 -6 -9 -14 -6
-7 3 -19 0 -25 -6 -8 -8 -11 -8 -11 0 0 12 16 21 38 22 6 1 12 -4 12 -10z
m1862 -8 c16 -18 15 -20 -1 -18 -9 0 -17 9 -17 19 0 10 1 18 1 18 0 0 8 -9 17
-19z m4348 4 c-7 -8 -18 -15 -24 -15 -6 0 -2 7 8 15 25 19 32 19 16 0z m-5895
-5 c3 -5 2 -10 -4 -10 -5 0 -13 5 -16 10 -3 6 -2 10 4 10 5 0 13 -4 16 -10z
m3065 0 c0 -5 -4 -10 -10 -10 -5 0 -10 5 -10 10 0 6 5 10 10 10 6 0 10 -4 10
-10z m-2322 -12 c18 -18 15 -38 -5 -31 -15 6 -16 4 -5 -9 10 -13 9 -16 -8 -21
-19 -5 -21 -2 -15 24 4 18 3 29 -4 29 -6 0 -11 5 -11 10 0 14 33 13 48 -2z
m-642 -23 c-8 -8 -17 -15 -20 -15 -3 0 -3 7 0 15 4 8 13 15 21 15 12 0 12 -2
-1 -15z m1332 -5 c34 0 106 -39 74 -40 -11 0 -11 -2 0 -13 7 -8 21 -14 30 -14
9 0 14 6 11 14 -3 7 -9 13 -14 13 -5 0 -9 7 -9 15 0 10 10 15 29 15 24 0 29
-5 33 -30 3 -17 2 -33 -2 -35 -4 -2 -51 -7 -104 -11 -68 -5 -96 -4 -96 4 0 6
6 9 13 7 8 -4 12 5 13 25 1 19 -4 30 -12 30 -8 0 -14 10 -13 23 0 12 3 16 6
10 2 -7 21 -13 41 -13z m1635 -2 c7 -23 -4 -23 -25 1 -16 18 -15 20 2 18 10
-1 21 -9 23 -19z m-1500 5 c-7 -2 -19 -2 -25 0 -7 3 -2 5 12 5 14 0 19 -2 13
-5z m2957 -7 c0 -24 -17 -28 -23 -6 -3 13 0 20 9 20 8 0 14 -6 14 -14z m-4507
-5 c4 -1 7 -5 7 -10 0 -14 -39 -9 -44 5 -3 7 2 11 12 9 9 -2 20 -4 25 -4z
m787 -7 c0 -8 -5 -12 -10 -9 -6 4 -17 1 -25 -5 -20 -17 -19 -5 1 14 20 20 34
20 34 0z m2194 0 c3 -8 2 -12 -4 -9 -6 3 -10 10 -10 16 0 14 7 11 14 -7z
m2383 -56 c-2 -13 -4 -5 -4 17 -1 22 1 32 4 23 2 -10 2 -28 0 -40z m449 40
c-3 -22 -20 -43 -48 -61 -18 -11 -26 -13 -22 -4 2 7 17 20 32 30 29 18 13 24
-18 7 -16 -8 -18 -8 -14 5 4 8 14 15 24 15 11 0 22 5 25 10 9 14 24 12 21 -2z
m-5721 -18 c8 -13 -15 -13 -35 0 -12 8 -11 10 7 10 12 0 25 -4 28 -10z m647
-4 c7 4 8 2 4 -4 -4 -8 0 -12 11 -13 14 0 12 -3 -6 -10 -13 -5 -29 -8 -35 -5
-6 2 -3 5 7 5 10 1 15 6 12 12 -4 6 -14 8 -22 4 -14 -5 -14 -3 -2 11 8 10 15
12 17 5 2 -6 9 -8 14 -5z m3758 -36 c0 -11 -4 -20 -10 -20 -5 0 -10 9 -10 20
0 11 5 20 10 20 6 0 10 -9 10 -20z m-3176 -11 c3 1 6 -1 6 -4 0 -3 0 -10 0
-16 0 -8 -5 -8 -15 1 -8 7 -15 20 -15 29 0 12 2 13 9 3 4 -8 11 -13 15 -13z
m1739 6 c-3 -9 -8 -14 -10 -11 -3 3 -2 9 2 15 9 16 15 13 8 -4z m80 -2 c-7 -2
-19 -2 -25 0 -7 3 -2 5 12 5 14 0 19 -2 13 -5z m267 -3 c0 -5 -10 -10 -22 -9
-22 0 -22 1 -3 9 11 5 21 9 23 9 1 1 2 -3 2 -9z m144 -6 c3 -8 1 -24 -4 -36
-8 -21 -9 -20 -9 11 -1 26 -4 32 -17 27 -9 -3 -23 -6 -32 -6 -14 0 -14 -2 -3
-9 8 -5 11 -16 8 -26 -8 -20 -27 -10 -27 15 0 19 -25 34 -41 24 -5 -3 -9 -1
-9 4 0 15 128 11 134 -4z m96 -36 c-5 -48 -7 -53 -30 -53 -22 0 -25 5 -28 39
-5 53 3 66 35 66 28 0 29 0 23 -52z m70 26 c0 -8 -10 -14 -25 -14 -17 0 -23 4
-19 15 4 8 10 12 15 9 5 -3 9 0 9 6 0 6 5 8 10 5 6 -3 10 -13 10 -21z m191 1
c15 5 19 2 19 -14 0 -15 -6 -21 -21 -21 -21 0 -21 0 2 -20 l24 -21 -25 3 c-23
3 -25 8 -27 53 -1 28 1 42 4 32 3 -12 11 -16 24 -12z m189 5 c0 -11 -4 -20 -9
-20 -7 0 -8 17 -2 38 4 10 11 -2 11 -18z m121 -7 c-8 -15 -10 -15 -11 -2 0 17
10 32 18 25 2 -3 -1 -13 -7 -23z m1034 17 c-3 -5 -11 -10 -16 -10 -6 0 -7 5
-4 10 3 6 11 10 16 10 6 0 7 -4 4 -10z m-3757 -12 c-5 -15 -58 -24 -58 -10 0
6 10 8 22 4 14 -3 19 -2 14 6 -4 7 -1 12 9 12 9 0 15 -6 13 -12z m62 1 c0 -5
-4 -7 -10 -4 -5 3 -10 1 -10 -4 0 -6 7 -11 15 -11 8 0 15 7 15 15 0 9 6 12 15
9 11 -5 15 -24 16 -78 1 -65 2 -69 13 -43 11 25 14 26 25 13 8 -9 19 -16 26
-16 14 0 32 -77 21 -87 -3 -4 -6 1 -6 11 0 9 -4 15 -8 12 -5 -3 -8 8 -7 24 1
16 -2 27 -7 24 -4 -3 -8 0 -8 5 0 19 -18 12 -25 -9 -4 -11 -12 -18 -18 -14 -7
3 0 -5 16 -18 31 -27 36 -43 8 -28 -25 13 -41 13 -18 -1 9 -6 15 -14 12 -20
-3 -5 1 -6 9 -3 8 3 16 -2 19 -13 3 -11 5 -7 6 11 1 26 2 28 14 13 8 -11 20
-15 35 -11 20 6 22 11 17 38 -5 28 -5 29 8 14 8 -10 20 -18 28 -18 10 0 10 3
1 12 -19 19 -15 24 28 37 22 6 40 16 40 21 0 6 7 10 15 10 8 0 15 -7 15 -15 0
-18 -40 -97 -54 -107 -11 -7 21 -23 67 -32 18 -5 27 -13 27 -26 0 -31 -4 -33
194 88 5 3 6 0 2 -6 -4 -7 -50 -37 -102 -68 l-94 -55 -1 -92 c-1 -120 -7 -101
-11 33 l-3 104 -33 7 c-29 6 -32 4 -26 -13 9 -30 -14 -50 -50 -43 l-31 5 30
-14 c24 -11 26 -15 10 -15 -17 -1 -17 -3 -5 -11 11 -7 7 -10 -17 -10 -18 0
-33 -4 -33 -10 0 -5 7 -10 16 -10 9 0 12 -5 8 -12 -6 -10 -4 -10 7 0 26 24 37
14 29 -24 -10 -41 -39 -77 -47 -56 -3 6 -10 12 -16 12 -7 0 -32 18 -57 40 -49
44 -66 50 -50 21 13 -26 13 -31 -5 -31 -20 0 -19 -43 2 -105 l16 -48 24 29
c49 61 51 62 91 53 20 -5 42 -9 47 -9 6 0 2 -5 -8 -11 -10 -6 -25 -8 -33 -5
-9 3 -14 -1 -14 -11 0 -9 -3 -13 -7 -10 -9 9 -34 -13 -27 -24 3 -5 -6 -9 -20
-9 -13 0 -32 -7 -40 -15 -14 -14 -16 -13 -22 10 -3 14 -9 23 -12 20 -7 -6 -37
133 -52 235 -7 49 -6 81 5 126 14 62 11 109 -7 98 -13 -8 -28 15 -28 44 0 24
21 26 32 2 5 -11 7 -9 7 8 1 17 -5 22 -24 22 -21 0 -25 5 -25 30 0 23 4 30 20
30 11 0 20 -5 20 -11z m1675 -1 c2 -7 6 -35 10 -62 l7 -49 -29 6 c-28 5 -29 4
-25 -24 3 -18 0 -29 -8 -29 -7 0 -10 7 -6 15 4 13 2 13 -14 5 -10 -5 -22 -15
-26 -21 -12 -20 -24 13 -24 69 0 45 3 52 20 52 11 0 20 -4 20 -10 0 -5 -6 -10
-13 -10 -9 0 -12 -10 -9 -30 7 -48 29 -36 36 20 4 28 4 55 1 59 -3 5 1 12 7
14 24 10 49 7 53 -5z m110 2 c-3 -5 -12 -7 -20 -3 -21 7 -19 13 6 13 11 0 18
-4 14 -10z m504 -17 c-1 -16 -3 -21 -6 -11 -2 10 -10 15 -19 11 -8 -3 -14 1
-14 11 0 9 8 16 20 16 15 0 20 -6 19 -27z m151 18 c0 -6 -4 -13 -10 -16 -5 -3
-10 1 -10 9 0 9 5 16 10 16 6 0 10 -4 10 -9z m660 -4 c0 -5 -7 -7 -15 -3 -8 3
-15 1 -15 -5 0 -5 -11 -7 -25 -5 -20 4 -25 1 -25 -15 0 -10 7 -19 15 -19 8 0
15 5 15 11 0 5 5 7 11 3 8 -5 8 -8 0 -14 -7 -3 -14 -19 -17 -35 -3 -16 -7 -32
-10 -37 -3 -4 0 -8 6 -8 23 0 3 -24 -23 -27 -24 -3 -27 0 -26 24 0 24 1 25 8
8 l8 -20 6 20 c3 11 9 31 12 44 6 19 4 23 -9 18 -8 -3 -18 -2 -21 3 -4 6 -2
10 3 10 15 0 10 29 -7 36 -12 5 -8 9 14 14 45 9 95 8 95 -3z m695 -49 c-8 -74
-24 -142 -32 -135 -3 3 -1 28 5 54 6 26 14 69 17 96 9 70 18 57 10 -15z
m-5139 25 c3 -16 10 -41 14 -58 5 -16 12 -50 16 -75 7 -44 8 -44 15 -15 6 28
7 28 8 5 2 -34 11 -45 40 -46 23 -1 23 -1 16 85 -3 47 -9 96 -12 108 -4 17 -1
22 15 20 24 -1 23 6 57 -316 15 -135 24 -256 20 -270 -4 -20 -3 -22 5 -11 8
13 10 13 10 -2 0 -27 -37 -23 -43 5 -3 12 -11 72 -16 132 -6 61 -13 129 -17
153 l-5 43 -147 -5 c-81 -3 -202 -8 -268 -12 l-121 -7 -7 49 c-4 27 -9 57 -12
66 -7 25 45 37 58 14 5 -9 13 -14 19 -11 5 4 9 2 9 -3 0 -6 41 -10 93 -10 51
-1 97 -2 103 -3 31 -6 36 2 30 41 -4 25 -2 40 4 40 10 0 14 -21 11 -47 -1 -7
5 -13 14 -13 8 0 15 9 15 20 0 11 4 20 8 20 5 0 7 14 6 30 -1 17 3 30 9 31 7
0 2 4 -10 9 -27 11 -30 30 -5 31 16 1 16 2 -1 6 -28 7 -9 23 28 23 30 0 36 -4
41 -27z m40 -68 l3 -50 -14 55 c-8 30 -14 64 -14 75 0 39 21 -27 25 -80z
m1409 40 c4 -36 3 -46 -4 -35 -10 14 -16 98 -7 89 3 -3 8 -27 11 -54z m3006 4
c-5 -26 -9 -34 -10 -19 -1 27 9 73 15 67 2 -2 0 -23 -5 -48z m-3324 19 c-3 -8
-6 -5 -6 6 -1 11 2 17 5 13 3 -3 4 -12 1 -19z m1927 -10 c4 -17 2 -28 -4 -28
-5 0 -10 14 -10 32 0 36 4 35 14 -4z m187 -5 c2 -61 -2 -106 -11 -143 -7 -30
-8 -26 -9 32 l-1 68 -28 -6 c-27 -6 -29 -4 -30 27 0 19 -6 35 -11 37 -28 9 -6
22 39 22 l50 0 1 -37z m2309 33 c0 -2 -7 -7 -16 -10 -8 -3 -12 -2 -9 4 6 10
25 14 25 6z m-4344 -17 c4 -7 1 -10 -7 -7 -8 3 -19 -4 -26 -16 l-12 -21 -1 22
c0 28 32 44 46 22z m2755 6 c3 -2 0 -53 -7 -112 -7 -60 -13 -129 -14 -155 0
-27 -5 -48 -11 -48 -5 0 -8 -4 -4 -9 3 -5 1 -12 -5 -16 -5 -3 -10 -12 -10 -18
0 -7 4 -6 11 3 7 11 8 -1 3 -40 -3 -30 -10 -56 -15 -58 -5 -2 -9 -11 -9 -20 0
-15 2 -15 11 -2 8 12 9 10 5 -10 -3 -14 -6 -45 -7 -70 -1 -41 -2 -42 -9 -15
l-8 30 -1 -32 c0 -18 3 -33 9 -33 5 0 7 -7 4 -15 -4 -8 -12 -15 -20 -15 -10 0
-12 11 -7 48 3 26 5 58 5 72 0 14 4 52 9 85 18 111 38 410 28 413 -15 6 0 22
20 22 10 0 20 -2 22 -5z m1246 -17 c-3 -8 -6 -5 -6 6 -1 11 2 17 5 13 3 -3 4
-12 1 -19z m-5412 1 c-7 -11 -35 -12 -35 -1 0 4 9 8 20 9 11 1 18 -2 15 -8z
m4202 -36 c-3 -10 -5 -2 -5 17 0 19 2 27 5 18 2 -10 2 -26 0 -35z m240 10 c-3
-10 -5 -4 -5 12 0 17 2 24 5 18 2 -7 2 -21 0 -30z m816 7 c-7 -126 -21 -170
-54 -170 -16 0 -19 5 -15 28 2 15 5 32 5 39 1 6 10 15 22 18 18 6 20 13 17 61
-2 44 0 54 12 51 9 -1 14 -12 13 -27z m-3933 -11 c0 -10 -4 -21 -10 -24 -5 -3
-10 1 -10 9 0 9 -4 16 -9 16 -5 0 -11 6 -14 13 -4 10 2 13 19 9 15 -3 24 -11
24 -23z m148 24 c-10 -2 -26 -2 -35 0 -10 3 -2 5 17 5 19 0 27 -2 18 -5z
m3750 -48 c-2 -21 -7 -40 -13 -42 -6 -2 -9 17 -6 48 2 33 7 47 13 41 5 -5 8
-26 6 -47z m-5678 15 c0 10 3 10 15 0 8 -7 15 -17 15 -22 0 -14 -43 1 -57 20
-21 26 -15 37 7 12 11 -13 20 -17 20 -10z m1720 20 c0 -5 -8 -10 -17 -10 -15
0 -16 2 -3 10 19 12 20 12 20 0z m3251 -38 c-7 -13 -7 -22 1 -30 9 -9 9 -12 0
-12 -7 0 -12 -5 -12 -11 0 -5 5 -7 10 -4 6 3 10 2 10 -3 0 -5 -9 -12 -19 -15
-17 -4 -19 -1 -14 32 8 48 24 89 30 74 2 -7 0 -20 -6 -31z m1269 -6 c0 -26 -6
-18 -14 19 -5 22 -4 26 4 15 5 -8 10 -24 10 -34z m-4443 2 c-3 -8 -6 -5 -6 6
-1 11 2 17 5 13 3 -3 4 -12 1 -19z m138 12 c3 -5 1 -10 -4 -10 -6 0 -11 5 -11
10 0 6 2 10 4 10 3 0 8 -4 11 -10z m1577 -49 c-6 -3 -12 -20 -14 -36 -3 -26
-5 -23 -13 21 -10 49 -10 51 10 47 11 -2 14 0 6 3 -11 5 -11 8 0 15 10 6 15 2
17 -18 2 -14 -1 -29 -6 -32z m488 49 c0 -5 7 -7 15 -4 8 4 15 2 15 -3 0 -5
-13 -10 -30 -11 -28 -2 -38 7 -23 21 10 10 23 8 23 -3z m110 1 c0 -5 -7 -12
-16 -15 -14 -5 -15 -4 -4 9 14 17 20 19 20 6z m-2216 -13 c-4 -6 -3 -8 4 -5
12 8 42 -2 42 -14 0 -5 -9 -9 -20 -9 -11 0 -20 -4 -20 -10 0 -5 5 -10 10 -10
6 0 10 -5 10 -11 0 -5 -4 -7 -10 -4 -5 3 -18 1 -29 -5 -16 -8 -24 -6 -41 12
-25 27 -21 44 8 40 15 -2 20 1 17 10 -4 9 2 14 15 15 12 1 18 -2 14 -9z m335
-14 c-14 -18 -24 -11 -15 11 3 9 11 13 16 10 8 -5 7 -11 -1 -21z m1711 7 c0
-35 -13 -111 -19 -111 -3 0 -4 29 -3 65 2 36 8 65 13 65 5 0 9 -8 9 -19z
m-2293 -13 c-3 -8 -6 -5 -6 6 -1 11 2 17 5 13 3 -3 4 -12 1 -19z m1807 6 c3
-8 2 -12 -4 -9 -6 3 -10 1 -10 -4 0 -6 4 -11 8 -11 4 0 8 -31 9 -70 1 -51 -2
-70 -12 -70 -18 0 -29 83 -15 110 6 11 8 24 5 29 -5 8 3 41 10 41 2 0 6 -7 9
-16z m2143 -6 c-3 -8 -6 -5 -6 6 -1 11 2 17 5 13 3 -3 4 -12 1 -19z m480 -10
c-3 -8 -6 -5 -6 6 -1 11 2 17 5 13 3 -3 4 -12 1 -19z m-1899 -8 c-14 -22 -24
-19 -15 5 4 8 11 15 17 15 6 0 6 -7 -2 -20z m913 -65 c-6 -43 -9 -50 -10 -25
-1 41 12 122 16 100 2 -8 -1 -42 -6 -75z m-1271 45 c5 0 7 7 4 15 -4 9 0 15
10 15 12 0 16 -10 16 -36 0 -21 -4 -33 -10 -29 -6 4 -8 11 -5 16 4 5 -1 9 -10
9 -12 0 -15 -6 -10 -22 5 -18 4 -20 -4 -8 -6 8 -10 29 -10 45 1 17 3 22 6 13
2 -10 8 -18 13 -18z m168 -12 c-2 -24 -8 -43 -13 -43 -16 0 -18 67 -3 76 20
13 20 12 16 -33z m41 -5 c0 -35 -1 -36 -10 -14 -5 14 -7 31 -5 38 10 24 16 13
15 -24z m61 17 c0 -11 -4 -20 -8 -20 -4 0 -8 9 -9 20 -1 11 2 20 8 20 5 0 9
-9 9 -20z m-2283 -22 c-3 -7 -5 -2 -5 12 0 14 2 19 5 13 2 -7 2 -19 0 -25z
m2870 10 c-3 -8 -6 -5 -6 6 -1 11 2 17 5 13 3 -3 4 -12 1 -19z m770 -10 c-3
-7 -5 -2 -5 12 0 14 2 19 5 13 2 -7 2 -19 0 -25z m-2852 12 c-3 -5 -16 -15
-28 -21 -19 -9 -19 -8 3 10 28 23 34 26 25 11z m2562 -37 c-3 -10 -5 -2 -5 17
0 19 2 27 5 18 2 -10 2 -26 0 -35z m920 15 c-3 -8 -6 -5 -6 6 -1 11 2 17 5 13
3 -3 4 -12 1 -19z m-4517 -9 c0 -4 -7 -6 -15 -3 -8 4 -15 10 -15 15 0 4 7 6
15 3 8 -4 15 -10 15 -15z m1847 -16 c-3 -10 -5 -4 -5 12 0 17 2 24 5 18 2 -7
2 -21 0 -30z m183 28 c0 -5 -7 -11 -15 -15 -9 -3 -15 0 -15 9 0 8 7 15 15 15
8 0 15 -4 15 -9z m1420 -10 c-11 -21 -29 -36 -36 -29 -4 5 33 48 42 48 2 0 0
-9 -6 -19z m-3121 -6 c-3 -2 -59 -6 -124 -9 -72 -2 -102 -1 -75 3 50 9 206 14
199 6z m1751 -65 c0 -60 -8 -72 -29 -46 -10 11 -10 20 -1 36 7 12 10 33 7 46
-3 16 0 24 9 24 10 0 14 -16 14 -60z m31 3 c2 -29 0 -56 -4 -59 -4 -4 -7 21
-7 56 0 75 7 77 11 3z m-2311 37 c11 -7 1 -10 -35 -9 -37 0 -45 3 -30 9 27 12
47 12 65 0z m198 3 c-16 -2 -40 -2 -55 0 -16 2 -3 4 27 4 30 0 43 -2 28 -4z
m4559 -55 c-2 -13 -4 -5 -4 17 -1 22 1 32 4 23 2 -10 2 -28 0 -40z m-4304 25
c-7 -2 -19 -2 -25 0 -7 3 -2 5 12 5 14 0 19 -2 13 -5z m1766 -83 c13 -8 21
-92 8 -87 -19 6 -33 71 -28 127 l6 55 3 -45 c2 -24 7 -47 11 -50z m-1854 27
c5 -5 0 -5 -12 -2 -21 6 -28 -2 -24 -27 2 -13 -27 -9 -32 5 -3 6 -6 1 -6 -12
-1 -13 -4 -21 -8 -17 -10 10 -11 46 -1 46 4 0 8 12 8 28 0 21 2 24 10 12 9
-13 10 -13 11 0 0 10 3 8 9 -5 8 -18 9 -18 10 5 l1 25 12 -25 c6 -14 16 -29
22 -33z m43 17 c4 -29 18 -54 32 -54 4 0 5 18 3 40 l-5 40 28 -10 c15 -6 33
-9 39 -7 6 3 12 -4 12 -14 2 -17 0 -18 -25 -5 l-27 14 4 -44 c1 -24 6 -44 10
-44 3 0 5 -18 3 -40 -4 -40 12 -56 24 -25 4 10 10 12 18 6 6 -5 29 -6 53 -2
23 5 40 5 38 1 -3 -4 -34 -14 -70 -21 -62 -12 -65 -14 -65 -41 0 -15 -4 -28
-9 -28 -5 0 -7 19 -5 43 4 39 3 40 -7 15 -7 -19 -17 -28 -32 -27 -15 1 -17 3
-6 6 18 4 29 44 29 99 0 26 -4 32 -15 28 -9 -4 -15 0 -15 10 0 14 -12 20 -32
17 -5 0 -8 17 -8 40 0 48 23 50 28 3z m129 4 c-3 -7 -5 -2 -5 12 0 14 2 19 5
13 2 -7 2 -19 0 -25z m1946 25 c-7 -2 -19 -2 -25 0 -7 3 -2 5 12 5 14 0 19 -2
13 -5z m852 -75 c-5 -40 -10 -67 -13 -60 -5 17 8 145 15 138 3 -2 2 -38 -2
-78z m1052 60 c-3 -8 -6 -5 -6 6 -1 11 2 17 5 13 3 -3 4 -12 1 -19z m-4157 2
c0 -5 5 -10 11 -10 5 0 8 4 5 9 -4 5 2 8 11 7 25 -4 29 -27 7 -43 -12 -9 -13
-13 -4 -13 7 0 11 -3 8 -6 -4 -3 -9 -5 -13 -4 -4 1 -13 -7 -21 -17 -13 -17
-14 -17 -7 1 5 15 3 17 -7 11 -10 -6 -12 -4 -7 8 3 9 2 19 -3 22 -6 4 -10 11
-10 16 0 6 5 7 12 3 8 -5 9 -2 5 9 -3 10 -2 17 3 17 6 0 10 -4 10 -10z m3485
-55 c-4 -31 -10 -54 -12 -51 -3 3 -2 30 2 61 3 31 9 54 12 52 2 -3 1 -31 -2
-62z m-3530 26 c-3 -6 -11 -11 -16 -11 -5 0 -4 6 3 14 14 16 24 13 13 -3z
m1974 -13 c0 -27 -2 -29 -8 -13 -5 11 -6 26 -4 33 8 21 13 13 12 -20z m251 22
c0 -5 -7 -10 -15 -10 -8 0 -15 5 -15 10 0 6 7 10 15 10 8 0 15 -4 15 -10z
m1909 -76 c-22 -168 -19 -156 -43 -150 -11 3 -24 6 -28 6 -4 0 -5 6 -3 13 3 6
11 55 18 107 12 87 14 95 37 100 14 4 26 6 27 5 1 0 -2 -37 -8 -81z m-4585 34
c9 -54 17 -170 10 -143 -3 11 -7 31 -10 43 -3 17 -10 22 -21 18 -12 -5 -14 0
-11 29 2 19 0 35 -4 35 -4 0 -8 14 -8 30 0 23 5 30 19 30 14 0 20 -10 25 -42z
m-122 -5 l1 -38 4 38 c4 33 7 37 33 37 27 0 28 -2 35 -62 5 -44 13 -67 26 -76
18 -12 18 -13 -2 -33 -15 -15 -24 -18 -32 -10 -8 8 -7 11 5 11 9 0 20 5 23 10
4 7 -7 10 -32 8 -36 -3 -38 -2 -41 30 -2 17 -7 32 -13 32 -9 0 -13 -14 -10
-37 1 -7 -6 -13 -16 -13 -10 0 -14 -4 -8 -8 12 -9 16 -42 5 -42 -12 0 -19 30
-15 63 2 19 -1 27 -11 27 -9 0 -13 4 -10 8 3 5 1 22 -4 38 -9 30 -8 31 -15
-41 -4 -45 -4 -47 -15 -40 -6 3 -8 17 -6 30 3 13 1 25 -3 27 -4 2 -11 18 -14
36 l-7 33 40 -4 c23 -2 43 0 46 4 3 5 12 9 20 9 9 0 15 -12 16 -37z m228 5 c0
-5 -4 -8 -10 -8 -5 0 -10 10 -10 23 0 18 2 19 10 7 5 -8 10 -18 10 -22z m1087
10 c-3 -8 -6 -5 -6 6 -1 11 2 17 5 13 3 -3 4 -12 1 -19z m2450 -19 c1 -19 -1
-26 -3 -16 -3 9 -10 17 -15 17 -5 0 -9 9 -9 21 0 35 25 15 27 -22z m433 -91
c-7 -68 -16 -143 -20 -168 -14 -80 -11 5 5 145 8 72 15 136 15 144 0 8 3 12 6
8 3 -3 1 -61 -6 -129z m-3255 113 c3 -5 1 -12 -4 -15 -5 -3 -11 1 -15 9 -6 16
9 21 19 6z m4274 -64 c0 -15 -2 -17 -6 -7 -3 8 -14 31 -25 50 l-20 35 26 -28
c14 -15 26 -38 25 -50z m-5498 54 c-8 -5 -20 -7 -28 -4 -21 8 -15 13 15 13 20
0 23 -3 13 -9z m854 -1 c3 -5 -1 -10 -9 -10 -9 0 -16 5 -16 10 0 6 4 10 9 10
6 0 13 -4 16 -10z m182 -12 c-3 -8 -6 -5 -6 6 -1 11 2 17 5 13 3 -3 4 -12 1
-19z m-1182 -9 c5 -14 0 -28 -16 -45 -12 -13 -23 -32 -24 -42 0 -9 -4 -23 -9
-30 -4 -6 -3 -12 3 -12 5 0 13 5 16 10 3 6 12 10 18 10 7 0 4 -5 -7 -11 -15
-9 -16 -13 -5 -21 11 -8 10 -8 -4 -4 -10 3 -22 6 -26 6 -5 0 -13 30 -19 67
-10 59 -9 68 6 79 26 21 60 17 67 -7z m75 6 c-11 -13 -9 -19 9 -34 11 -10 21
-27 21 -37 0 -16 -2 -17 -11 -4 -8 12 -12 12 -16 2 -6 -16 -33 3 -33 24 0 8
-6 11 -15 8 -11 -5 -15 1 -15 25 0 29 2 31 36 31 31 0 35 -2 24 -15z m2815 5
c3 -5 1 -10 -4 -10 -6 0 -11 5 -11 10 0 6 2 10 4 10 3 0 8 -4 11 -10z m-2987
-33 c-1 -18 1 -38 5 -44 11 -18 -3 -43 -24 -43 -13 0 -19 7 -19 23 0 12 -3 39
-6 60 -6 35 -5 37 20 37 24 0 26 -3 24 -33z m1320 8 c-3 -3 -9 2 -12 12 -6 14
-5 15 5 6 7 -7 10 -15 7 -18z m2332 -7 c0 -23 -3 -29 -9 -19 -8 12 -4 51 5 51
2 0 4 -15 4 -32z m-2713 -15 c-3 -10 -5 -4 -5 12 0 17 2 24 5 18 2 -7 2 -21 0
-30z m173 17 c6 -11 8 -20 6 -20 -3 0 -10 9 -16 20 -6 11 -8 20 -6 20 3 0 10
-9 16 -20z m3475 10 c-3 -5 -10 -10 -16 -10 -5 0 -9 5 -9 10 0 6 7 10 16 10 8
0 12 -4 9 -10z m-4764 -22 c0 -13 2 -31 4 -40 2 -10 0 -18 -5 -18 -4 0 -10 18
-12 40 -2 22 0 40 4 40 5 0 8 -10 9 -22z m976 9 c7 0 14 -6 17 -14 9 -22 17
-199 9 -182 -7 14 -10 14 -27 -2 -19 -19 -19 -19 10 -20 25 0 26 -2 9 -9 -25
-11 -56 -12 -53 -2 1 4 -2 18 -5 32 -4 14 -11 66 -15 117 l-8 92 25 -6 c14 -3
31 -6 38 -6z m433 3 c0 -5 -2 -10 -4 -10 -3 0 -8 5 -11 10 -3 6 -1 10 4 10 6
0 11 -4 11 -10z m67 -12 c-3 -8 -6 -5 -6 6 -1 11 2 17 5 13 3 -3 4 -12 1 -19z
m3394 -15 c-9 -17 -10 -17 -17 1 -4 11 -2 21 7 27 18 11 24 -5 10 -28z m966 5
c-3 -7 -5 -2 -5 12 0 14 2 19 5 13 2 -7 2 -19 0 -25z m-5363 -10 c15 -74 22
-138 14 -138 -4 0 -8 17 -9 38 -1 20 -5 48 -10 62 -6 18 -7 9 -4 -30 l4 -55
-13 58 c-13 57 -12 97 4 97 4 0 11 -15 14 -32z m789 25 c-7 -2 -19 -2 -25 0
-7 3 -2 5 12 5 14 0 19 -2 13 -5z m2165 -14 c-10 -5 -18 -17 -18 -24 0 -8 -5
-15 -11 -15 -5 0 -7 -4 -4 -10 4 -6 71 -10 170 -10 157 0 163 -1 158 -20 -5
-18 -7 -18 -28 -4 -17 11 -25 12 -30 4 -4 -7 -18 -9 -31 -6 -13 4 -24 2 -24
-3 0 -6 -7 -8 -16 -4 -12 4 -13 8 -3 13 7 5 -28 7 -77 6 -62 -2 -105 3 -144
15 -30 9 -49 18 -42 18 6 1 12 7 12 15 0 8 7 17 16 20 22 9 24 8 18 -9 -8 -21
2 -19 26 5 11 11 26 20 33 20 6 0 4 -5 -5 -11z m366 5 c26 -10 18 -24 -14 -24
-30 0 -41 14 -17 23 6 3 13 6 14 6 1 1 8 -2 17 -5z m869 -24 c-3 -12 -8 -19
-11 -16 -5 6 5 36 12 36 2 0 2 -9 -1 -20z m122 -50 c-4 -34 -9 -59 -12 -56 -3
3 -2 32 2 66 4 34 9 59 12 56 3 -3 2 -32 -2 -66z m-4515 50 c0 -5 -5 -10 -11
-10 -5 0 -7 5 -4 10 3 6 8 10 11 10 2 0 4 -4 4 -10z m1034 2 c2 -4 -11 -8 -30
-9 -18 0 -31 3 -28 8 7 11 51 12 58 1z m-177 -49 c-3 -10 -5 -2 -5 17 0 19 2
27 5 18 2 -10 2 -26 0 -35z m283 43 c0 -3 -4 -8 -10 -11 -5 -3 -10 -1 -10 4 0
6 5 11 10 11 6 0 10 -2 10 -4z m100 0 c0 -2 -7 -6 -15 -10 -8 -3 -15 -1 -15 4
0 6 7 10 15 10 8 0 15 -2 15 -4z m900 -71 c-72 -72 -109 -103 -59 -49 53 58
120 124 127 124 3 0 -27 -34 -68 -75z m-1980 55 c18 -12 2 -12 -25 0 -13 6
-15 9 -5 9 8 0 22 -4 30 -9z m-151 -9 c9 -6 5 -8 -13 -8 -14 0 -26 3 -26 8 0
11 21 11 39 0z m3611 -6 c0 -8 -7 -15 -15 -15 -9 0 -12 6 -9 15 4 8 10 15 15
15 5 0 9 -7 9 -15z m-2427 -20 c-5 -16 -16 -19 -26 -9 -7 8 16 33 25 28 4 -3
5 -11 1 -19z m3187 15 c0 -5 -4 -10 -10 -10 -5 0 -10 5 -10 10 0 6 5 10 10 10
6 0 10 -4 10 -10z m1277 -12 c-3 -8 -6 -5 -6 6 -1 11 2 17 5 13 3 -3 4 -12 1
-19z m-4200 6 c-3 -3 -12 -4 -19 -1 -8 3 -5 6 6 6 11 1 17 -2 13 -5z m2093 -9
c0 -8 -9 -15 -20 -15 -20 0 -26 11 -13 23 12 13 33 7 33 -8z m437 -37 c-2 -13
-4 -5 -4 17 -1 22 1 32 4 23 2 -10 2 -28 0 -40z m603 -8 c0 -27 -4 -50 -10
-50 -5 0 -10 23 -10 50 0 28 5 50 10 50 6 0 10 -22 10 -50z m-4853 8 c-3 -7
-5 -2 -5 12 0 14 2 19 5 13 2 -7 2 -19 0 -25z m738 22 c3 -6 -1 -7 -9 -4 -18
7 -21 14 -7 14 6 0 13 -4 16 -10z m2742 4 c-3 -3 -12 -4 -19 -1 -8 3 -5 6 6 6
11 1 17 -2 13 -5z m-2318 -155 c12 0 11 -3 -4 -9 -11 -5 -74 -8 -140 -7 l-120
1 119 3 118 4 -5 82 -5 82 10 -77 c9 -60 15 -78 27 -79z m89 120 c-6 -4 -9
-13 -6 -20 3 -8 2 -23 -3 -34 -7 -18 -8 -17 -7 5 0 14 -3 38 -7 53 -7 27 -7
28 13 16 14 -9 17 -16 10 -20z m412 6 c0 -11 -12 -15 -47 -14 -35 0 -42 3 -28
8 11 5 25 6 31 4 7 -2 15 0 19 6 9 16 25 13 25 -4z m-1027 -1 c-7 -3 -10 -11
-7 -18 3 -7 -1 -13 -9 -13 -7 0 -14 9 -14 19 -1 12 5 18 20 17 12 0 17 -3 10
-5z m147 2 c0 -3 -4 -8 -10 -11 -5 -3 -10 -1 -10 4 0 6 5 11 10 11 6 0 10 -2
10 -4z m56 -37 c1 -26 1 -28 -3 -6 -2 15 -9 27 -14 27 -5 0 -9 5 -9 11 0 6 6
9 13 7 6 -3 13 -20 13 -39z m694 29 c0 -4 -9 -8 -20 -8 -11 0 -20 4 -20 8 0 4
9 8 20 8 11 0 20 -4 20 -8z m4387 -40 c-2 -13 -4 -5 -4 17 -1 22 1 32 4 23 2
-10 2 -28 0 -40z m-5097 11 c0 -4 -7 -6 -15 -3 -8 4 -15 10 -15 15 0 4 7 6 15
3 8 -4 15 -10 15 -15z m3005 -1 c46 -21 31 -38 -27 -31 -62 7 -60 6 -52 27 7
19 42 21 79 4z m932 -35 c-3 -10 -5 -2 -5 17 0 19 2 27 5 18 2 -10 2 -26 0
-35z m-3235 -33 c6 0 8 -9 5 -19 -4 -17 1 -21 32 -24 20 -2 -18 -4 -84 -4 -66
0 -100 2 -75 4 24 3 48 10 52 16 6 9 8 9 8 0 0 -7 5 -13 10 -13 6 0 10 9 10
20 0 11 5 20 10 20 6 0 11 17 12 38 l1 37 4 -37 c2 -21 9 -38 15 -38z m2722
55 c-4 -8 -8 -15 -10 -15 -2 0 -4 7 -4 15 0 8 4 15 10 15 5 0 7 -7 4 -15z
m-3959 -5 c-3 -5 -14 -10 -23 -10 -15 0 -15 2 -2 10 20 13 33 13 25 0z m228
-51 c29 -2 -51 -18 -83 -17 -18 0 -15 2 10 7 31 5 36 10 40 41 l4 35 4 -32 c2
-26 8 -33 25 -34z m1065 6 c0 -16 -2 -15 -8 5 -11 34 -11 60 0 35 5 -11 8 -29
8 -40z m4307 -35 c12 -21 1 -11 -34 34 -17 21 -31 43 -31 49 0 9 45 -48 65
-83z m-5418 48 c-3 -7 -5 -2 -5 12 0 14 2 19 5 13 2 -7 2 -19 0 -25z m276 7
c-3 -9 -8 -14 -10 -11 -3 3 -2 9 2 15 9 16 15 13 8 -4z m1347 1 c0 -7 -7 -19
-15 -26 -12 -10 -15 -9 -15 7 0 11 3 23 7 26 11 12 23 8 23 -7z m171 -16 c-13
-11 -28 -20 -35 -20 -6 0 3 9 19 19 39 25 46 25 16 1z m2346 -12 c-3 -7 -5 -2
-5 12 0 14 2 19 5 13 2 -7 2 -19 0 -25z m-4340 0 c-3 -8 -6 -5 -6 6 -1 11 2
17 5 13 3 -3 4 -12 1 -19z m1068 12 c-11 -4 -40 -11 -64 -15 -37 -6 -42 -5
-31 6 7 8 35 15 64 15 33 1 44 -1 31 -6z m3504 -47 c-8 -21 -7 -24 6 -19 8 3
15 1 15 -4 0 -6 -11 -10 -25 -10 -18 0 -25 5 -25 20 0 11 5 20 11 20 7 0 9 11
6 27 -5 25 -4 26 8 9 10 -13 11 -25 4 -43z m-4822 25 c-3 -8 -6 -5 -6 6 -1 11
2 17 5 13 3 -3 4 -12 1 -19z m845 -3 l5 -25 -129 0 c-115 0 -129 2 -126 17 4
22 28 29 28 9 0 -14 16 -16 101 -16 96 0 101 1 96 20 -3 12 0 20 8 20 7 0 15
-11 17 -25z m211 18 c-7 -2 -21 -2 -30 0 -10 3 -4 5 12 5 17 0 24 -2 18 -5z
m372 -13 c-33 -7 -54 -1 -35 10 6 4 23 4 38 1 l27 -5 -30 -6z m557 -4 c4 -21
-4 -30 -56 -64 -34 -22 -63 -38 -65 -36 -4 4 102 123 110 124 4 0 9 -11 11
-24z m-212 -22 c0 -8 -7 -14 -15 -14 -10 0 -15 10 -15 26 0 22 2 25 15 14 8
-7 15 -19 15 -26z m2957 4 c-3 -7 -5 -2 -5 12 0 14 2 19 5 13 2 -7 2 -19 0
-25z m-3934 15 c-13 -2 -35 -2 -50 0 -16 2 -5 4 22 4 28 0 40 -2 28 -4z m570
0 c-7 -2 -19 -2 -25 0 -7 3 -2 5 12 5 14 0 19 -2 13 -5z m887 -3 c0 -5 -2 -10
-4 -10 -3 0 -8 5 -11 10 -3 6 -1 10 4 10 6 0 11 -4 11 -10z m-1905 -10 c-16
-4 -46 -8 -65 -7 l-35 0 40 7 c22 4 51 7 65 7 22 1 22 0 -5 -7z m955 0 c-8 -5
-28 -9 -45 -9 l-30 1 30 8 c17 4 37 8 45 9 13 1 13 0 0 -9z m-1095 -21 c-51
-10 -92 -10 -50 1 17 4 44 8 60 8 25 0 24 -2 -10 -9z m360 -36 c3 -27 7 -55 8
-63 2 -10 16 -16 47 -18 25 -2 48 -9 52 -15 6 -9 8 -9 8 1 0 10 72 11 357 7
196 -3 358 -6 360 -8 4 -5 -244 -73 -335 -92 -59 -12 -151 -15 -465 -14 -228
0 -384 4 -372 9 11 5 36 9 55 9 39 1 82 21 45 21 -11 0 -60 -7 -110 -15 -49
-8 -114 -15 -142 -15 -52 0 -53 1 -53 29 0 16 -3 43 -6 60 l-6 31 226 0 226 0
2 33 1 32 4 -32 c2 -18 8 -33 13 -33 5 0 8 6 6 13 -11 33 -15 77 -7 73 5 -3
11 -24 15 -46 4 -28 11 -40 22 -40 14 0 16 8 10 54 -6 52 -2 62 26 65 4 1 10
-20 13 -46z m-490 16 c-51 -10 -92 -10 -50 1 17 4 44 8 60 8 25 0 24 -2 -10
-9z m4185 -10 c0 -11 -4 -17 -10 -14 -6 3 -7 -1 -4 -9 4 -11 0 -16 -11 -16
-12 0 -15 5 -9 23 6 18 21 36 32 37 1 0 2 -9 2 -21z m-3300 2 c0 -5 -9 -7 -20
-4 -11 3 -20 7 -20 9 0 2 9 4 20 4 11 0 20 -4 20 -9z m360 -11 c0 -5 -8 -10
-17 -10 -15 0 -16 2 -3 10 19 12 20 12 20 0z m50 2 c0 -5 -7 -9 -15 -9 -8 0
-15 4 -15 9 0 4 7 8 15 8 8 0 15 -4 15 -8z m2837 -14 c-3 -8 -6 -5 -6 6 -1 11
2 17 5 13 3 -3 4 -12 1 -19z m508 -38 c-4 -28 -9 -49 -12 -47 -2 3 -1 28 3 56
4 28 9 50 11 47 3 -3 2 -28 -2 -56z m-4442 34 c-3 -9 -9 -11 -12 -6 -3 5 -13
12 -21 15 -9 3 -4 6 12 6 21 1 26 -3 21 -15z m-70 -1 c-7 -2 -21 -2 -30 0 -10
3 -4 5 12 5 17 0 24 -2 18 -5z m137 -18 c7 -9 10 -19 6 -22 -4 -4 -11 -1 -15
6 -7 11 -9 11 -14 0 -3 -8 -4 -4 -4 9 1 26 10 28 27 7z m1562 -12 c-3 -16 -7
-22 -10 -15 -4 13 4 42 11 42 2 0 2 -12 -1 -27z m2671 -48 c-4 -11 -6 -31 -5
-45 l2 -25 -10 24 c-6 13 -7 46 -3 75 6 48 7 49 15 21 4 -16 5 -39 1 -50z
m-3056 43 c-3 -8 -6 -5 -6 6 -1 11 2 17 5 13 3 -3 4 -12 1 -19z m637 14 c3 -5
-1 -9 -9 -9 -8 0 -12 4 -9 9 3 4 7 8 9 8 2 0 6 -4 9 -8z m-584 -12 c0 -5 -7
-7 -15 -4 -8 4 -15 8 -15 10 0 2 7 4 15 4 8 0 15 -4 15 -10z m127 -1 c-9 -6
-31 -8 -48 -5 -52 8 -45 16 12 16 42 -1 50 -3 36 -11z m-717 -6 c0 -5 -14 -9
-30 -10 -18 -1 -28 2 -25 7 7 12 55 14 55 3z m3617 -60 c-3 -10 -5 -4 -5 12 0
17 2 24 5 18 2 -7 2 -21 0 -30z m231 5 c-2 -27 -8 -34 -29 -36 -30 -4 -49 25
-23 35 8 3 13 12 10 19 -4 10 3 14 20 14 22 0 25 -4 22 -32z m-2384 16 c29
-11 12 -64 -20 -64 -16 0 -24 46 -11 59 13 13 11 13 31 5z m-311 -34 c-6 -23
-36 -35 -59 -22 -15 8 -12 11 14 17 18 3 34 11 37 16 10 15 13 10 8 -11z m257
-22 c0 -5 -6 -8 -14 -8 -9 0 -12 7 -9 21 4 16 8 17 14 7 5 -7 9 -16 9 -20z
m-122 4 c2 -7 -3 -12 -12 -12 -9 0 -16 7 -16 16 0 17 22 14 28 -4z m62 3 c0
-18 -16 -20 -23 -2 -3 6 -6 3 -6 -8 0 -11 4 -27 9 -35 8 -12 10 -12 10 5 1 32
17 -2 24 -50 l6 -40 -14 35 c-8 19 -15 28 -16 20 -2 -16 -38 56 -39 78 -1 6
10 12 24 12 16 0 25 -6 25 -15z m1927 9 c-3 -3 -12 -4 -19 -1 -8 3 -5 6 6 6
11 1 17 -2 13 -5z m434 -64 c-6 -30 -9 -36 -10 -19 -1 33 12 99 16 79 2 -8 -1
-35 -6 -60z m-121 20 c5 0 10 6 10 14 0 8 4 18 10 21 6 4 7 -2 1 -17 -4 -13
-15 -23 -22 -23 -8 0 -17 -15 -20 -35 -5 -28 -6 -23 -7 25 -1 45 2 54 8 38 5
-13 14 -23 20 -23z m-4572 -77 c-2 -18 1 -35 7 -37 5 -2 3 -5 -5 -5 -25 -1
-43 16 -37 34 4 9 11 13 17 10 6 -4 10 6 10 24 0 16 -5 31 -11 33 -8 3 -9 12
-4 28 8 23 9 22 17 -15 5 -22 8 -55 6 -72z m4302 101 c0 -8 -19 -13 -24 -6 -3
5 1 9 9 9 8 0 15 -2 15 -3z m1005 -46 c-3 -40 -5 -43 -35 -46 -27 -3 -32 -1
-26 13 3 9 6 30 6 46 0 25 4 29 29 29 28 0 29 -2 26 -42z m-3968 -10 c-2 21 1
32 10 32 16 0 16 -2 -1 -64 l-13 -49 -11 46 c-16 61 -14 80 4 37 l14 -35 -3
33z m63 -18 c0 -43 -3 -50 -20 -50 -14 0 -20 7 -20 23 0 18 2 19 10 7 5 -8 10
-10 10 -5 0 6 3 21 5 35 5 22 4 22 -4 5 -9 -18 -10 -17 -10 8 -1 18 4 27 14
27 11 0 15 -12 15 -50z m17 -27 c-2 -16 -4 -3 -4 27 0 30 2 43 4 28 2 -16 2
-40 0 -55z m78 67 c-3 -5 -12 -10 -20 -10 -7 0 -15 -3 -18 -7 -2 -5 -2 -3 -1
4 2 6 -2 14 -9 17 -7 2 3 5 21 5 20 1 31 -3 27 -9z m301 1 c-6 -9 -273 -7
-283 3 -4 3 60 6 141 6 81 0 145 -4 142 -9z m94 -2 c0 -5 -8 -9 -17 -7 -10 1
-23 -1 -29 -5 -7 -4 -17 0 -24 8 -11 13 -7 15 29 15 22 0 41 -5 41 -11z m27
-41 c-2 -13 -4 -5 -4 17 -1 22 1 32 4 23 2 -10 2 -28 0 -40z m20 0 c-2 -13 -4
-5 -4 17 -1 22 1 32 4 23 2 -10 2 -28 0 -40z m34 -26 c-9 -15 -10 -15 -9 3 1
11 -1 34 -5 50 l-6 30 15 -33 c10 -23 11 -38 5 -50z m43 62 c11 -28 6 -38 -9
-18 -8 10 -15 14 -15 7 0 -20 47 -66 53 -51 4 10 6 11 6 0 1 -7 -6 -15 -14
-18 -10 -4 -13 -15 -10 -33 3 -14 -3 -3 -13 24 -11 28 -24 62 -30 78 -10 24
-9 27 7 27 10 0 22 -7 25 -16z m116 6 c0 -5 -15 -10 -34 -10 -19 0 -37 -6 -39
-12 -3 -7 -6 -3 -6 10 -1 19 4 22 39 22 22 0 40 -4 40 -10z m169 -32 c14 -39
14 -38 -4 -32 -8 4 -15 1 -15 -5 0 -6 8 -11 18 -11 14 0 42 -35 42 -53 0 -8
-76 7 -81 15 -3 5 -7 36 -8 68 -1 53 0 58 18 53 11 -3 25 -19 30 -35z m95 26
c3 -9 6 -25 6 -37 0 -18 -2 -19 -10 -7 -7 11 -9 7 -7 -17 1 -17 5 -29 8 -27 8
4 20 -38 14 -44 -3 -3 -11 1 -20 8 -11 9 -15 29 -13 76 3 63 10 79 22 48z
m-1141 -11 c2 -10 5 -31 5 -48 1 -25 -1 -26 -7 -10 -16 39 -21 75 -12 75 5 0
12 -8 14 -17z m784 -15 c-3 -7 -5 -2 -5 12 0 14 2 19 5 13 2 -7 2 -19 0 -25z
m427 23 c3 -4 8 -34 12 -65 7 -55 6 -56 -18 -56 -22 0 -26 5 -32 46 -10 73 -8
84 13 84 11 0 22 -4 25 -9z m-1251 -79 c-30 -4 -31 -3 -39 35 -5 25 -3 32 12
35 14 3 23 -6 35 -31 16 -36 16 -36 -8 -39z m241 36 c8 -6 8 -8 -1 -8 -6 0
-14 -8 -16 -17 -3 -10 -5 2 -5 27 0 25 3 36 5 25 3 -11 10 -23 17 -27z m778
-80 c-5 -5 -13 12 -19 37 -6 25 -6 45 -2 45 5 0 10 10 10 23 1 12 5 -5 10 -38
5 -32 5 -63 1 -67z m-102 92 c0 -11 -4 -20 -8 -20 -4 0 -8 9 -8 20 0 11 4 20
8 20 4 0 8 -9 8 -20z m-843 -12 c-3 -8 -6 -5 -6 6 -1 11 2 17 5 13 3 -3 4 -12
1 -19z m523 12 c0 -5 -2 -10 -4 -10 -3 0 -8 5 -11 10 -3 6 -1 10 4 10 6 0 11
-4 11 -10z m-1387 -7 c-23 -2 -64 -2 -90 0 -26 2 -7 3 42 3 50 0 71 -1 48 -3z
m64 -30 c-3 -10 -5 -4 -5 12 0 17 2 24 5 18 2 -7 2 -21 0 -30z m70 31 c-3 -3
-12 -4 -19 -1 -8 3 -5 6 6 6 11 1 17 -2 13 -5z m575 -19 c6 -28 -16 -36 -26
-9 -9 24 -7 34 8 34 7 0 16 -11 18 -25z m28 -13 c0 -7 -4 -10 -10 -7 -5 3 -10
16 -10 28 0 18 2 19 10 7 5 -8 10 -21 10 -28z m940 17 c0 -11 -4 -17 -10 -14
-5 3 -10 1 -10 -4 0 -14 6 -14 31 -1 17 10 19 7 18 -27 -1 -38 -1 -38 -9 -8
-8 30 -8 30 -9 3 -1 -21 -5 -25 -21 -21 -13 3 -20 14 -20 28 0 13 -3 31 -6 39
-5 12 -2 15 10 10 9 -3 16 -1 16 5 0 6 2 11 5 11 3 0 5 -9 5 -21z m2937 -16
c-3 -10 -5 -4 -5 12 0 17 2 24 5 18 2 -7 2 -21 0 -30z m-3557 7 c0 -11 -4 -20
-9 -20 -5 0 -7 9 -4 20 3 11 7 20 9 20 2 0 4 -9 4 -20z m1262 3 c10 -9 18 -28
17 -42 l0 -26 -10 25 c-6 13 -17 33 -26 42 -20 23 -6 24 19 1z m3245 -5 c-3
-8 -6 -5 -6 6 -1 11 2 17 5 13 3 -3 4 -12 1 -19z m-6107 -2 c0 -8 -4 -18 -10
-21 -5 -3 -10 3 -10 14 0 12 5 21 10 21 6 0 10 -6 10 -14z m654 -21 c5 -22 4
-26 -4 -15 -5 8 -10 24 -10 34 0 26 6 18 14 -19z m326 -10 c-11 -13 -41 -15
-40 -2 0 4 0 12 0 18 0 6 7 9 15 5 10 -3 15 1 15 12 1 16 1 15 11 -1 8 -13 7
-22 -1 -32z m143 38 c-7 -2 -21 -2 -30 0 -10 3 -4 5 12 5 17 0 24 -2 18 -5z
m1190 -38 c5 -28 4 -34 -3 -20 -8 19 -14 73 -6 64 2 -2 6 -22 9 -44z m-2353
22 c0 -13 -39 -37 -59 -37 -5 0 -11 9 -14 19 -4 17 1 21 32 24 20 2 37 4 39 5
1 1 2 -4 2 -11z m4843 -24 c4 -19 2 -33 -3 -33 -6 0 -10 17 -10 37 0 43 5 41
13 -4z m87 33 c0 -2 -7 -6 -15 -10 -8 -3 -15 -1 -15 4 0 6 7 10 15 10 8 0 15
-2 15 -4z m-3252 -24 c-3 -30 4 -102 11 -102 5 0 11 17 15 38 8 48 15 57 49
66 23 5 27 3 27 -14 0 -11 5 -20 11 -20 6 0 8 9 4 23 -4 13 -3 17 2 10 6 -8
14 -9 23 -3 8 6 49 10 91 10 61 0 78 -3 83 -16 12 -32 6 -42 -31 -47 -21 -3
-54 -9 -73 -14 -34 -9 -34 -9 25 -16 33 -3 84 -4 113 0 43 4 52 3 52 -11 0
-10 -6 -13 -15 -10 -8 4 -15 1 -15 -6 0 -9 -4 -9 -17 1 -15 13 -15 11 -9 -24
4 -21 9 -46 12 -55 2 -9 -2 -5 -9 11 -7 15 -17 24 -22 20 -4 -5 -5 -3 -1 4 4
7 -1 11 -13 10 -15 -1 -18 -7 -14 -29 l4 -28 -123 -1 c-68 0 -139 -2 -159 -4
-31 -3 -38 0 -43 18 -9 34 -7 67 4 67 10 0 6 82 -6 122 -4 13 -1 16 10 12 8
-3 15 -9 14 -12z m32 14 c0 -3 -4 -8 -10 -11 -5 -3 -10 -1 -10 4 0 6 5 11 10
11 6 0 10 -2 10 -4z m305 -6 c-4 -6 6 -7 25 -4 26 6 30 4 30 -15 0 -17 -6 -21
-29 -21 -17 0 -31 6 -35 16 -6 15 0 34 10 34 3 0 2 -4 -1 -10z m3445 0 c0 -5
-17 -10 -37 -10 -28 0 -34 3 -23 10 20 13 60 13 60 0z m-4510 -15 c0 -9 -6
-12 -15 -9 -8 4 -15 10 -15 15 0 5 7 9 15 9 8 0 15 -7 15 -15z m1194 3 c6 6
25 -15 26 -28 0 -4 -16 -4 -35 -2 -26 3 -35 9 -35 23 0 16 3 18 19 10 10 -6
21 -7 25 -3z m73 -10 c-3 -8 -6 -5 -6 6 -1 11 2 17 5 13 3 -3 4 -12 1 -19z
m117 5 c8 -20 -15 -37 -26 -20 -12 19 -9 37 6 37 8 0 17 -8 20 -17z m183 -5
c-3 -8 -6 -5 -6 6 -1 11 2 17 5 13 3 -3 4 -12 1 -19z m3618 -25 c-4 -27 -8
-82 -8 -123 -1 -71 -3 -76 -30 -93 -26 -16 -37 -17 -108 -6 -44 6 -82 9 -85 6
-3 -2 -7 -22 -9 -43 -10 -102 -51 -368 -64 -409 -15 -49 -12 -19 15 165 41
286 42 294 30 302 -12 8 117 2 168 -7 28 -6 34 -3 44 20 7 14 12 37 12 51 0
14 4 44 9 67 6 23 13 59 16 80 3 20 8 37 12 37 3 0 2 -21 -2 -47z m-1305 -40
c0 -21 -3 -24 -9 -14 -5 8 -7 20 -4 28 8 21 13 15 13 -14z m-4696 8 c3 -5 -8
-11 -24 -13 -35 -5 -41 8 -7 15 12 2 23 5 24 6 1 0 4 -3 7 -8z m5841 -10 c3
-5 0 -13 -6 -17 -7 -4 -9 -3 -5 4 3 5 0 13 -6 15 -9 4 -10 6 -1 6 6 1 14 -3
18 -8z m-5275 -11 l155 -6 -130 -1 c-71 0 -193 3 -270 6 l-140 8 115 0 c63 0
185 -3 270 -7z m1490 -6 c0 -11 -6 -14 -20 -9 -15 5 -20 2 -21 -12 -1 -17 -2
-17 -6 0 -2 10 -12 16 -20 15 -9 -2 -18 3 -20 10 -3 8 9 12 41 12 35 0 46 -4
46 -16z m39 -33 c6 -19 9 -36 7 -38 -2 -2 -11 17 -20 44 -9 26 -12 43 -7 38 4
-6 13 -25 20 -44z m28 27 c-3 -8 -6 -5 -6 6 -1 11 2 17 5 13 3 -3 4 -12 1 -19z
m20 0 c-3 -8 -6 -5 -6 6 -1 11 2 17 5 13 3 -3 4 -12 1 -19z m82 -23 c0 -5 -4
-3 -9 5 -5 8 -9 22 -9 30 0 16 17 -16 18 -35z m3597 10 c12 -9 14 -14 6 -15
-7 0 -20 7 -28 15 -20 19 -4 20 22 0z m-3889 -27 c-3 -8 -6 -5 -6 6 -1 11 2
17 5 13 3 -3 4 -12 1 -19z m50 -40 c-2 -13 -4 -3 -4 22 0 25 2 35 4 23 2 -13
2 -33 0 -45z m93 30 c0 -19 -16 -5 -17 14 -2 18 0 20 7 8 5 -8 10 -18 10 -22z
m-2090 -8 c0 -25 -4 -30 -25 -30 -14 0 -25 5 -25 11 0 6 9 8 20 4 16 -5 20 -2
20 19 0 14 2 26 5 26 3 0 5 -13 5 -30z m1959 -34 c-9 -8 -10 -7 -5 7 3 10 7
28 7 40 2 16 3 14 6 -7 3 -16 -1 -34 -8 -40z m-1721 47 c-10 -2 -26 -2 -35 0
-10 3 -2 5 17 5 19 0 27 -2 18 -5z m85 -10 c-7 -2 -21 -2 -30 0 -10 3 -4 5 12
5 17 0 24 -2 18 -5z m1847 -20 c-1 -24 -2 -26 -11 -10 -5 9 -7 22 -4 27 10 17
15 11 15 -17z m70 -6 c0 -5 -4 -5 -10 -2 -5 3 -10 14 -10 23 0 15 2 15 10 2 5
-8 10 -19 10 -23z m37 -4 c-3 -10 -5 -4 -5 12 0 17 2 24 5 18 2 -7 2 -21 0
-30z m3194 15 c-11 -26 -130 -318 -186 -453 -20 -49 -50 -118 -66 -153 -16
-35 -29 -67 -29 -71 0 -6 -24 -65 -90 -219 -17 -39 -26 -50 -31 -39 -5 9 -3
26 5 43 8 16 53 124 101 239 47 116 95 229 106 252 10 24 19 45 19 48 0 6 137
330 152 358 13 26 29 21 19 -5z m-4924 5 c-20 -2 -52 -2 -70 0 -17 2 0 4 38 4
39 0 53 -2 32 -4z m401 0 c-10 -2 -26 -2 -35 0 -10 3 -2 5 17 5 19 0 27 -2 18
-5z m989 -15 c-3 -8 -6 -5 -6 6 -1 11 2 17 5 13 3 -3 4 -12 1 -19z m166 -8 c3
-11 1 -18 -4 -14 -5 3 -9 12 -9 20 0 20 7 17 13 -6z m94 -2 c-3 -8 -6 -5 -6 6
-1 11 2 17 5 13 3 -3 4 -12 1 -19z m-2232 -8 c19 -8 19 -9 -2 -9 -12 -1 -28
-8 -36 -16 -13 -12 -15 -12 -20 5 -3 12 1 21 12 23 23 7 24 6 46 -3z m-182
-68 l14 -62 -43 0 c-42 0 -44 2 -43 28 1 16 3 20 6 10 3 -11 14 -18 30 -18 25
0 26 1 20 56 -7 70 -3 66 16 -14z m312 48 c-44 -4 -84 -3 -89 1 -6 5 29 8 80
7 l89 -1 -80 -7z m153 3 c-10 -2 -28 -2 -40 0 -13 2 -5 4 17 4 22 1 32 -1 23
-4z m-271 -9 c-3 -3 -12 -4 -19 -1 -8 3 -5 6 6 6 11 1 17 -2 13 -5z m1716 -46
c78 -2 166 -3 195 -3 52 0 53 0 64 -38 9 -29 9 -40 -1 -50 -11 -10 -12 -7 -6
13 5 19 4 21 -4 10 -7 -10 -31 -15 -78 -17 -37 -1 -75 -3 -83 -3 -8 -1 -70 1
-137 5 -88 5 -123 4 -123 -4 0 -6 9 -11 19 -11 11 0 23 -5 27 -11 4 -8 0 -9
-15 -4 -11 3 -21 2 -21 -3 0 -5 9 -12 21 -15 11 -3 23 -15 26 -27 6 -22 1 -22
191 -20 24 1 50 -4 57 -10 22 -19 123 -2 140 23 13 19 15 18 27 -26 7 -26 18
-47 25 -47 16 0 17 -15 3 -40 -8 -15 -6 -21 7 -28 15 -9 14 -11 -3 -20 -30
-16 -121 -30 -136 -21 -10 6 -8 12 7 23 24 18 10 20 -34 5 -21 -7 -30 -16 -27
-25 4 -10 -4 -14 -27 -14 -18 0 -66 -2 -107 -5 -41 -2 -89 -1 -106 1 -32 6
-34 12 -70 219 -2 11 -9 41 -15 68 -12 52 -7 77 16 77 9 0 16 10 16 28 l2 27
4 -27 4 -28 142 -2z m-1816 26 c-3 -3 -12 -4 -19 -1 -8 3 -5 6 6 6 11 1 17 -2
13 -5z m132 -29 c17 -5 22 -4 16 5 -5 9 -1 10 16 5 23 -7 45 -27 52 -48 1 -5
41 -13 87 -17 l85 -7 -70 -2 c-123 -2 -297 11 -286 22 7 7 7 17 -1 30 -19 35
16 40 101 12z m-175 -47 c-3 -4 -9 -8 -15 -8 -11 0 -12 53 -2 64 9 9 25 -43
17 -56z m56 26 c0 -28 -3 -35 -17 -32 -12 2 -19 14 -21 36 -3 27 0 32 17 32
17 0 21 -6 21 -36z m2099 -39 l0 -40 -15 40 c-16 43 -11 82 6 55 6 -8 9 -33 9
-55z m62 51 c70 4 88 -5 109 -53 24 -55 24 -50 3 -50 -67 0 -76 -3 -62 -19 11
-13 9 -14 -15 -8 -19 5 -31 2 -37 -7 -7 -11 -9 -11 -9 2 0 9 16 24 35 33 19 9
35 18 35 20 0 1 -19 2 -42 1 -39 -2 -43 -4 -41 -26 2 -18 0 -20 -6 -9 -10 18
-23 139 -13 124 4 -5 23 -9 43 -8z m3451 -28 c-6 -6 -7 0 -4 19 5 21 7 23 10
9 2 -10 0 -22 -6 -28z m-5379 25 c-7 -2 -19 -2 -25 0 -7 3 -2 5 12 5 14 0 19
-2 13 -5z m-366 -9 c-3 -3 -12 -4 -19 -1 -8 3 -5 6 6 6 11 1 17 -2 13 -5z
m2618 -10 c15 -4 16 -3 6 4 -9 6 9 9 53 8 l66 -1 -1 -70 c0 -50 -3 -64 -9 -48
-6 16 -24 25 -65 34 -36 8 -51 15 -43 21 9 5 4 8 -14 8 -16 0 -28 -4 -28 -10
0 -5 -12 -10 -27 -9 l-28 1 25 9 c16 5 1 6 -44 3 -74 -6 -86 0 -86 44 0 24 0
24 88 17 48 -4 96 -9 107 -11z m-884 -54 c1 17 28 -106 28 -130 0 -8 -13 23
-29 70 -31 90 -37 125 -15 75 8 -16 15 -23 16 -15z m-1143 23 c-10 -2 -28 -2
-40 0 -13 2 -5 4 17 4 22 1 32 -1 23 -4z m5168 -64 c8 -8 17 -37 20 -62 6 -43
5 -47 -14 -47 -28 0 -52 10 -52 22 0 6 14 8 30 6 17 -3 30 -1 30 4 0 4 -11 8
-25 8 -20 0 -25 5 -25 26 0 27 20 24 20 -4 1 -15 2 -15 11 1 8 14 7 23 -5 36
-9 10 -15 33 -15 52 2 34 2 34 6 4 3 -16 11 -37 19 -46z m-4103 -30 c15 -50
26 -93 23 -96 -2 -2 -7 6 -11 19 -4 13 -18 51 -31 85 -25 65 -29 83 -16 83 4
0 20 -41 35 -91z m-473 29 c12 -48 49 -184 56 -209 4 -13 -4 -14 -53 -8 -32 4
-66 10 -77 14 -11 5 -21 3 -27 -6 -13 -22 -26 0 -32 56 -4 33 -1 56 8 68 12
17 11 35 -10 105 -7 21 -5 22 58 22 l66 0 11 -42z m86 34 c6 -4 17 -47 23 -97
7 -49 14 -106 17 -125 5 -32 3 -35 -21 -35 -19 0 -27 7 -34 30 -14 43 -61 222
-61 229 0 8 63 7 76 -2z m363 -90 c17 -46 29 -87 26 -92 -4 -6 -2 -10 3 -10 5
0 16 -17 24 -38 l15 -38 -49 -1 c-29 0 -51 4 -53 11 -7 20 -10 265 -4 258 4
-4 21 -44 38 -90z m100 -22 c0 -18 -28 53 -33 85 -5 32 -3 28 14 -20 11 -33
20 -62 19 -65z m-399 68 c0 -24 2 -88 5 -143 5 -121 -1 -105 -24 60 -17 120
-17 125 1 125 15 0 18 -8 18 -42z m122 -83 c26 -66 48 -123 48 -127 0 -5 -31
-8 -69 -8 l-69 0 -6 88 c-4 48 -9 106 -12 130 l-5 43 33 -3 c32 -3 34 -6 80
-123z m18 114 c0 -5 5 -7 12 -3 8 5 9 2 4 -11 -7 -20 11 -85 24 -85 5 0 13 7
18 15 5 10 11 -16 18 -78 8 -83 7 -93 -7 -90 -8 3 -31 44 -51 96 -20 51 -44
109 -52 130 l-16 37 25 0 c14 0 25 -5 25 -11z m99 -101 l-1 -113 -13 105 c-13
105 -12 120 6 120 5 0 9 -48 8 -112z m925 91 c-7 -12 -51 -12 -58 0 -4 5 -1
11 6 13 19 7 58 -3 52 -13z m-800 -84 c6 -37 4 -35 -14 15 -23 64 -25 86 -5
50 7 -14 16 -43 19 -65z m3986 30 c0 -47 -3 -55 -19 -55 -19 0 -19 10 4 88 11
35 15 26 15 -33z m-3399 -29 c6 -6 9 -6 9 1 0 6 8 10 18 8 9 -2 37 -4 62 -5
l45 -3 -45 -8 c-25 -5 -58 -10 -75 -12 -28 -2 -30 1 -32 33 -1 19 1 26 4 15 3
-11 9 -24 14 -29z m3559 -18 c0 -10 -7 -18 -16 -18 -11 0 -15 6 -11 20 3 11 1
18 -4 14 -5 -3 -9 5 -9 17 0 21 1 22 20 4 11 -10 20 -26 20 -37z m-5470 12
c-122 -11 -161 -12 -200 -9 -52 4 89 15 195 16 l90 0 -85 -7z m2237 -6 c-3 -3
-12 -4 -19 -1 -8 3 -5 6 6 6 11 1 17 -2 13 -5z m2683 -4 c29 -5 4 -6 -70 -3
-63 3 -117 7 -119 9 -8 7 144 2 189 -6z m588 -8 c6 -18 -15 -14 -22 4 -4 10
-1 14 6 12 6 -2 14 -10 16 -16z m-3155 1 c-7 -2 -19 -2 -25 0 -7 3 -2 5 12 5
14 0 19 -2 13 -5z m2715 0 c-10 -2 -28 -2 -40 0 -13 2 -5 4 17 4 22 1 32 -1
23 -4z m-2940 -31 c41 -9 71 -27 61 -35 -4 -4 -141 9 -197 18 -23 4 -32 3 -27
-4 3 -6 27 -11 53 -11 39 0 43 -2 29 -12 -15 -11 -9 -12 33 -10 41 3 50 1 50
-12 0 -9 5 -16 10 -16 6 0 10 8 10 18 0 14 4 13 19 -7 15 -19 21 -22 37 -13
17 10 17 11 2 12 -10 0 -18 6 -18 14 0 10 16 17 45 22 43 6 63 24 28 24 -10 0
-24 4 -32 9 -10 6 12 10 64 13 l78 3 -7 -92 -6 -92 32 -37 c23 -27 27 -36 14
-31 -12 5 -17 3 -13 -5 7 -20 -11 -58 -27 -58 -8 0 -18 -9 -21 -21 -5 -14 -12
-18 -23 -14 -9 3 -13 3 -10 -1 4 -3 -3 -23 -16 -43 -13 -20 -26 -46 -30 -58
-4 -11 -13 -27 -21 -33 -8 -7 -15 -20 -15 -29 0 -21 -115 -181 -177 -245 -26
-28 -56 -62 -65 -76 -33 -49 -176 -192 -189 -188 -8 3 1 19 28 49 138 151 181
209 257 348 31 57 56 105 56 107 0 8 93 133 125 168 52 58 85 131 85 188 0 47
-1 48 -30 48 -16 0 -30 -4 -30 -10 0 -5 -7 -10 -15 -10 -8 0 -14 -6 -12 -12 1
-8 -6 -12 -18 -9 -11 2 -34 4 -51 5 -34 1 -102 51 -81 59 27 12 -39 6 -71 -5
-29 -11 -36 -10 -46 4 -7 9 -24 20 -39 23 -15 4 -24 11 -21 16 3 5 2 15 -3 22
-22 35 -14 39 70 34 45 -3 101 -10 125 -15z m-791 -14 c-3 -8 -6 -5 -6 6 -1
11 2 17 5 13 3 -3 4 -12 1 -19z m55 -60 c15 -30 16 -38 4 -38 -8 0 -18 18 -25
44 -11 46 -14 72 -4 46 3 -8 14 -32 25 -52z m568 -8 c0 -5 -5 -10 -11 -10 -5
0 -7 5 -4 10 3 6 8 10 11 10 2 0 4 -4 4 -10z m-1752 -41 c-3 -8 -7 -3 -11 10
-4 17 -3 21 5 13 5 -5 8 -16 6 -23z m2112 -8 c0 -6 -4 -13 -10 -16 -5 -3 -10
1 -10 9 0 9 5 16 10 16 6 0 10 -4 10 -9z m463 -39 c-3 -12 -9 -22 -14 -22 -5
0 -6 -13 -2 -30 3 -19 1 -30 -5 -30 -6 0 -9 -6 -6 -14 3 -7 -2 -16 -12 -20
-14 -5 -15 -2 -9 21 3 16 10 29 15 31 4 2 6 11 3 22 -3 10 3 30 14 43 21 29
24 29 16 -1z m-2194 -73 c-8 -5 -16 -3 -21 4 -14 22 -8 28 13 16 17 -9 19 -13
8 -20z m4981 -19 c-4 -25 -10 -66 -14 -92 -5 -47 -5 -48 22 -49 24 -1 23 -2
-8 -8 -19 -4 -36 -6 -38 -5 -4 2 26 170 34 193 9 28 12 5 4 -39z m-4953 18
c-3 -8 -6 -5 -6 6 -1 11 2 17 5 13 3 -3 4 -12 1 -19z m-73 -4 c9 -24 2 -26
-12 -4 -7 11 -8 20 -3 20 5 0 12 -7 15 -16z m-44 -12 c0 -4 -10 -9 -22 -9 -18
-2 -20 0 -8 7 18 12 30 13 30 2z m-80 -53 c13 -9 12 -10 -2 -5 -10 3 -18 1
-18 -5 0 -6 -4 -8 -9 -4 -5 3 -12 -3 -14 -12 -4 -14 -5 -13 -6 4 -1 18 9 30
29 32 3 0 12 -4 20 -10z m-80 -23 c0 -2 -7 -7 -16 -10 -8 -3 -12 -2 -9 4 6 10
25 14 25 6z m-120 -46 c-8 -5 -25 -10 -37 -10 -20 0 -21 -3 -12 -23 14 -31 88
-32 99 -2 7 20 13 -8 25 -122 4 -35 3 -42 -4 -28 -5 11 -10 14 -10 7 -1 -10
-6 -9 -18 4 -11 11 -18 13 -21 5 -8 -23 -21 -9 -41 45 -12 31 -28 69 -37 86
-19 36 -8 48 41 48 23 0 27 -3 15 -10z m5598 3 c-10 -2 -26 -2 -35 0 -10 3 -2
5 17 5 19 0 27 -2 18 -5z m-70 -10 c-10 -2 -28 -2 -40 0 -13 2 -5 4 17 4 22 1
32 -1 23 -4z m-80 -10 c-10 -2 -26 -2 -35 0 -10 3 -2 5 17 5 19 0 27 -2 18 -5z
m-149 -17 c-2 -2 -17 -6 -34 -10 -22 -5 -26 -4 -15 4 14 9 59 15 49 6z m331
-18 c0 -3 8 -9 18 -11 9 -3 1 -5 -19 -6 -20 0 -51 4 -68 10 -24 8 -39 8 -56 1
-20 -9 -23 -9 -18 4 4 12 20 15 74 12 38 -2 69 -6 69 -10z m-5426 -28 c13 0
37 -5 54 -11 22 -7 36 -7 51 1 18 9 21 8 21 -10 0 -14 -7 -20 -22 -21 -14 0
-17 -2 -8 -6 8 -2 25 -9 37 -15 12 -6 29 -8 37 -5 9 4 16 1 16 -5 0 -7 6 -4
13 7 8 10 16 14 19 9 14 -25 16 -44 6 -50 -6 -4 -8 -3 -5 3 4 6 1 13 -7 16 -8
3 -19 -5 -26 -19 -11 -19 -21 -24 -49 -23 -34 2 -34 2 -6 6 31 5 55 19 55 34
0 4 -12 4 -27 0 -16 -5 -56 -7 -90 -6 -35 1 -63 -1 -63 -5 0 -3 -9 -6 -20 -7
-14 -1 -20 5 -21 20 -1 17 -3 15 -9 -8 -6 -25 -8 -20 -9 28 -1 34 4 63 12 71
6 8 14 10 15 5 2 -5 14 -9 26 -9z m-86 1 c9 -5 12 -24 10 -54 -4 -60 -23 -50
-33 16 -7 46 -2 55 23 38z m350 -66 c0 -5 -6 4 -13 20 -8 17 -14 37 -14 45 0
8 7 -1 14 -20 7 -19 13 -39 13 -45z m4687 65 c-3 -5 -12 -10 -18 -10 -7 0 -6
4 3 10 19 12 23 12 15 0z m-4751 -26 c3 -8 2 -12 -4 -9 -6 3 -10 10 -10 16 0
14 7 11 14 -7z m109 -2 c3 7 4 0 2 -17 -5 -49 -5 -51 -16 -32 -6 10 -8 21 -5
24 3 3 1 15 -5 27 -9 20 -9 20 4 3 11 -14 16 -15 20 -5z m5030 11 c-7 -2 -21
-2 -30 0 -10 3 -4 5 12 5 17 0 24 -2 18 -5z m-462 -53 c10 -31 10 -46 0 -67
-10 -22 -9 -29 4 -42 15 -15 16 -14 9 2 -4 11 -1 17 9 17 19 0 17 -33 -3 -41
-8 -4 -18 -1 -22 5 -5 7 -8 5 -8 -5 0 -9 18 -35 40 -57 22 -22 40 -41 40 -44
0 -2 -9 -4 -21 -5 -14 -1 -19 3 -15 13 3 8 1 14 -4 14 -6 0 -10 -10 -10 -22 0
-19 -2 -20 -10 -8 -6 9 -10 10 -10 3 0 -21 12 -43 21 -37 5 3 9 0 9 -5 0 -6
-7 -11 -15 -11 -8 0 -15 5 -15 10 0 6 -9 10 -20 10 -26 0 -60 55 -60 95 0 23
3 26 10 15 8 -13 12 -12 30 6 19 19 19 22 5 51 -23 45 -29 123 -10 123 8 0 15
5 15 10 0 26 20 6 31 -30z m113 25 c-10 -8 -23 -14 -29 -14 -5 0 -1 6 9 14 11
8 24 15 30 15 5 0 1 -7 -10 -15z m-4437 -27 c-3 -7 -5 -2 -5 12 0 14 2 19 5
13 2 -7 2 -19 0 -25z m4674 -9 c-9 -25 -8 -34 1 -41 9 -5 8 -8 -5 -8 -10 0
-15 -5 -12 -10 4 -6 1 -9 -7 -8 -8 2 -14 -8 -16 -24 -2 -16 -8 -28 -13 -28
-12 0 -3 35 16 65 6 11 18 37 24 58 7 21 15 36 18 33 3 -3 0 -20 -6 -37z
m-4599 16 c21 0 17 -15 -5 -15 -18 0 -27 5 -27 16 0 10 4 12 13 7 6 -4 15 -8
19 -8z m4383 5 c-3 -5 -11 -10 -16 -10 -6 0 -7 5 -4 10 3 6 11 10 16 10 6 0 7
-4 4 -10z m-4625 -4 c0 -11 -19 -15 -25 -6 -3 5 1 10 9 10 9 0 16 -2 16 -4z
m4391 -29 c-10 -9 -11 -8 -5 6 3 10 9 15 12 12 3 -3 0 -11 -7 -18z m516 -34
c-3 -10 -5 -2 -5 17 0 19 2 27 5 18 2 -10 2 -26 0 -35z m-4910 11 c-3 -3 -12
-4 -19 -1 -8 3 -5 6 6 6 11 1 17 -2 13 -5z m4411 -17 c11 5 13 3 6 -8 -4 -8
-8 -25 -6 -39 1 -14 -1 -19 -5 -10 -3 8 -12 29 -21 45 -9 19 -10 26 -2 18 7
-6 19 -9 28 -6z m442 -31 c0 -2 -7 -9 -15 -16 -13 -11 -14 -10 -9 4 5 14 24
23 24 12z m-3765 -46 c3 -5 1 -10 -4 -10 -6 0 -11 5 -11 10 0 6 2 10 4 10 3 0
8 -4 11 -10z m3435 -10 c0 -5 -2 -10 -4 -10 -3 0 -8 5 -11 10 -3 6 -1 10 4 10
6 0 11 -4 11 -10z m105 -22 c14 -6 25 -17 25 -25 0 -7 5 -13 10 -13 6 0 5 -6
-2 -14 -14 -15 -32 -11 -22 6 4 6 -1 8 -15 3 -15 -5 -23 -1 -28 12 -4 10 -14
23 -22 30 -14 11 -13 12 6 13 12 0 34 -5 48 -12z m-41 -95 c5 -11 2 -14 -10
-9 -8 3 -20 6 -25 6 -18 0 -9 16 10 17 11 1 22 -5 25 -14z m147 0 c28 -31 59
-53 74 -53 15 0 12 -9 -21 -58 -1 -2 -11 1 -21 8 -15 10 -15 11 -1 6 12 -3 15
-1 11 10 -3 7 -11 14 -18 14 -16 0 -30 -33 -16 -38 6 -2 11 -8 11 -13 0 -5
-18 2 -40 16 -22 14 -48 26 -57 26 -10 1 7 5 37 10 66 11 80 23 51 41 -11 7
-21 18 -21 25 0 6 -6 14 -12 16 -7 3 -8 6 -3 6 6 1 18 -7 26 -16z m-2074 -56
c8 0 9 -6 2 -18 -10 -20 -38 -15 -52 8 -4 7 -13 13 -19 13 -7 0 -6 -6 2 -15
15 -19 9 -28 -14 -19 -17 6 -21 25 -9 38 4 3 23 4 42 0 20 -3 41 -6 48 -7z
m-590 -35 c9 -6 1 -19 -26 -47 -21 -22 -46 -55 -55 -72 -9 -18 -21 -33 -26
-33 -6 0 -10 -9 -10 -19 0 -23 -20 -32 -52 -24 -26 7 -56 33 -38 33 6 0 10 6
7 13 -2 6 -1 22 4 33 6 18 5 21 -12 17 -10 -3 -19 -1 -19 5 0 5 16 13 36 17
30 5 39 13 53 46 16 38 16 39 71 39 30 0 60 -4 67 -8z m783 -12 c0 -5 -15 -10
-32 -9 -28 0 -30 2 -13 9 28 12 45 12 45 0z m-1983 -86 c-3 -3 -12 -4 -19 -1
-8 3 -5 6 6 6 11 1 17 -2 13 -5z m953 -1 c-8 -2 -21 -7 -29 -9 -12 -4 -12 -7
1 -17 22 -18 30 -47 13 -47 -7 0 -17 5 -20 10 -3 6 -12 10 -18 10 -7 0 -4 -5
6 -11 28 -16 20 -38 -20 -54 -20 -9 -51 -26 -69 -40 -17 -13 -73 -35 -126 -48
-52 -14 -124 -36 -159 -50 -83 -33 -123 -40 -165 -33 l-34 7 15 29 c14 27 14
29 -2 23 -9 -4 -24 -14 -32 -22 -9 -9 -47 -32 -85 -51 -38 -19 -88 -52 -112
-73 -48 -42 -52 -41 -29 3 9 17 28 33 50 40 43 14 65 35 65 61 0 29 -65 26
-112 -6 -32 -22 -53 -29 -144 -52 -12 -3 -34 3 -48 12 -14 10 -35 15 -47 12
-15 -4 -23 0 -26 13 -3 10 -12 21 -20 24 -7 3 -12 2 -9 -3 4 -5 -3 -7 -14 -4
-29 8 -25 16 24 42 l44 24 -12 35 c-7 20 -19 36 -27 38 -34 5 -45 10 -61 28
-32 34 -15 66 34 66 30 0 38 -14 13 -24 -21 -8 -19 -26 4 -26 12 0 23 -9 27
-22 6 -20 9 -16 20 26 12 48 26 66 52 66 16 0 15 -17 -1 -27 -8 -4 -19 -30
-25 -58 -5 -27 -13 -60 -17 -71 -5 -17 1 -27 27 -48 33 -25 37 -25 94 -15 32
6 69 13 81 15 12 2 29 11 37 20 9 8 20 13 25 9 6 -3 29 -1 53 4 24 5 79 15
123 21 138 21 274 50 326 70 57 23 63 24 54 10 -3 -6 1 -7 9 -4 9 3 16 10 16
15 0 5 5 9 12 9 14 0 177 57 198 70 8 5 24 9 35 9 13 -1 15 -2 5 -6z m-1185
-154 c-7 -10 -31 -21 -75 -33 -18 -5 -14 0 15 18 41 27 71 34 60 15z m-149
-64 c-21 -16 -25 -73 -7 -85 7 -4 9 -19 5 -38 -6 -28 -8 -30 -19 -16 -6 10
-17 14 -23 10 -13 -8 -15 5 -12 64 1 34 39 80 65 80 6 -1 1 -7 -9 -15z m-206
-75 c11 -7 5 -8 -20 -4 -43 8 -51 14 -19 14 13 0 31 -5 39 -10z m2927 -102
c-3 -7 -5 -2 -5 12 0 14 2 19 5 13 2 -7 2 -19 0 -25z m-2717 -25 c0 -20 -3
-24 -9 -14 -7 10 -9 7 -8 -11 2 -18 7 -24 20 -20 9 2 17 -1 17 -7 0 -7 5 -9
10 -6 6 4 10 -9 10 -31 l0 -38 -45 44 c-50 49 -52 56 -29 88 21 30 34 28 34
-5z m520 16 c0 -6 -5 -19 -10 -30 -14 -24 -42 -26 -33 -1 13 35 43 58 43 31z
m-414 -34 c8 -21 -6 -41 -17 -24 -12 19 -11 39 1 39 6 0 13 -7 16 -15z m-296
-35 c-8 -5 -19 -10 -25 -10 -5 0 -3 5 5 10 8 5 20 10 25 10 6 0 3 -5 -5 -10z
m1380 -17 c-1 -5 -12 -21 -26 -38 -26 -30 -23 -21 6 23 16 23 20 27 20 15z
m-2850 -53 c0 -5 -7 -10 -15 -10 -8 0 -15 5 -15 10 0 6 7 10 15 10 8 0 15 -4
15 -10z m1805 -51 c10 -31 0 -33 -28 -5 l-26 26 24 0 c15 0 26 -7 30 -21z
m657 -501 c-7 -7 -12 -8 -12 -2 0 6 3 14 7 17 3 4 9 5 12 2 2 -3 -1 -11 -7
-17z m-2 -55 c-1 -9 -65 -40 -110 -53 -17 -5 -28 -5 -25 0 3 5 19 11 35 15 17
4 30 11 30 16 0 5 9 9 20 9 11 0 20 5 20 10 0 6 7 10 15 10 8 0 15 -3 15 -7z
m70 -99 c8 -8 8 -14 0 -19 -5 -3 -12 0 -14 7 -24 76 -24 76 -25 26 -1 -27 -5
-48 -10 -48 -9 0 -6 44 6 100 5 23 6 23 19 -14 8 -21 19 -45 24 -52z m-74 14
c-9 -35 -17 -43 -36 -45 -21 -1 -22 -1 -3 3 15 4 24 15 29 37 7 33 12 47 19
47 2 0 -2 -19 -9 -42z m-67 -24 c-7 -27 -19 -55 -26 -62 -17 -17 -17 -1 0 17
10 11 9 13 -4 8 -13 -4 -15 0 -11 21 4 22 6 24 12 8 5 -14 9 -9 19 24 17 57
25 44 10 -16z m-59 -19 c-9 -31 -16 -42 -21 -33 -6 10 -9 9 -13 -2 -13 -42
-15 -41 -11 5 2 28 4 55 5 60 0 6 7 -1 16 -15 15 -25 15 -25 8 -1 -4 15 -1 27
7 32 21 13 23 3 9 -46z m-63 -8 c-12 -46 -27 -54 -27 -15 0 18 29 72 36 65 2
-1 -2 -24 -9 -50z m-497 39 c0 -3 -4 -8 -10 -11 -5 -3 -10 -1 -10 4 0 6 5 11
10 11 6 0 10 -2 10 -4z m445 -26 c-39 -31 -66 -41 -43 -15 7 8 19 21 26 30 7
8 22 15 34 15 17 0 15 -5 -17 -30z m-221 -25 c-15 -16 -23 -32 -20 -41 3 -9 3
-21 -1 -27 -4 -7 -10 -2 -14 13 -6 22 -7 21 -8 -10 -1 -59 9 -78 58 -108 42
-26 92 -41 181 -57 19 -4 43 -9 54 -12 32 -9 -2 -21 -48 -17 -36 3 -38 2 -11
-5 24 -7 26 -9 8 -10 -12 0 -25 -6 -29 -12 -4 -8 -9 -8 -17 0 -6 6 -21 11 -34
11 -13 0 -31 4 -41 9 -9 5 -34 17 -56 27 -102 50 -129 186 -46 242 44 29 55
28 24 -3z m1983 9 c-3 -3 -12 -4 -19 -1 -8 3 -5 6 6 6 11 1 17 -2 13 -5z m-37
-24 c0 -11 -2 -20 -4 -20 -2 0 -6 9 -9 20 -3 11 -1 20 4 20 5 0 9 -9 9 -20z
m-1355 -20 c3 -5 1 -10 -4 -10 -6 0 -11 5 -11 10 0 6 2 10 4 10 3 0 8 -4 11
-10z m1372 -112 c-2 -24 -4 -7 -4 37 0 44 2 63 4 43 2 -21 2 -57 0 -80z m40
-25 c-3 -10 -5 -4 -5 12 0 17 2 24 5 18 2 -7 2 -21 0 -30z m-1524 -50 c-7 -2
-21 -2 -30 0 -10 3 -4 5 12 5 17 0 24 -2 18 -5z m236 -29 c2 -10 8 -25 13 -31
8 -10 3 -13 -21 -13 -17 0 -31 5 -31 11 0 6 -10 9 -23 7 -17 -3 -23 0 -23 13
0 11 7 16 17 14 10 -2 20 3 23 10 7 19 40 11 45 -11z m1891 -88 c0 -52 -6 -43
-13 18 -3 30 -1 43 4 35 5 -8 9 -32 9 -53z m-638 -516 c3 -118 1 -195 -3 -170
-7 43 -11 416 -4 395 2 -5 5 -107 7 -225z m15 183 c-3 -10 -5 -2 -5 17 0 19 2
27 5 18 2 -10 2 -26 0 -35z m-2670 -19 c-3 -3 -12 -4 -19 -1 -8 3 -5 6 6 6 11
1 17 -2 13 -5z m2670 -46 c-3 -7 -5 -2 -5 12 0 14 2 19 5 13 2 -7 2 -19 0 -25z
m-1407 -318 c0 -5 -4 -10 -10 -10 -5 0 -10 5 -10 10 0 6 5 10 10 10 6 0 10 -4
10 -10z m1190 -90 c0 -5 -4 -10 -10 -10 -5 0 -10 5 -10 10 0 6 5 10 10 10 6 0
10 -4 10 -10z m-1515 -40 c-3 -5 -12 -10 -18 -10 -7 0 -6 4 3 10 19 12 23 12
15 0z"/>
<path d="M1544 6270 c1 -27 3 -45 4 -40 2 6 7 8 12 5 7 -4 -6 75 -14 82 -1 2
-2 -20 -2 -47z"/>
<path d="M1450 6121 c0 -6 5 -13 10 -16 6 -3 10 1 10 9 0 9 -4 16 -10 16 -5 0
-10 -4 -10 -9z"/>
<path d="M1466 6058 c-8 -33 -7 -48 4 -48 5 0 7 6 4 14 -3 8 -1 24 6 35 6 12
7 21 2 21 -6 0 -12 -10 -16 -22z"/>
<path d="M4845 6171 c3 -5 -3 -12 -12 -14 -11 -3 -6 -5 11 -6 24 -1 27 1 16
14 -14 16 -25 21 -15 6z"/>
<path d="M470 5753 c0 -5 7 -17 15 -27 15 -20 20 -10 9 18 -6 16 -24 22 -24 9z"/>
<path d="M874 5370 c4 -19 11 -78 16 -130 12 -115 29 -223 36 -230 3 -3 48 -5
100 -5 78 -1 94 2 94 15 0 8 -7 85 -17 171 l-17 157 -30 17 c-17 10 -28 15
-24 10 7 -7 -14 -35 -27 -35 -4 0 -5 9 -2 20 5 21 7 20 -85 23 -18 0 -37 5
-41 11 -5 6 -6 -5 -3 -24z m124 -155 c-3 -3 -9 2 -12 12 -6 14 -5 15 5 6 7 -7
10 -15 7 -18z m62 -75 c0 -5 -8 -10 -17 -10 -15 0 -16 2 -3 10 19 12 20 12 20
0z"/>
<path d="M3718 6063 c7 -3 16 -2 19 1 4 3 -2 6 -13 5 -11 0 -14 -3 -6 -6z"/>
<path d="M1731 5984 c0 -11 3 -14 6 -6 3 7 2 16 -1 19 -3 4 -6 -2 -5 -13z"/>
<path d="M1900 5890 c-18 -12 -2 -12 25 0 13 6 15 9 5 9 -8 0 -22 -4 -30 -9z"/>
<path d="M2000 5850 c0 -5 5 -10 10 -10 6 0 10 5 10 10 0 6 -4 10 -10 10 -5 0
-10 -4 -10 -10z"/>
<path d="M1500 5660 c-12 -7 -10 -9 7 -7 12 0 19 5 17 9 -6 10 -6 10 -24 -2z"/>
<path d="M1559 5443 c0 -5 -2 -17 -4 -28 -2 -11 -2 -30 2 -43 4 -17 12 -22 33
-20 16 1 26 6 24 10 -3 5 -9 6 -14 3 -5 -3 -11 -1 -15 5 -3 5 1 10 9 10 9 0
16 7 16 15 0 19 -9 19 -31 -1 -17 -15 -18 -14 -12 20 3 20 3 36 -1 36 -3 0 -6
-3 -7 -7z"/>
<path d="M1580 5430 c0 -5 7 -10 15 -10 8 0 15 5 15 10 0 6 -7 10 -15 10 -8 0
-15 -4 -15 -10z"/>
<path d="M4030 5315 c0 -9 6 -12 15 -9 8 4 15 10 15 15 0 5 -7 9 -15 9 -8 0
-15 -7 -15 -15z"/>
<path d="M3660 5294 c0 -8 5 -12 10 -9 6 4 8 11 5 16 -9 14 -15 11 -15 -7z"/>
<path d="M3960 5300 c0 -5 5 -10 11 -10 5 0 7 5 4 10 -3 6 -8 10 -11 10 -2 0
-4 -4 -4 -10z"/>
<path d="M1904 5309 c-4 -7 -3 -9 4 -5 5 3 13 0 15 -6 4 -9 6 -10 6 -1 1 17
-16 25 -25 12z"/>
<path d="M4090 5188 c0 -36 4 -35 14 5 4 16 2 27 -4 27 -5 0 -10 -14 -10 -32z"/>
<path d="M2080 4994 c0 -2 9 -8 20 -14 11 -6 20 -7 20 -2 0 6 -9 12 -20 15
-11 3 -20 3 -20 1z"/>
<path d="M2104 4951 c11 -12 29 -21 40 -21 17 0 18 -2 6 -10 -8 -5 -10 -10 -5
-10 6 0 16 4 22 8 9 5 -3 16 -35 31 -46 23 -46 23 -28 2z"/>
<path d="M2140 4960 c8 -5 20 -10 25 -10 6 0 3 5 -5 10 -8 5 -19 10 -25 10 -5
0 -3 -5 5 -10z"/>
<path d="M2180 4901 c0 -10 19 -25 25 -20 1 2 -3 10 -11 17 -8 7 -14 8 -14 3z"/>
<path d="M637 5063 c-14 -13 -6 -33 12 -33 14 0 19 6 18 20 -1 20 -17 27 -30
13z"/>
<path d="M665 4985 c22 -16 95 -20 95 -5 0 6 -3 9 -7 9 -5 -1 -10 -1 -13 0 -3
1 -25 4 -50 7 -41 4 -43 3 -25 -11z"/>
<path d="M777 4978 c-7 -5 1 -8 21 -8 17 0 32 4 32 9 0 11 -35 10 -53 -1z"/>
<path d="M613 4963 c9 -2 25 -2 35 0 9 3 1 5 -18 5 -19 0 -27 -2 -17 -5z"/>
<path d="M338 4953 c6 -2 18 -2 25 0 6 3 1 5 -13 5 -14 0 -19 -2 -12 -5z"/>
<path d="M5752 5170 c0 -14 2 -19 5 -12 2 6 2 18 0 25 -3 6 -5 1 -5 -13z"/>
<path d="M5722 5045 c0 -16 2 -22 5 -12 2 9 2 23 0 30 -3 6 -5 -1 -5 -18z"/>
<path d="M1900 5086 c0 -2 7 -7 16 -10 8 -3 12 -2 9 4 -6 10 -25 14 -25 6z"/>
<path d="M5701 4894 c0 -11 3 -14 6 -6 3 7 2 16 -1 19 -3 4 -6 -2 -5 -13z"/>
<path d="M5684 4817 c-2 -7 0 -24 5 -38 9 -21 10 -20 8 13 -2 41 -5 46 -13 25z"/>
<path d="M650 4820 c0 -5 5 -10 11 -10 5 0 7 5 4 10 -3 6 -8 10 -11 10 -2 0
-4 -4 -4 -10z"/>
<path d="M1302 4790 c0 -14 2 -19 5 -12 2 6 2 18 0 25 -3 6 -5 1 -5 -13z"/>
<path d="M1255 4790 c-3 -5 -1 -10 4 -10 6 0 11 5 11 10 0 6 -2 10 -4 10 -3 0
-8 -4 -11 -10z"/>
<path d="M1281 4694 c0 -11 3 -14 6 -6 3 7 2 16 -1 19 -3 4 -6 -2 -5 -13z"/>
<path d="M4108 4663 c12 -2 30 -2 40 0 9 3 -1 5 -23 4 -22 0 -30 -2 -17 -4z"/>
<path d="M940 4420 c-26 -16 -4 -20 36 -6 38 14 38 15 9 15 -16 0 -37 -3 -45
-9z"/>
<path d="M1117 4413 c-4 -3 -35 -9 -69 -13 -50 -5 -37 -7 65 -7 122 -1 161 8
96 21 -41 8 -84 8 -92 -1z"/>
<path d="M1268 4413 c12 -2 30 -2 40 0 9 3 -1 5 -23 4 -22 0 -30 -2 -17 -4z"/>
<path d="M833 4396 c-56 -15 -69 -30 -18 -22 58 10 75 16 75 27 0 10 -1 10
-57 -5z"/>
<path d="M708 4363 c7 -3 16 -2 19 1 4 3 -2 6 -13 5 -11 0 -14 -3 -6 -6z"/>
<path d="M1428 4353 c6 -2 18 -2 25 0 6 3 1 5 -13 5 -14 0 -19 -2 -12 -5z"/>
<path d="M2786 4258 c3 -4 9 -8 15 -8 5 0 9 4 9 8 0 5 -7 9 -15 9 -8 0 -12 -4
-9 -9z"/>
<path d="M1540 4290 c0 -5 5 -10 10 -10 6 0 10 5 10 10 0 6 -4 10 -10 10 -5 0
-10 -4 -10 -10z"/>
<path d="M2080 4120 c0 -11 14 -11 50 0 22 7 21 8 -12 9 -21 1 -38 -3 -38 -9z"/>
<path d="M2035 4090 l-40 -7 35 -1 c19 0 44 3 55 8 24 10 7 10 -50 0z"/>
<path d="M2280 3771 c0 -6 4 -13 10 -16 6 -3 7 1 4 9 -7 18 -14 21 -14 7z"/>
<path d="M2270 3691 c0 -5 9 -7 20 -4 11 3 20 7 20 9 0 2 -9 4 -20 4 -11 0
-20 -4 -20 -9z"/>
<path d="M2240 3660 c0 -5 7 -10 16 -10 8 0 12 5 9 10 -3 6 -10 10 -16 10 -5
0 -9 -4 -9 -10z"/>
<path d="M1970 3620 c-24 -4 -54 -5 -65 -3 -20 3 -20 3 0 -6 22 -11 115 -3
130 10 10 10 2 10 -65 -1z"/>
<path d="M330 3940 c-13 -9 -13 -10 0 -11 8 -1 -1 -5 -20 -9 l-35 -7 38 -2
c21 0 37 4 37 10 0 6 7 8 16 5 14 -5 15 -4 4 9 -15 17 -20 18 -40 5z"/>
<path d="M1676 3668 c3 -4 9 -8 15 -8 5 0 9 4 9 8 0 5 -7 9 -15 9 -8 0 -12 -4
-9 -9z"/>
<path d="M2683 3633 c9 -2 23 -2 30 0 6 3 -1 5 -18 5 -16 0 -22 -2 -12 -5z"/>
<path d="M2718 3613 c6 -2 18 -2 25 0 6 3 1 5 -13 5 -14 0 -19 -2 -12 -5z"/>
<path d="M875 3220 c4 -6 11 -8 16 -5 14 9 11 15 -7 15 -8 0 -12 -5 -9 -10z"/>
<path d="M918 3203 c7 -3 16 -2 19 1 4 3 -2 6 -13 5 -11 0 -14 -3 -6 -6z"/>
<path d="M898 3163 c7 -3 16 -2 19 1 4 3 -2 6 -13 5 -11 0 -14 -3 -6 -6z"/>
<path d="M5710 3161 c0 -6 4 -13 10 -16 6 -3 7 1 4 9 -7 18 -14 21 -14 7z"/>
<path d="M5736 2967 c3 -10 9 -15 12 -12 3 3 0 11 -7 18 -10 9 -11 8 -5 -6z"/>
<path d="M5722 2930 c0 -14 2 -19 5 -12 2 6 2 18 0 25 -3 6 -5 1 -5 -13z"/>
<path d="M5955 2810 c3 -5 8 -10 11 -10 2 0 4 5 4 10 0 6 -5 10 -11 10 -5 0
-7 -4 -4 -10z"/>
<path d="M3010 2680 c8 -5 20 -10 25 -10 6 0 3 5 -5 10 -8 5 -19 10 -25 10 -5
0 -3 -5 5 -10z"/>
<path d="M5100 6390 c33 -11 52 -12 46 -2 -2 4 -19 8 -38 9 -30 1 -31 1 -8 -7z"/>
<path d="M5972 6375 c0 -16 2 -22 5 -12 2 9 2 23 0 30 -3 6 -5 -1 -5 -18z"/>
<path d="M0 6347 l0 -43 68 -24 c37 -13 78 -28 92 -33 14 -6 28 -11 33 -12 4
-2 8 -3 10 -5 1 -1 11 -3 22 -5 11 -1 67 -18 125 -38 58 -19 118 -38 133 -41
15 -4 26 -10 23 -15 -3 -4 7 -8 22 -8 39 -1 55 -6 70 -23 10 -11 12 -12 6 -1
-5 11 -3 13 9 8 14 -5 17 0 17 25 0 36 -25 62 -77 79 -27 9 -32 14 -22 21 10
7 8 8 -8 3 -28 -8 -75 4 -66 18 3 6 1 7 -5 3 -13 -8 -54 4 -276 80 -87 30
-162 54 -167 54 -5 0 -9 -19 -9 -43z"/>
<path d="M5095 6367 c17 -8 32 -13 34 -11 7 7 -3 12 -34 19 l-30 6 30 -14z"/>
<path d="M261 6180 c0 -8 4 -24 9 -35 5 -13 9 -14 9 -5 0 8 -4 24 -9 35 -5 13
-9 14 -9 5z"/>
<path d="M26 5512 c-2 -4 4 -8 14 -8 10 0 16 4 14 8 -3 4 -9 8 -14 8 -5 0 -11
-4 -14 -8z"/>
<path d="M0 5260 c0 -5 5 -10 11 -10 5 0 7 5 4 10 -3 6 -8 10 -11 10 -2 0 -4
-4 -4 -10z"/>
<path d="M175 4960 c-3 -6 1 -7 9 -4 18 7 21 14 7 14 -6 0 -13 -4 -16 -10z"/>
<path d="M58 4923 l-58 -4 0 -70 c0 -41 4 -68 9 -64 5 3 12 -7 14 -22 4 -27 4
-27 6 4 1 30 2 31 41 27 31 -4 42 -1 47 12 8 22 -19 38 -33 19 -15 -19 -28
-19 -20 0 3 8 1 15 -3 15 -5 0 -12 -6 -14 -12 -4 -8 -6 -7 -6 4 -1 12 10 17
49 20 55 3 63 -8 34 -50 -14 -20 -14 -22 4 -22 15 0 21 -9 26 -37 4 -21 9 -50
12 -65 4 -21 2 -28 -10 -28 -9 0 -16 5 -16 10 0 6 -5 10 -11 10 -6 0 -9 -7 -5
-15 4 -12 -3 -15 -34 -15 -37 0 -39 2 -45 38 -10 59 -16 62 -11 5 4 -41 2 -53
-9 -53 -8 0 -12 6 -9 14 3 8 2 16 -3 19 -14 9 -10 -37 4 -51 11 -11 13 -11 13
0 0 10 3 9 10 -2 10 -15 -6 -44 -20 -35 -11 7 -21 -22 -14 -40 4 -8 10 -12 15
-9 5 3 7 10 4 15 -4 5 1 9 10 9 11 0 14 -6 9 -24 -3 -14 0 -29 10 -39 15 -14
14 -16 -2 -20 -9 -3 2 -5 26 -6 34 -1 42 2 42 17 1 23 24 52 41 52 11 0 11 -2
-1 -10 -8 -5 -10 -10 -3 -10 12 0 12 -17 1 -35 -4 -7 16 -12 58 -13 l64 -3 -6
43 c-4 24 -10 44 -14 46 -5 2 -6 12 -3 22 3 11 0 20 -6 20 -6 0 -11 -7 -11
-15 0 -18 -24 -20 -37 -2 -13 17 -10 36 7 48 12 8 10 9 -7 4 -13 -4 -23 -2
-23 4 0 5 8 12 18 14 16 4 16 5 0 6 -10 0 -18 7 -19 14 -1 27 -9 79 -19 119
-16 72 -14 78 26 78 33 0 36 2 30 23 -3 12 -6 28 -6 35 0 12 -21 13 -152 5z
m109 -305 c-3 -8 -6 -5 -6 6 -1 11 2 17 5 13 3 -3 4 -12 1 -19z m-21 1 c3 -6
1 -16 -6 -22 -10 -9 -12 -8 -7 5 4 12 -1 18 -16 21 l-22 4 22 2 c12 0 25 -4
29 -10z m-30 -16 c-8 -8 -56 -11 -51 -3 3 4 16 8 30 8 14 0 24 -3 21 -5z m61
-38 c-9 -21 -27 -19 -27 3 0 14 2 15 10 2 8 -13 10 -12 10 4 0 11 3 17 6 13 4
-3 4 -13 1 -22z m-87 -5 c8 -5 11 -10 5 -10 -5 0 -17 5 -25 10 -8 5 -10 10 -5
10 6 0 17 -5 25 -10z m19 -47 c2 -2 -5 -3 -17 -3 -14 0 -22 6 -22 16 0 14 3
15 18 3 9 -7 19 -15 21 -16z m101 -9 c0 -2 -7 -4 -15 -4 -8 0 -15 4 -15 10 0
5 7 7 15 4 8 -4 15 -8 15 -10z m20 -18 c0 -3 -4 -8 -10 -11 -5 -3 -10 -1 -10
4 0 6 5 11 10 11 6 0 10 -2 10 -4z"/>
<path d="M193 4843 c25 -7 21 -23 -5 -20 -18 1 -22 -2 -20 -18 5 -25 8 -28 23
-23 8 3 6 9 -5 21 -10 9 -13 17 -7 17 14 0 30 -32 24 -47 -3 -7 0 -13 6 -13 6
0 10 20 9 45 0 39 -3 45 -22 44 -17 -1 -17 -2 -3 -6z"/>
<path d="M70 4758 c26 -28 25 -38 -2 -38 -22 -1 -23 -1 -4 -15 11 -8 25 -15
30 -14 6 0 5 3 -2 6 -10 4 -7 12 10 31 13 14 17 22 9 17 -17 -10 -35 16 -18
27 7 5 1 8 -16 8 l-28 0 21 -22z"/>
<path d="M190 4726 c0 -9 30 -14 35 -6 4 6 -3 10 -14 10 -12 0 -21 -2 -21 -4z"/>
<path d="M6333 4665 c0 -8 4 -12 9 -9 5 3 6 10 3 15 -9 13 -12 11 -12 -6z"/>
<path d="M240 4628 c0 -9 -8 -19 -17 -21 -11 -3 -7 -5 10 -6 29 -1 33 5 17 29
-8 13 -10 13 -10 -2z"/>
<path d="M210 4580 c0 -5 5 -10 10 -10 6 0 10 5 10 10 0 6 -4 10 -10 10 -5 0
-10 -4 -10 -10z"/>
<path d="M280 4578 c0 -7 5 -20 10 -28 8 -12 10 -11 10 7 0 12 -4 25 -10 28
-5 3 -10 0 -10 -7z"/>
<path d="M130 4490 c0 -5 5 -10 10 -10 6 0 10 5 10 10 0 6 -4 10 -10 10 -5 0
-10 -4 -10 -10z"/>
<path d="M300 4436 c0 -8 5 -18 10 -21 6 -3 10 3 10 14 0 12 -4 21 -10 21 -5
0 -10 -6 -10 -14z"/>
<path d="M6208 4363 c6 -2 18 -2 25 0 6 3 1 5 -13 5 -14 0 -19 -2 -12 -5z"/>
<path d="M6378 4363 c7 -3 16 -2 19 1 4 3 -2 6 -13 5 -11 0 -14 -3 -6 -6z"/>
<path d="M26 4322 c-2 -4 12 -6 32 -6 20 1 40 -3 44 -9 6 -9 8 -9 8 0 0 7 7
10 18 7 14 -5 15 -4 2 5 -17 12 -96 15 -104 3z"/>
<path d="M156 4315 c-4 -11 2 -15 22 -14 24 0 25 1 7 8 -19 8 -18 9 5 13 l25
5 -26 2 c-16 0 -29 -5 -33 -14z"/>
</g>
</svg>
