<?xml version="1.0" standalone="no"?>
<!DOCTYPE svg PUBLIC "-//W3C//DTD SVG 20010904//EN"
 "http://www.w3.org/TR/2001/REC-SVG-20010904/DTD/svg10.dtd">
<svg version="1.0" xmlns="http://www.w3.org/2000/svg"
 width="288.000000pt" height="288.000000pt" viewBox="0 0 288.000000 288.000000"
 preserveAspectRatio="xMidYMid meet">

<g transform="translate(0.000000,288.000000) scale(0.100000,-0.100000)"
fill="#000000" stroke="none">
<path d="M1110 2863 c-51 -24 -252 -123 -275 -137 -173 -101 -383 -278 -524
-443 -45 -53 -151 -193 -151 -199 0 -4 -10 -21 -23 -38 -13 -17 -44 -66 -70
-109 l-47 -78 0 -202 c0 -152 5 -234 20 -332 25 -160 59 -318 80 -370 4 -11
18 -51 30 -90 11 -38 25 -79 30 -90 38 -85 50 -115 50 -120 0 -15 132 -274
165 -323 19 -30 35 -58 35 -62 0 -5 6 -15 13 -22 7 -7 25 -33 40 -58 14 -25
38 -58 52 -74 14 -16 25 -32 25 -37 0 -8 67 -33 165 -59 45 -13 101 -19 155
-19 l85 1 -165 42 c-216 56 -206 52 -232 94 -22 36 -32 50 -54 75 -24 27 -144
240 -193 342 -63 131 -116 259 -126 306 -4 19 -11 39 -15 44 -4 6 -11 26 -15
45 -4 19 -11 40 -15 45 -4 6 -11 30 -14 55 -4 25 -11 54 -16 65 -31 70 -76
484 -67 627 6 101 6 101 63 197 32 53 60 98 63 101 3 3 26 34 50 70 25 36 47
67 50 70 4 3 24 28 46 55 73 92 239 251 335 323 103 77 269 178 346 212 27 11
58 25 69 30 87 39 116 50 127 50 8 0 18 4 24 9 5 5 20 11 34 14 14 2 -6 5 -45
5 -44 0 -83 -5 -105 -15z"/>
<path d="M1620 2873 c8 -2 24 -8 35 -13 11 -5 45 -19 75 -31 180 -70 415 -201
535 -296 6 -5 30 -24 55 -43 55 -42 119 -101 174 -159 22 -24 52 -56 66 -71
21 -21 75 -88 112 -135 45 -57 78 -106 78 -114 0 -6 4 -11 9 -11 5 0 13 -10
17 -22 4 -13 9 -25 13 -28 3 -3 17 -25 30 -50 23 -42 24 -53 22 -190 -3 -174
-57 -605 -81 -635 -4 -5 -11 -28 -14 -50 -9 -49 -34 -134 -47 -157 -5 -10 -9
-26 -9 -35 0 -10 -6 -29 -13 -43 -7 -14 -24 -54 -37 -90 -13 -36 -30 -76 -37
-90 -7 -14 -13 -31 -13 -37 0 -7 -4 -13 -10 -13 -5 0 -10 -5 -10 -11 0 -13
-41 -101 -51 -109 -4 -3 -10 -16 -14 -29 -8 -25 -141 -248 -173 -290 -21 -26
-25 -27 -337 -104 l-60 -15 90 -1 c70 -1 111 5 180 25 104 30 155 52 155 67 0
5 18 34 40 63 22 29 40 56 40 60 0 4 6 15 14 23 24 28 134 238 186 356 12 28
28 64 35 81 20 42 92 262 100 304 4 19 11 41 15 50 5 8 16 53 25 100 38 200
56 355 62 542 l6 197 -42 70 c-22 38 -41 72 -41 76 0 4 -6 12 -12 19 -7 8 -20
24 -28 36 -67 102 -134 182 -260 310 -92 93 -297 260 -319 260 -6 0 -11 5 -11
10 0 6 -4 10 -8 10 -5 0 -47 22 -93 50 -46 27 -89 50 -96 50 -6 0 -13 3 -15 8
-3 8 -45 29 -123 62 -27 12 -64 28 -82 36 -17 8 -57 14 -90 13 -32 0 -51 -3
-43 -6z"/>
<path d="M1390 2565 c0 -73 -1 -75 -24 -75 -26 0 -27 3 -41 98 -4 26 -11 41
-18 39 -19 -6 -11 -127 10 -149 21 -23 68 -23 94 1 18 17 20 26 13 90 -5 50
-11 71 -20 71 -11 0 -14 -18 -14 -75z"/>
<path d="M1470 2625 c0 -9 9 -15 24 -15 25 0 25 -1 19 -70 -5 -59 -3 -70 9
-70 17 0 28 40 28 96 0 30 3 34 25 34 45 0 28 27 -21 34 -69 9 -84 8 -84 -9z"/>
<path d="M1635 2583 c-3 -21 -10 -56 -16 -77 -8 -30 -8 -41 3 -47 19 -12 34
24 42 99 6 51 4 62 -8 62 -10 0 -17 -13 -21 -37z"/>
<path d="M1185 2580 c-4 -16 -11 -30 -16 -30 -5 0 -9 -8 -9 -17 -1 -11 -7 -4
-15 15 -16 37 -52 46 -40 10 3 -13 13 -47 20 -76 16 -62 19 -67 40 -59 12 5
13 11 4 31 -9 19 -8 28 2 39 12 12 17 10 42 -14 27 -28 67 -39 67 -20 0 5 -16
21 -35 37 -38 30 -44 57 -19 92 14 21 14 22 -10 22 -19 0 -26 -7 -31 -30z"/>
<path d="M1716 2586 c-2 -12 -11 -47 -19 -78 -13 -48 -13 -58 -1 -62 15 -6 19
-2 28 37 7 28 20 35 31 17 10 -16 45 -12 45 5 0 8 -8 15 -18 15 -23 0 -42 19
-35 35 3 10 13 11 36 4 42 -12 47 -11 47 4 0 8 -23 20 -54 29 -53 14 -54 14
-60 -6z"/>
<path d="M982 2533 c-19 -9 -36 -22 -39 -30 -6 -16 52 -143 66 -143 5 0 32 12
60 27 36 18 49 29 41 37 -7 7 -21 4 -45 -7 -47 -23 -55 -21 -55 7 0 19 7 26
30 31 17 4 30 13 30 21 0 18 -18 18 -54 -1 -36 -19 -36 -19 -36 9 0 19 7 26
29 31 33 7 51 35 23 35 -9 0 -32 -8 -50 -17z"/>
<path d="M1929 2483 c-51 -84 -59 -102 -48 -109 6 -4 15 0 20 7 5 8 19 29 30
47 27 43 31 40 14 -9 -31 -86 -7 -105 51 -43 41 42 43 37 9 -21 -21 -35 -23
-44 -11 -48 17 -7 101 127 91 143 -12 20 -51 9 -78 -21 -15 -18 -30 -29 -33
-26 -3 3 2 26 11 52 8 26 14 49 13 50 -2 1 -13 5 -24 9 -18 5 -26 -1 -45 -31z"/>
<path d="M828 2442 c-21 -12 -28 -25 -28 -48 0 -37 23 -48 73 -33 44 12 47 12
47 -10 0 -21 -32 -37 -51 -25 -21 12 -29 -19 -9 -33 40 -28 99 28 88 84 -3 15
-13 18 -61 16 -42 -1 -57 2 -57 11 0 17 25 27 44 20 19 -7 32 16 15 27 -20 12
-30 11 -61 -9z"/>
<path d="M717 2363 c-4 -3 -7 -31 -7 -60 l0 -54 -24 28 c-20 22 -27 25 -37 16
-10 -10 -1 -25 44 -72 44 -46 59 -56 67 -46 8 9 6 17 -5 28 -8 9 -15 23 -15
33 0 14 7 16 39 10 40 -6 71 0 71 14 0 4 -17 11 -37 14 -71 13 -73 15 -73 57
0 37 -8 48 -23 32z"/>
<path d="M2130 2347 c-25 -12 -47 -25 -50 -28 -3 -4 -15 -9 -27 -13 -38 -12
-26 -32 15 -27 26 4 63 -29 57 -49 -3 -11 0 -26 7 -34 11 -11 16 -8 30 23 10
20 17 46 18 59 0 12 4 22 9 22 14 0 21 54 8 62 -16 10 -16 10 -67 -15z m40
-21 c0 -16 -28 -52 -38 -48 -17 5 -15 23 6 38 17 13 32 18 32 10z"/>
<path d="M2265 2259 c-5 -6 -30 -28 -55 -49 -36 -31 -43 -41 -33 -51 11 -10
17 -9 33 9 25 27 25 27 50 0 l20 -22 -25 -26 c-36 -37 -18 -60 21 -26 93 80
94 81 84 96 -8 12 -13 11 -33 -8 -23 -22 -24 -22 -40 -4 -21 23 -22 48 -2 56
18 7 20 36 3 36 -7 -1 -17 -6 -23 -11z"/>
<path d="M563 2203 c-30 -35 -43 -73 -25 -73 4 0 29 -18 56 -40 39 -32 51 -38
67 -30 10 6 19 15 19 21 0 5 11 20 25 33 28 26 31 36 12 36 -8 0 -26 -13 -40
-30 -16 -18 -33 -27 -42 -24 -20 8 -19 21 4 51 11 13 17 31 14 39 -4 11 -12 6
-33 -17 -20 -24 -31 -29 -43 -23 -14 8 -12 14 13 43 27 30 31 51 12 51 -4 0
-22 -17 -39 -37z"/>
<path d="M1374 2080 c-32 -10 -61 -36 -47 -42 4 -1 55 -1 113 2 l105 5 -28 19
c-32 22 -99 29 -143 16z"/>
<path d="M2370 2080 c-19 -5 -52 -11 -72 -15 -28 -4 -36 -9 -31 -21 4 -10 14
-14 29 -11 32 6 60 -44 41 -74 -9 -14 -9 -21 1 -31 6 -6 13 -10 15 -7 2 2 24
34 50 72 62 89 55 108 -33 87z m18 -50 c-15 -24 -24 -25 -31 -6 -6 14 6 24 31
25 10 1 10 -3 0 -19z"/>
<path d="M1841 2025 c-1 -33 34 -99 67 -127 17 -14 28 -29 25 -32 -4 -3 0 -6
8 -6 8 0 26 -13 41 -30 14 -16 28 -27 31 -23 3 3 9 -6 13 -21 3 -14 10 -26 15
-26 13 0 11 -72 -3 -103 -11 -22 -20 -27 -51 -27 -21 0 -47 -5 -58 -10 -24
-13 -32 4 -33 64 -1 35 2 41 22 44 20 3 23 0 20 -24 -3 -30 18 -45 28 -20 3 9
3 32 0 51 -6 31 -11 35 -37 35 -20 0 -39 -9 -56 -27 -22 -25 -24 -33 -19 -81
4 -30 22 -94 41 -144 30 -77 35 -102 35 -172 0 -47 -7 -106 -16 -137 -51 -173
-193 -311 -354 -344 -54 -11 -54 -11 -53 -48 0 -25 -4 -37 -14 -37 -11 0 -11
-4 -3 -21 16 -28 6 -49 -19 -42 -25 6 -38 42 -20 54 9 5 -10 9 -49 9 -45 0
-64 4 -68 15 -6 15 -60 11 -78 -6 -6 -5 -18 -9 -28 -9 -29 0 -149 -68 -188
-106 -31 -30 -32 -34 -14 -34 12 0 37 14 55 31 33 29 137 84 145 76 2 -2 -4
-12 -14 -23 -42 -46 -64 -129 -43 -163 7 -11 13 -7 25 17 11 21 21 29 31 26 8
-4 15 -10 15 -15 0 -5 5 -9 10 -9 6 0 10 20 10 45 0 44 16 95 31 95 4 0 14
-12 21 -27 18 -38 42 -40 84 -8 l35 27 26 -26 c42 -42 83 -29 83 27 0 27 1 28
17 11 29 -28 43 -64 43 -107 0 -39 0 -40 20 -22 19 17 20 17 37 -14 10 -17 21
-31 26 -31 4 0 7 25 7 56 0 45 -5 63 -27 95 -16 21 -36 41 -45 45 -10 3 -18
10 -18 15 0 11 6 11 28 0 9 -5 39 -17 65 -26 26 -9 70 -34 97 -56 59 -47 103
-55 55 -11 -51 47 -94 74 -107 66 -7 -4 -10 -4 -6 1 15 16 -53 45 -167 71 -28
6 -26 8 37 29 37 12 86 35 109 51 40 28 48 29 183 35 132 5 145 8 206 37 36
17 73 43 83 57 22 31 16 32 -16 2 -41 -37 -125 -57 -242 -57 -93 0 -104 2
-102 18 1 15 11 17 96 14 101 -4 171 11 242 51 34 19 78 77 59 77 -5 0 -12 -9
-15 -21 -4 -11 -9 -18 -12 -15 -3 3 -18 -3 -32 -13 -51 -36 -269 -54 -279 -23
-3 9 18 12 81 12 116 0 176 20 240 79 20 19 37 39 37 43 0 5 -14 -5 -31 -22
-18 -16 -40 -30 -50 -30 -10 0 -20 -4 -23 -9 -9 -14 -84 -22 -152 -15 -88 9
-78 28 17 32 41 1 96 10 122 19 77 28 157 117 129 145 -9 9 -12 7 -12 -10 0
-29 -62 -89 -98 -96 -66 -12 -120 -14 -157 -7 l-40 9 46 1 c78 2 168 40 221
93 20 20 41 88 27 88 -5 0 -9 -7 -9 -17 0 -9 -17 -33 -39 -54 -21 -21 -37 -39
-36 -41 5 -5 -57 -11 -122 -12 -86 -1 -80 17 8 26 54 5 77 12 97 30 15 12 29
27 31 32 2 5 12 17 23 28 10 10 16 23 13 27 -2 5 2 14 9 21 8 6 14 25 14 42
-1 29 -2 28 -24 -19 -28 -57 -66 -101 -101 -114 -13 -5 -49 -9 -79 -9 -41 0
-54 4 -54 15 0 11 12 15 50 15 31 0 61 7 78 18 49 31 83 66 78 79 -3 7 0 12 6
10 13 -2 26 34 27 77 1 37 -12 24 -28 -26 -7 -20 -23 -47 -36 -60 -14 -13 -25
-27 -25 -33 0 -19 -151 -27 -157 -8 -4 12 8 16 77 27 53 9 125 84 131 136 1 8
1 31 -1 50 -1 29 -3 32 -10 15 -5 -11 -9 -32 -9 -47 -1 -32 -41 -81 -83 -103
-37 -18 -122 -21 -116 -4 2 7 19 13 37 15 18 2 42 9 54 15 34 18 76 62 77 81
0 9 5 20 10 23 13 8 13 65 0 85 -6 10 -11 -1 -16 -38 -3 -29 -10 -52 -15 -52
-5 0 -9 -6 -9 -13 0 -17 -30 -42 -67 -54 -33 -12 -94 -4 -100 13 -5 14 40 34
76 34 16 0 40 11 57 26 23 23 28 35 28 78 1 67 -33 120 -118 183 -67 50 -101
92 -116 139 -6 21 -8 23 -9 9z m-441 -1267 c0 -20 -13 -34 -37 -40 -27 -7 -38
16 -17 37 19 18 54 20 54 3z m-140 -50 c-11 -18 -20 -46 -20 -62 0 -22 -4 -27
-16 -22 -9 4 -23 1 -30 -5 -20 -16 -18 7 4 52 22 46 43 68 64 69 16 0 16 -3
-2 -32z m371 3 c20 -19 32 -42 35 -68 4 -30 3 -35 -6 -20 -9 13 -15 15 -31 7
-17 -10 -19 -7 -19 23 0 18 -7 42 -15 53 -32 43 -8 47 36 5z"/>
<path d="M436 2015 c-3 -9 0 -15 9 -15 8 0 15 -4 15 -9 0 -5 14 -12 30 -16 38
-8 39 -25 1 -25 -48 0 -89 -11 -95 -27 -4 -9 14 -23 58 -43 35 -17 71 -30 80
-30 28 0 17 28 -14 35 -16 4 -30 10 -30 15 0 5 -8 11 -17 13 -10 3 4 5 30 6
92 2 113 34 44 65 -23 10 -55 25 -71 32 -35 17 -33 17 -40 -1z"/>
<path d="M1030 2017 c0 -9 -4 -17 -10 -17 -5 0 -10 -8 -10 -17 -1 -24 -35 -61
-103 -112 -79 -58 -111 -108 -109 -172 1 -70 32 -108 89 -108 41 -1 79 -24 68
-42 -9 -14 -93 -11 -124 5 -40 21 -61 59 -61 111 0 25 -4 45 -10 45 -5 0 -10
-1 -10 -2 -11 -68 -10 -78 11 -117 25 -48 86 -92 133 -96 46 -4 46 -4 46 -15
0 -16 -90 -12 -130 6 -49 22 -80 69 -80 122 0 23 -4 42 -10 42 -17 0 -12 -106
5 -120 8 -7 15 -18 15 -25 0 -25 69 -66 120 -72 48 -6 69 -17 56 -30 -3 -4
-37 -6 -74 -5 -63 2 -69 4 -100 37 -19 20 -38 51 -43 70 -12 44 -31 46 -22 3
11 -55 58 -118 109 -145 15 -7 48 -13 75 -13 38 0 49 -3 49 -16 0 -14 -11 -16
-71 -12 -68 4 -72 5 -114 48 -26 27 -47 59 -51 78 -8 40 -24 52 -24 17 0 -29
53 -117 93 -153 19 -19 42 -25 96 -30 40 -4 71 -11 71 -17 0 -18 -111 -17
-155 1 -49 21 -102 77 -108 113 -3 21 -4 19 -5 -9 -4 -88 118 -169 258 -171
41 0 50 -2 34 -9 -24 -9 -141 -6 -191 5 -41 9 -90 53 -98 88 -4 15 -11 27 -16
27 -12 0 -12 -1 6 -43 35 -83 114 -125 244 -130 96 -3 105 -22 16 -31 -37 -4
-83 -4 -103 0 -45 7 -92 26 -92 36 0 5 -5 8 -11 8 -6 0 -19 10 -30 23 -10 12
-18 17 -19 10 0 -15 59 -71 83 -79 9 -3 17 -9 17 -13 0 -12 130 -32 191 -30
31 1 61 -1 68 -6 24 -14 -10 -25 -79 -25 -116 1 -220 34 -246 79 l-15 26 7
-25 c9 -35 22 -48 68 -72 68 -35 97 -41 210 -47 74 -4 111 -10 114 -18 3 -10
-22 -13 -105 -13 -119 0 -194 20 -241 62 -16 15 -23 18 -20 8 8 -26 108 -88
159 -99 28 -6 100 -11 161 -11 104 0 112 -2 152 -28 72 -49 166 -84 166 -62 0
5 5 10 10 10 6 0 10 -9 10 -20 0 -11 5 -20 10 -20 6 0 10 15 10 33 0 33 -1 34
-42 34 -99 0 -257 118 -316 236 -54 110 -64 150 -60 250 4 85 31 193 70 270
17 35 6 100 -22 124 -28 25 -62 30 -77 11 -16 -21 -21 -54 -11 -72 15 -27 31
-19 26 14 -4 26 -1 30 18 30 27 0 30 -8 26 -66 l-4 -45 -62 7 c-63 7 -72 13
-82 52 -15 56 5 93 101 188 64 63 95 102 100 124 4 17 4 34 1 37 -3 4 -6 -1
-6 -10z"/>
<path d="M1320 2003 c0 -5 15 -25 33 -45 29 -33 40 -38 77 -38 37 0 48 5 82
40 21 23 38 43 38 45 0 3 -52 5 -115 5 -63 0 -115 -3 -115 -7z"/>
<path d="M2458 1943 c-14 -4 -18 -15 -18 -59 0 -41 -4 -54 -15 -54 -21 0 -40
39 -26 53 16 16 13 37 -4 37 -26 0 -37 -46 -21 -85 16 -37 45 -51 75 -35 15 8
21 22 23 60 4 62 22 70 26 13 2 -29 8 -43 18 -43 25 0 22 70 -4 100 -17 20
-22 21 -54 13z"/>
<path d="M1441 1848 c0 -10 -8 -18 -17 -18 -10 0 -14 -6 -10 -15 3 -8 1 -15
-4 -15 -6 0 -10 -8 -9 -17 0 -11 3 -13 6 -5 8 20 31 14 36 -10 l4 -23 2 23 c1
18 5 22 20 17 15 -5 18 -1 13 20 -2 14 -10 25 -17 25 -8 0 -16 8 -18 18 -4 16
-5 16 -6 0z"/>
<path d="M1327 1817 c-5 -13 -13 -16 -27 -12 -25 8 -26 -3 -2 -21 16 -13 16
-13 0 -14 -10 0 -18 -4 -18 -10 0 -5 7 -7 15 -3 9 3 22 -2 29 -12 12 -17 13
-16 19 6 5 17 9 20 15 11 6 -8 9 -3 9 17 0 19 -5 27 -13 24 -7 -2 -14 4 -16
14 -3 17 -4 17 -11 0z"/>
<path d="M1550 1816 c0 -9 -7 -16 -15 -16 -13 0 -12 -5 2 -35 18 -37 33 -46
33 -19 0 11 6 14 22 8 20 -6 21 -5 10 8 -7 9 -10 22 -6 31 4 12 1 14 -17 10
-14 -4 -20 -2 -15 5 3 6 2 13 -4 17 -5 3 -10 -1 -10 -9z"/>
<path d="M373 1809 c-52 -15 -47 -28 42 -94 22 -16 42 -33 43 -37 6 -13 32 -9
32 4 0 6 -7 19 -15 28 -23 26 -9 80 20 80 13 0 25 7 29 15 4 12 -5 15 -57 14
-34 0 -77 -5 -94 -10z m67 -49 c0 -20 -1 -20 -25 -4 -14 9 -25 18 -25 20 0 2
11 4 25 4 18 0 25 -5 25 -20z"/>
<path d="M2506 1781 c-3 -5 -26 -12 -51 -15 -47 -8 -66 -36 -23 -36 39 0 138
34 138 47 0 15 -56 18 -64 4z"/>
<path d="M1515 1760 c-3 -5 -1 -10 4 -10 6 0 11 5 11 10 0 6 -2 10 -4 10 -3 0
-8 -4 -11 -10z"/>
<path d="M1220 1744 c0 -10 -6 -14 -15 -10 -8 3 -15 1 -15 -3 0 -5 7 -11 15
-15 8 -3 15 -17 15 -31 0 -27 17 -34 26 -11 3 8 11 13 18 10 8 -3 13 5 13 25
0 20 -4 28 -14 24 -7 -3 -13 2 -13 11 0 9 -7 16 -15 16 -8 0 -15 -7 -15 -16z"/>
<path d="M1640 1740 c0 -14 -5 -18 -17 -13 -15 6 -16 4 -5 -9 9 -11 10 -18 2
-23 -15 -9 -12 -28 4 -22 7 3 19 0 25 -6 9 -9 14 -9 20 1 4 7 15 10 24 6 9 -3
17 -2 17 4 0 6 -6 12 -12 15 -10 3 -9 8 2 22 14 17 13 18 -7 13 -16 -4 -24 -1
-28 13 -8 25 -25 24 -25 -1z"/>
<path d="M2526 1707 c-10 -7 -20 -32 -23 -55 -4 -32 -10 -42 -22 -40 -18 4
-29 58 -12 58 6 0 11 9 11 19 0 14 -5 18 -20 14 -42 -11 -38 -108 5 -119 43
-11 62 3 71 52 11 58 30 57 27 -1 -3 -50 -1 -52 21 -29 23 22 20 70 -6 94 -26
24 -29 24 -52 7z"/>
<path d="M1190 1690 c0 -5 5 -10 10 -10 6 0 10 5 10 10 0 6 -4 10 -10 10 -5 0
-10 -4 -10 -10z"/>
<path d="M327 1643 c-8 -10 -18 -39 -22 -64 l-7 -46 77 -8 c60 -5 80 -4 86 7
11 16 11 79 1 94 -23 35 -108 46 -135 17z m87 -23 c20 -7 26 -16 26 -41 0 -28
-3 -31 -22 -25 -13 3 -38 6 -55 6 -26 0 -33 4 -33 19 0 23 25 51 45 51 8 0 25
-4 39 -10z"/>
<path d="M1160 1645 c0 -9 -6 -12 -15 -9 -18 7 -20 -12 -2 -20 10 -5 10 -7 0
-12 -19 -8 -16 -22 5 -20 9 0 16 -5 15 -11 -2 -7 2 -13 7 -13 6 0 10 7 10 15
0 9 9 15 21 15 18 0 19 2 9 15 -9 10 -9 15 -1 15 6 0 11 4 11 9 0 5 -9 7 -20
4 -14 -4 -20 0 -20 11 0 9 -4 16 -10 16 -5 0 -10 -7 -10 -15z"/>
<path d="M1706 1644 c-3 -9 -12 -14 -21 -10 -8 3 -15 1 -15 -4 0 -6 5 -10 10
-10 14 0 12 -27 -2 -34 -7 -3 -5 -4 4 -3 9 1 24 -7 32 -18 15 -20 15 -20 16 2
0 14 5 21 13 18 7 -3 12 4 12 18 0 15 -6 24 -15 23 -8 -1 -15 4 -15 11 0 20
-12 25 -19 7z"/>
<path d="M1425 1555 c-10 -36 -22 -68 -27 -71 -4 -3 -8 -16 -8 -29 0 -13 -6
-39 -14 -57 -19 -43 -66 -192 -66 -208 0 -6 -6 -26 -13 -43 -8 -18 -20 -53
-29 -79 -13 -41 -13 -48 -1 -52 8 -4 95 -6 194 -6 174 0 179 1 179 21 0 11 -4
18 -9 15 -5 -4 -7 2 -4 12 2 9 -3 31 -11 47 -9 17 -16 40 -16 52 0 12 -4 25
-10 28 -5 3 -10 17 -10 31 0 14 -4 22 -10 19 -5 -3 -9 2 -8 12 3 18 -45 183
-61 213 -5 9 -12 35 -16 58 -4 23 -11 44 -16 48 -5 3 -9 16 -9 30 0 45 -18 24
-35 -41z"/>
<path d="M1387 1557 c-3 -8 -40 -67 -83 -133 -87 -132 -98 -149 -115 -181 -7
-13 -16 -23 -21 -23 -11 0 -10 -57 1 -64 4 -3 11 -22 14 -42 8 -49 24 -68 43
-49 8 7 14 19 14 25 0 8 82 261 107 330 39 106 52 144 49 147 -2 2 -6 -2 -9
-10z"/>
<path d="M1498 1548 c7 -7 12 -19 12 -27 0 -9 7 -29 15 -45 8 -15 15 -36 15
-45 1 -9 9 -34 20 -56 11 -22 19 -47 20 -56 0 -9 3 -19 6 -22 9 -8 74 -194 81
-230 9 -47 19 -39 43 36 12 40 26 76 30 81 7 7 -40 88 -61 106 -3 3 -23 34
-45 70 -21 36 -44 70 -49 76 -6 6 -26 36 -45 67 -19 31 -39 57 -44 57 -6 0 -5
-5 2 -12z"/>
<path d="M2570 1549 c-14 -6 -47 -15 -73 -21 -41 -8 -48 -13 -45 -31 2 -17 13
-24 55 -32 68 -13 73 -21 21 -29 -24 -4 -51 -13 -62 -21 -25 -19 -14 -45 19
-45 15 0 34 -4 43 -9 9 -4 34 -11 55 -14 32 -5 37 -3 37 14 0 14 -7 19 -29 19
-33 0 -61 9 -61 19 0 4 20 13 45 20 75 22 50 59 -50 73 -17 3 6 13 83 34 6 2
12 10 12 19 0 17 -14 18 -50 4z"/>
<path d="M1163 1528 c1 -8 -7 -12 -23 -10 -24 2 -24 2 -6 -12 17 -14 17 -16 3
-22 -24 -9 -21 -27 3 -19 14 5 20 2 20 -9 0 -9 5 -16 10 -16 6 0 10 7 10 16 0
10 6 14 14 11 20 -8 28 4 15 20 -9 9 -8 13 0 13 6 0 11 5 11 10 0 6 -9 10 -20
10 -11 0 -20 5 -20 10 0 6 -4 10 -10 10 -5 0 -9 -6 -7 -12z"/>
<path d="M1710 1519 c0 -6 -7 -9 -15 -6 -8 4 -17 2 -20 -3 -4 -6 -1 -10 6 -10
6 0 9 -8 6 -20 -3 -13 0 -20 9 -20 8 0 14 -4 14 -10 0 -5 5 -10 11 -10 6 0 9
9 6 20 -4 16 -2 18 13 10 26 -14 34 -12 21 4 -8 10 -9 16 -1 21 5 3 10 11 10
18 0 8 -3 8 -12 -1 -16 -16 -28 -15 -28 3 0 8 -4 15 -10 15 -5 0 -10 -5 -10
-11z"/>
<path d="M410 1478 c-25 -11 -62 -27 -83 -36 -51 -23 -47 -53 8 -66 22 -5 42
-12 45 -17 3 -4 22 -10 43 -14 30 -6 37 -4 37 8 0 9 -9 19 -20 22 -28 9 -27
59 1 79 11 8 19 21 17 29 -3 13 -9 13 -48 -5z m-10 -66 c0 -15 -6 -18 -30 -14
-28 4 -29 5 -13 18 25 19 43 17 43 -4z"/>
<path d="M2440 1325 c0 -8 6 -15 14 -15 33 0 25 -73 -10 -89 -25 -11 -33 -31
-12 -31 7 0 48 8 91 17 66 14 77 19 75 36 -2 10 -16 26 -33 35 -16 9 -32 19
-35 22 -14 15 -61 40 -75 40 -8 0 -15 -7 -15 -15z m100 -76 c0 -6 -25 -19 -36
-19 -2 0 -4 11 -4 25 0 23 2 24 20 13 11 -7 20 -16 20 -19z"/>
<path d="M396 1295 c-4 -11 -13 -14 -29 -10 -35 9 -61 -20 -53 -58 3 -16 6
-40 6 -52 0 -17 5 -22 18 -20 9 2 47 9 85 16 54 9 67 15 67 30 0 10 -4 21 -10
24 -5 3 -10 17 -10 30 0 13 -3 30 -6 39 -8 21 -60 21 -68 1z m50 -50 c6 -19 8
-35 3 -35 -4 0 -14 -3 -22 -6 -17 -6 -31 34 -21 60 10 27 29 18 40 -19z m-72
-1 c12 -32 6 -54 -14 -54 -15 0 -20 7 -20 28 0 41 22 58 34 26z"/>
<path d="M2452 1078 c4 -24 1 -27 -26 -30 -26 -2 -31 -7 -31 -28 0 -20 6 -26
27 -28 21 -3 27 -9 30 -30 2 -19 10 -28 26 -30 19 -3 22 1 22 27 0 28 3 31 30
31 27 0 30 3 30 30 0 27 -3 30 -30 30 -27 0 -30 3 -30 30 0 26 -3 29 -26 28
-22 -2 -25 -6 -22 -30z"/>
<path d="M350 1040 c0 -27 -3 -30 -31 -30 -27 0 -30 -3 -27 -27 2 -22 8 -28
28 -28 21 0 26 -5 28 -32 3 -27 7 -33 28 -33 20 0 24 5 24 30 0 27 3 30 30 30
27 0 30 3 30 30 0 27 -3 30 -30 30 -27 0 -30 3 -30 30 0 25 -4 30 -25 30 -21
0 -25 -5 -25 -30z"/>
<path d="M1390 836 c0 -33 2 -36 31 -36 28 0 30 2 27 33 -2 27 -8 33 -30 35
-26 3 -28 1 -28 -32z"/>
<path d="M1462 838 c2 -18 8 -33 13 -33 6 0 11 15 13 33 3 24 -1 32 -13 32
-12 0 -16 -8 -13 -32z"/>
<path d="M2236 755 c-3 -9 -3 -36 1 -60 6 -49 3 -53 -22 -29 -15 15 -45 13
-45 -3 1 -17 122 -94 138 -88 13 5 11 10 -11 31 -15 14 -27 29 -27 34 0 6 22
10 49 10 28 0 53 5 56 11 10 15 6 17 -50 21 -50 3 -50 3 -59 46 -10 44 -20 53
-30 27z"/>
<path d="M589 669 c-19 -17 -46 -40 -61 -52 -32 -25 -34 -33 -13 -41 8 -3 23
4 34 15 16 18 22 19 40 7 12 -7 21 -16 21 -20 0 -5 7 -8 15 -8 22 0 18 23 -5
38 -24 15 -26 30 -4 39 10 4 24 -4 38 -20 15 -17 27 -23 35 -17 11 6 4 18 -26
49 l-39 41 -35 -31z"/>
<path d="M705 525 c-21 -30 -41 -55 -46 -55 -5 0 -9 -7 -9 -15 0 -18 25 -20
40 -2 6 6 19 23 30 36 25 30 25 24 1 -29 -18 -39 -19 -70 -2 -70 3 0 21 14 40
30 43 38 51 32 17 -13 -31 -40 -32 -47 -8 -47 10 0 34 26 58 63 34 51 39 65
28 75 -19 17 -26 15 -63 -19 -18 -16 -35 -28 -37 -26 -2 2 3 23 11 47 19 54
19 57 -4 69 -15 9 -24 2 -56 -44z"/>
<path d="M2070 565 c-10 -12 -10 -21 -2 -38 24 -49 52 -117 52 -126 0 -17 17
-13 24 5 4 9 4 25 1 35 -7 22 32 50 65 47 48 -6 27 19 -42 52 -40 18 -76 35
-79 37 -4 1 -12 -4 -19 -12z m74 -70 c-8 -20 -20 -19 -28 1 -11 28 -7 35 14
24 11 -6 17 -16 14 -25z"/>
<path d="M1948 473 c-10 -2 -18 -9 -18 -14 0 -5 -6 -9 -14 -9 -35 0 -34 -25 5
-83 21 -32 39 -63 39 -68 0 -5 5 -9 10 -9 16 0 26 33 12 38 -20 6 -14 29 13
50 31 25 34 76 6 92 -20 10 -25 11 -53 3z m42 -46 c0 -16 -20 -37 -36 -37 -14
0 -27 28 -18 41 8 14 54 11 54 -4z"/>
<path d="M919 413 c-7 -16 -24 -45 -37 -67 -16 -25 -20 -42 -14 -48 15 -15 24
-6 57 59 17 32 33 60 38 61 14 7 7 22 -11 22 -10 0 -25 -12 -33 -27z"/>
<path d="M1022 379 c-7 -10 -12 -24 -12 -31 -1 -7 -9 -31 -20 -53 -24 -50 -24
-55 -1 -55 12 0 21 9 25 25 7 27 34 33 54 13 9 -9 18 -9 37 0 20 9 25 19 25
46 0 39 -11 50 -61 64 -30 8 -37 7 -47 -9z m67 -28 c8 -5 11 -16 6 -30 -7 -25
-13 -25 -39 -6 -33 25 -3 59 33 36z"/>
<path d="M1800 388 c0 -2 7 -24 15 -50 8 -27 13 -48 11 -48 -2 0 -21 16 -42
35 -22 19 -49 35 -60 35 -21 0 -21 0 5 -77 15 -42 32 -78 39 -81 15 -5 15 16
1 57 -6 18 -9 34 -7 37 3 2 23 -11 44 -31 68 -60 80 -48 50 50 -15 46 -28 71
-39 73 -9 2 -17 2 -17 0z"/>
<path d="M1235 322 c-5 -4 -21 -29 -35 -57 -14 -27 -28 -51 -32 -53 -12 -6 -9
-32 3 -32 7 0 17 7 24 16 16 22 75 10 82 -17 6 -21 33 -26 33 -7 0 7 -8 45
-17 85 -18 71 -30 86 -58 65z m25 -73 c0 -18 -20 -26 -33 -13 -8 8 15 44 25
38 4 -3 8 -14 8 -25z"/>
<path d="M1607 266 c6 -67 -2 -82 -36 -71 -15 4 -21 19 -26 65 -5 44 -11 60
-22 60 -23 0 -9 -128 15 -147 20 -16 92 -9 104 10 8 11 1 124 -9 140 -2 4 -10
7 -17 7 -11 0 -13 -15 -9 -64z"/>
<path d="M1380 215 c0 -10 11 -15 35 -15 24 0 35 5 35 15 0 10 -11 15 -35 15
-24 0 -35 -5 -35 -15z"/>
</g>
</svg>
